<svg width="195" height="40" viewBox="0 0 195 40" fill="none" xmlns="http://www.w3.org/2000/svg">
<path d="M61.666 20.718C61.666 19.494 61.948 18.396 62.512 17.424C63.088 16.452 63.862 15.696 64.834 15.156C65.818 14.604 66.892 14.328 68.056 14.328C69.388 14.328 70.57 14.658 71.602 15.318C72.646 15.966 73.402 16.89 73.87 18.09H71.404C71.08 17.43 70.63 16.938 70.054 16.614C69.478 16.29 68.812 16.128 68.056 16.128C67.228 16.128 66.49 16.314 65.842 16.686C65.194 17.058 64.684 17.592 64.312 18.288C63.952 18.984 63.772 19.794 63.772 20.718C63.772 21.642 63.952 22.452 64.312 23.148C64.684 23.844 65.194 24.384 65.842 24.768C66.49 25.14 67.228 25.326 68.056 25.326C68.812 25.326 69.478 25.164 70.054 24.84C70.63 24.516 71.08 24.024 71.404 23.364H73.87C73.402 24.564 72.646 25.488 71.602 26.136C70.57 26.784 69.388 27.108 68.056 27.108C66.88 27.108 65.806 26.838 64.834 26.298C63.862 25.746 63.088 24.984 62.512 24.012C61.948 23.04 61.666 21.942 61.666 20.718ZM80.5739 27.162C79.6379 27.162 78.7919 26.952 78.0359 26.532C77.2799 26.1 76.6859 25.5 76.2539 24.732C75.8219 23.952 75.6059 23.052 75.6059 22.032C75.6059 21.024 75.8279 20.13 76.2719 19.35C76.7159 18.57 77.3219 17.97 78.0899 17.55C78.8579 17.13 79.7159 16.92 80.6639 16.92C81.6119 16.92 82.4699 17.13 83.2379 17.55C84.0059 17.97 84.6119 18.57 85.0559 19.35C85.4999 20.13 85.7219 21.024 85.7219 22.032C85.7219 23.04 85.4939 23.934 85.0379 24.714C84.5819 25.494 83.9579 26.1 83.1659 26.532C82.3859 26.952 81.5219 27.162 80.5739 27.162ZM80.5739 25.38C81.1019 25.38 81.5939 25.254 82.0499 25.002C82.5179 24.75 82.8959 24.372 83.1839 23.868C83.4719 23.364 83.6159 22.752 83.6159 22.032C83.6159 21.312 83.4779 20.706 83.2019 20.214C82.9259 19.71 82.5599 19.332 82.1039 19.08C81.6479 18.828 81.1559 18.702 80.6279 18.702C80.0999 18.702 79.6079 18.828 79.1519 19.08C78.7079 19.332 78.3539 19.71 78.0899 20.214C77.8259 20.706 77.6939 21.312 77.6939 22.032C77.6939 23.1 77.9639 23.928 78.5039 24.516C79.0559 25.092 79.7459 25.38 80.5739 25.38ZM92.7544 16.92C93.5344 16.92 94.2304 17.082 94.8424 17.406C95.4664 17.73 95.9524 18.21 96.3004 18.846C96.6484 19.482 96.8224 20.25 96.8224 21.15V27H94.7884V21.456C94.7884 20.568 94.5664 19.89 94.1224 19.422C93.6784 18.942 93.0724 18.702 92.3044 18.702C91.5364 18.702 90.9244 18.942 90.4684 19.422C90.0244 19.89 89.8024 20.568 89.8024 21.456V27H87.7504V17.082H89.8024V18.216C90.1384 17.808 90.5644 17.49 91.0804 17.262C91.6084 17.034 92.1664 16.92 92.7544 16.92ZM103.598 18.756H101.762V27H99.6918V18.756H98.5218V17.082H99.6918V16.38C99.6918 15.24 99.9918 14.412 100.592 13.896C101.204 13.368 102.158 13.104 103.454 13.104V14.814C102.83 14.814 102.392 14.934 102.14 15.174C101.888 15.402 101.762 15.804 101.762 16.38V17.082H103.598V18.756ZM106.46 15.768C106.088 15.768 105.776 15.642 105.524 15.39C105.272 15.138 105.146 14.826 105.146 14.454C105.146 14.082 105.272 13.77 105.524 13.518C105.776 13.266 106.088 13.14 106.46 13.14C106.82 13.14 107.126 13.266 107.378 13.518C107.63 13.77 107.756 14.082 107.756 14.454C107.756 14.826 107.63 15.138 107.378 15.39C107.126 15.642 106.82 15.768 106.46 15.768ZM107.468 17.082V27H105.416V17.082H107.468ZM114.159 16.92C114.927 16.92 115.605 17.076 116.193 17.388C116.793 17.688 117.261 18.066 117.597 18.522V17.082H119.667V27.162C119.667 28.074 119.475 28.884 119.091 29.592C118.707 30.312 118.149 30.876 117.417 31.284C116.697 31.692 115.833 31.896 114.825 31.896C113.481 31.896 112.365 31.578 111.477 30.942C110.589 30.318 110.085 29.466 109.965 28.386H111.999C112.155 28.902 112.485 29.316 112.989 29.628C113.505 29.952 114.117 30.114 114.825 30.114C115.653 30.114 116.319 29.862 116.823 29.358C117.339 28.854 117.597 28.122 117.597 27.162V25.506C117.249 25.974 116.775 26.37 116.175 26.694C115.587 27.006 114.915 27.162 114.159 27.162C113.295 27.162 112.503 26.946 111.783 26.514C111.075 26.07 110.511 25.458 110.091 24.678C109.683 23.886 109.479 22.992 109.479 21.996C109.479 21 109.683 20.118 110.091 19.35C110.511 18.582 111.075 17.988 111.783 17.568C112.503 17.136 113.295 16.92 114.159 16.92ZM117.597 22.032C117.597 21.348 117.453 20.754 117.165 20.25C116.889 19.746 116.523 19.362 116.067 19.098C115.611 18.834 115.119 18.702 114.591 18.702C114.063 18.702 113.571 18.834 113.115 19.098C112.659 19.35 112.287 19.728 111.999 20.232C111.723 20.724 111.585 21.312 111.585 21.996C111.585 22.68 111.723 23.28 111.999 23.796C112.287 24.312 112.659 24.708 113.115 24.984C113.583 25.248 114.075 25.38 114.591 25.38C115.119 25.38 115.611 25.248 116.067 24.984C116.523 24.72 116.889 24.336 117.165 23.832C117.453 23.316 117.597 22.716 117.597 22.032ZM131.344 17.082V27H129.292V25.83C128.968 26.238 128.542 26.562 128.014 26.802C127.498 27.03 126.946 27.144 126.358 27.144C125.578 27.144 124.876 26.982 124.252 26.658C123.64 26.334 123.154 25.854 122.794 25.218C122.446 24.582 122.272 23.814 122.272 22.914V17.082H124.306V22.608C124.306 23.496 124.528 24.18 124.972 24.66C125.416 25.128 126.022 25.362 126.79 25.362C127.558 25.362 128.164 25.128 128.608 24.66C129.064 24.18 129.292 23.496 129.292 22.608V17.082H131.344ZM136.103 18.522C136.403 18.018 136.799 17.628 137.291 17.352C137.795 17.064 138.389 16.92 139.073 16.92V19.044H138.551C137.747 19.044 137.135 19.248 136.715 19.656C136.307 20.064 136.103 20.772 136.103 21.78V27H134.051V17.082H136.103V18.522ZM140.275 21.996C140.275 21 140.479 20.118 140.887 19.35C141.307 18.582 141.871 17.988 142.579 17.568C143.299 17.136 144.091 16.92 144.955 16.92C145.735 16.92 146.413 17.076 146.989 17.388C147.577 17.688 148.045 18.066 148.393 18.522V17.082H150.463V27H148.393V25.524C148.045 25.992 147.571 26.382 146.971 26.694C146.371 27.006 145.687 27.162 144.919 27.162C144.067 27.162 143.287 26.946 142.579 26.514C141.871 26.07 141.307 25.458 140.887 24.678C140.479 23.886 140.275 22.992 140.275 21.996ZM148.393 22.032C148.393 21.348 148.249 20.754 147.961 20.25C147.685 19.746 147.319 19.362 146.863 19.098C146.407 18.834 145.915 18.702 145.387 18.702C144.859 18.702 144.367 18.834 143.911 19.098C143.455 19.35 143.083 19.728 142.795 20.232C142.519 20.724 142.381 21.312 142.381 21.996C142.381 22.68 142.519 23.28 142.795 23.796C143.083 24.312 143.455 24.708 143.911 24.984C144.379 25.248 144.871 25.38 145.387 25.38C145.915 25.38 146.407 25.248 146.863 24.984C147.319 24.72 147.685 24.336 147.961 23.832C148.249 23.316 148.393 22.716 148.393 22.032ZM157.335 25.434C158.523 25.434 159.309 24.912 159.693 23.868H161.907C161.643 24.78 161.169 25.53 160.485 26.118C159.813 26.694 158.967 27.03 157.947 27.126V27.864C158.643 27.864 159.207 28.026 159.639 28.35C160.071 28.686 160.287 29.154 160.287 29.754C160.287 30.354 160.071 30.828 159.639 31.176C159.207 31.536 158.661 31.716 158.001 31.716H155.625V30.42H157.587C157.923 30.42 158.175 30.372 158.343 30.276C158.511 30.18 158.595 30.006 158.595 29.754C158.595 29.502 158.511 29.328 158.343 29.232C158.175 29.136 157.923 29.088 157.587 29.088H156.597V27.108C155.781 27.012 155.061 26.742 154.437 26.298C153.813 25.842 153.327 25.254 152.979 24.534C152.643 23.802 152.475 22.968 152.475 22.032C152.475 21.012 152.679 20.118 153.087 19.35C153.507 18.57 154.083 17.97 154.815 17.55C155.547 17.13 156.387 16.92 157.335 16.92C158.535 16.92 159.525 17.208 160.305 17.784C161.097 18.348 161.631 19.158 161.907 20.214H159.693C159.513 19.722 159.225 19.338 158.829 19.062C158.433 18.786 157.935 18.648 157.335 18.648C156.495 18.648 155.823 18.948 155.319 19.548C154.827 20.136 154.581 20.964 154.581 22.032C154.581 23.1 154.827 23.934 155.319 24.534C155.823 25.134 156.495 25.434 157.335 25.434ZM168.254 27.162C167.318 27.162 166.472 26.952 165.716 26.532C164.96 26.1 164.366 25.5 163.934 24.732C163.502 23.952 163.286 23.052 163.286 22.032C163.286 21.024 163.508 20.13 163.952 19.35C164.396 18.57 165.002 17.97 165.77 17.55C166.538 17.13 167.396 16.92 168.344 16.92C169.292 16.92 170.15 17.13 170.918 17.55C171.686 17.97 172.292 18.57 172.736 19.35C173.18 20.13 173.402 21.024 173.402 22.032C173.402 23.04 173.174 23.934 172.718 24.714C172.262 25.494 171.638 26.1 170.846 26.532C170.066 26.952 169.202 27.162 168.254 27.162ZM168.254 25.38C168.782 25.38 169.274 25.254 169.73 25.002C170.198 24.75 170.576 24.372 170.864 23.868C171.152 23.364 171.296 22.752 171.296 22.032C171.296 21.312 171.158 20.706 170.882 20.214C170.606 19.71 170.24 19.332 169.784 19.08C169.328 18.828 168.836 18.702 168.308 18.702C167.78 18.702 167.288 18.828 166.832 19.08C166.388 19.332 166.034 19.71 165.77 20.214C165.506 20.706 165.374 21.312 165.374 22.032C165.374 23.1 165.644 23.928 166.184 24.516C166.736 25.092 167.426 25.38 168.254 25.38ZM165.41 15.894C165.506 15.198 165.734 14.676 166.094 14.328C166.454 13.968 166.904 13.788 167.444 13.788C167.672 13.788 167.87 13.824 168.038 13.896C168.206 13.968 168.41 14.076 168.65 14.22C168.83 14.34 168.98 14.43 169.1 14.49C169.232 14.55 169.376 14.58 169.532 14.58C169.736 14.58 169.904 14.52 170.036 14.4C170.18 14.268 170.27 14.076 170.306 13.824H171.458C171.362 14.52 171.134 15.048 170.774 15.408C170.414 15.756 169.964 15.93 169.424 15.93C169.196 15.93 168.992 15.894 168.812 15.822C168.632 15.738 168.434 15.624 168.218 15.48C168.002 15.348 167.834 15.258 167.714 15.21C167.606 15.15 167.48 15.12 167.336 15.12C167.132 15.12 166.958 15.186 166.814 15.318C166.682 15.45 166.598 15.642 166.562 15.894H165.41ZM184.52 21.798C184.52 22.17 184.496 22.506 184.448 22.806H176.87C176.93 23.598 177.224 24.234 177.752 24.714C178.28 25.194 178.928 25.434 179.696 25.434C180.8 25.434 181.58 24.972 182.036 24.048H184.25C183.95 24.96 183.404 25.71 182.612 26.298C181.832 26.874 180.86 27.162 179.696 27.162C178.748 27.162 177.896 26.952 177.14 26.532C176.396 26.1 175.808 25.5 175.376 24.732C174.956 23.952 174.746 23.052 174.746 22.032C174.746 21.012 174.95 20.118 175.358 19.35C175.778 18.57 176.36 17.97 177.104 17.55C177.86 17.13 178.724 16.92 179.696 16.92C180.632 16.92 181.466 17.124 182.198 17.532C182.93 17.94 183.5 18.516 183.908 19.26C184.316 19.992 184.52 20.838 184.52 21.798ZM182.378 21.15C182.366 20.394 182.096 19.788 181.568 19.332C181.04 18.876 180.386 18.648 179.606 18.648C178.898 18.648 178.292 18.876 177.788 19.332C177.284 19.776 176.984 20.382 176.888 21.15H182.378ZM190.139 27.162C189.359 27.162 188.657 27.024 188.033 26.748C187.421 26.46 186.935 26.076 186.575 25.596C186.215 25.104 186.023 24.558 185.999 23.958H188.123C188.159 24.378 188.357 24.732 188.717 25.02C189.089 25.296 189.551 25.434 190.103 25.434C190.679 25.434 191.123 25.326 191.435 25.11C191.759 24.882 191.921 24.594 191.921 24.246C191.921 23.874 191.741 23.598 191.381 23.418C191.033 23.238 190.475 23.04 189.707 22.824C188.963 22.62 188.357 22.422 187.889 22.23C187.421 22.038 187.013 21.744 186.665 21.348C186.329 20.952 186.161 20.43 186.161 19.782C186.161 19.254 186.317 18.774 186.629 18.342C186.941 17.898 187.385 17.55 187.961 17.298C188.549 17.046 189.221 16.92 189.977 16.92C191.105 16.92 192.011 17.208 192.695 17.784C193.391 18.348 193.763 19.122 193.811 20.106H191.759C191.723 19.662 191.543 19.308 191.219 19.044C190.895 18.78 190.457 18.648 189.905 18.648C189.365 18.648 188.951 18.75 188.663 18.954C188.375 19.158 188.231 19.428 188.231 19.764C188.231 20.028 188.327 20.25 188.519 20.43C188.711 20.61 188.945 20.754 189.221 20.862C189.497 20.958 189.905 21.084 190.445 21.24C191.165 21.432 191.753 21.63 192.209 21.834C192.677 22.026 193.079 22.314 193.415 22.698C193.751 23.082 193.925 23.592 193.937 24.228C193.937 24.792 193.781 25.296 193.469 25.74C193.157 26.184 192.713 26.532 192.137 26.784C191.573 27.036 190.907 27.162 190.139 27.162Z" fill="#5E5E5E"/>
<path fill-rule="evenodd" clip-rule="evenodd" d="M23.7979 3.58666C23.1812 3.33333 22.3979 3.33333 20.8329 3.33333C19.2679 3.33333 18.4862 3.33333 17.8679 3.58666C17.047 3.92368 16.3935 4.57294 16.0512 5.39166C15.8945 5.76333 15.8345 6.19833 15.8095 6.82999C15.7984 7.28767 15.6708 7.73494 15.4386 8.12953C15.2065 8.52411 14.8775 8.85297 14.4829 9.085C14.0808 9.3085 13.6288 9.4269 13.1688 9.42923C12.7087 9.43156 12.2556 9.31775 11.8512 9.09833C11.2879 8.80166 10.8795 8.63833 10.4762 8.58499C9.59381 8.46913 8.70134 8.70633 7.99288 9.24499C7.46288 9.64833 7.07122 10.3217 6.28955 11.6667C5.50622 13.0117 5.11622 13.6833 5.02788 14.3417C4.91122 15.2183 5.15122 16.105 5.69455 16.8067C5.94122 17.1267 6.28955 17.395 6.82788 17.7317C7.62288 18.2267 8.13288 19.07 8.13288 20C8.13288 20.93 7.62288 21.7733 6.82955 22.2667C6.28955 22.605 5.94122 22.8733 5.69288 23.1933C5.42469 23.5399 5.22783 23.9362 5.11369 24.3593C4.99955 24.7824 4.97038 25.2239 5.02788 25.6583C5.11622 26.315 5.50622 26.9883 6.28955 28.3333C7.07288 29.6783 7.46288 30.35 7.99288 30.755C8.69955 31.2933 9.59288 31.53 10.4762 31.415C10.8795 31.3617 11.2879 31.1983 11.8512 30.9017C12.2558 30.6819 12.7092 30.568 13.1696 30.5703C13.6299 30.5726 14.0823 30.6912 14.4845 30.915C15.2945 31.3817 15.7745 32.24 15.8095 33.17C15.8345 33.8033 15.8945 34.2367 16.0512 34.6083C16.3912 35.425 17.0445 36.075 17.8679 36.4133C18.4845 36.6667 19.2679 36.6667 20.8329 36.6667C22.3979 36.6667 23.1812 36.6667 23.7979 36.4133C24.6188 36.0763 25.2722 35.4271 25.6145 34.6083C25.7712 34.2367 25.8312 33.8033 25.8562 33.17C25.8895 32.24 26.3712 31.38 27.1829 30.915C27.585 30.6915 28.037 30.5731 28.497 30.5708C28.957 30.5684 29.4102 30.6822 29.8145 30.9017C30.3779 31.1983 30.7862 31.3617 31.1896 31.415C32.0729 31.5317 32.9662 31.2933 33.6729 30.755C34.2029 30.3517 34.5945 29.6783 35.3762 28.3333C36.1595 26.9883 36.5495 26.3167 36.6379 25.6583C36.6951 25.2238 36.6657 24.7822 36.5513 24.3591C36.4369 23.936 36.2397 23.5398 35.9712 23.1933C35.7245 22.8733 35.3762 22.605 34.8379 22.2683C34.0429 21.7733 33.5329 20.93 33.5329 20C33.5329 19.07 34.0429 18.2267 34.8362 17.7333C35.3762 17.395 35.7245 17.1267 35.9729 16.8067C36.2411 16.4601 36.4379 16.0638 36.5521 15.6407C36.6662 15.2176 36.6954 14.7761 36.6379 14.3417C36.5495 13.685 36.1595 13.0117 35.3762 11.6667C34.5929 10.3217 34.2029 9.64999 33.6729 9.24499C32.9644 8.70633 32.072 8.46913 31.1896 8.58499C30.7862 8.63833 30.3779 8.80166 29.8145 9.09833C29.41 9.31804 28.9565 9.43202 28.4962 9.42969C28.0358 9.42736 27.5835 9.3088 27.1812 9.085C26.7869 8.85276 26.4583 8.52382 26.2264 8.12925C25.9946 7.73468 25.8672 7.28751 25.8562 6.82999C25.8312 6.19666 25.7712 5.76333 25.6145 5.39166C25.4451 4.98622 25.1975 4.61813 24.8858 4.30842C24.5741 3.99872 24.2044 3.75346 23.7979 3.58666ZM20.8329 25C23.6162 25 25.8712 22.7617 25.8712 20C25.8712 17.2383 23.6145 15 20.8329 15C18.0495 15 15.7945 17.2383 15.7945 20C15.7945 22.7617 18.0512 25 20.8329 25Z" fill="#909090"/>
</svg>
