<svg width="106" height="40" viewBox="0 0 106 40" fill="none" xmlns="http://www.w3.org/2000/svg">
<path d="M71.098 18.216C71.098 18.852 70.948 19.452 70.648 20.016C70.348 20.58 69.868 21.042 69.208 21.402C68.548 21.75 67.702 21.924 66.67 21.924H64.402V27H62.35V14.49H66.67C67.63 14.49 68.44 14.658 69.1 14.994C69.772 15.318 70.27 15.762 70.594 16.326C70.93 16.89 71.098 17.52 71.098 18.216ZM66.67 20.25C67.45 20.25 68.032 20.076 68.416 19.728C68.8 19.368 68.992 18.864 68.992 18.216C68.992 16.848 68.218 16.164 66.67 16.164H64.402V20.25H66.67ZM82.1451 21.798C82.1451 22.17 82.1211 22.506 82.0731 22.806H74.4951C74.5551 23.598 74.8491 24.234 75.3771 24.714C75.9051 25.194 76.5531 25.434 77.3211 25.434C78.4251 25.434 79.2051 24.972 79.6611 24.048H81.8751C81.5751 24.96 81.0291 25.71 80.2371 26.298C79.4571 26.874 78.4851 27.162 77.3211 27.162C76.3731 27.162 75.5211 26.952 74.7651 26.532C74.0211 26.1 73.4331 25.5 73.0011 24.732C72.5811 23.952 72.3711 23.052 72.3711 22.032C72.3711 21.012 72.5751 20.118 72.9831 19.35C73.4031 18.57 73.9851 17.97 74.7291 17.55C75.4851 17.13 76.3491 16.92 77.3211 16.92C78.2571 16.92 79.0911 17.124 79.8231 17.532C80.5551 17.94 81.1251 18.516 81.5331 19.26C81.9411 19.992 82.1451 20.838 82.1451 21.798ZM80.0031 21.15C79.9911 20.394 79.7211 19.788 79.1931 19.332C78.6651 18.876 78.0111 18.648 77.2311 18.648C76.5231 18.648 75.9171 18.876 75.4131 19.332C74.9091 19.776 74.6091 20.382 74.5131 21.15H80.0031ZM86.2165 18.522C86.5165 18.018 86.9125 17.628 87.4045 17.352C87.9085 17.064 88.5025 16.92 89.1865 16.92V19.044H88.6645C87.8605 19.044 87.2485 19.248 86.8285 19.656C86.4205 20.064 86.2165 20.772 86.2165 21.78V27H84.1645V17.082H86.2165V18.522ZM95.2307 18.756H93.3947V27H91.3247V18.756H90.1547V17.082H91.3247V16.38C91.3247 15.24 91.6247 14.412 92.2247 13.896C92.8367 13.368 93.7907 13.104 95.0867 13.104V14.814C94.4627 14.814 94.0247 14.934 93.7727 15.174C93.5207 15.402 93.3947 15.804 93.3947 16.38V17.082H95.2307V18.756ZM98.0932 15.768C97.7212 15.768 97.4092 15.642 97.1572 15.39C96.9052 15.138 96.7792 14.826 96.7792 14.454C96.7792 14.082 96.9052 13.77 97.1572 13.518C97.4092 13.266 97.7212 13.14 98.0932 13.14C98.4532 13.14 98.7592 13.266 99.0112 13.518C99.2632 13.77 99.3892 14.082 99.3892 14.454C99.3892 14.826 99.2632 15.138 99.0112 15.39C98.7592 15.642 98.4532 15.768 98.0932 15.768ZM99.1012 17.082V27H97.0492V17.082H99.1012ZM103.847 13.68V27H101.795V13.68H103.847Z" fill="#5E5E5E"/>
<path fill-rule="evenodd" clip-rule="evenodd" d="M26.6673 15C26.6673 16.7682 25.9649 18.4638 24.7147 19.7141C23.4645 20.9643 21.7688 21.6667 20.0007 21.6667C18.2325 21.6667 16.5368 20.9643 15.2866 19.7141C14.0364 18.4638 13.334 16.7682 13.334 15C13.334 13.2319 14.0364 11.5362 15.2866 10.286C16.5368 9.03575 18.2325 8.33337 20.0007 8.33337C21.7688 8.33337 23.4645 9.03575 24.7147 10.286C25.9649 11.5362 26.6673 13.2319 26.6673 15ZM23.334 15C23.334 15.8841 22.9828 16.7319 22.3577 17.3571C21.7326 17.9822 20.8847 18.3334 20.0007 18.3334C19.1166 18.3334 18.2687 17.9822 17.6436 17.3571C17.0185 16.7319 16.6673 15.8841 16.6673 15C16.6673 14.116 17.0185 13.2681 17.6436 12.643C18.2687 12.0179 19.1166 11.6667 20.0007 11.6667C20.8847 11.6667 21.7326 12.0179 22.3577 12.643C22.9828 13.2681 23.334 14.116 23.334 15Z" fill="#909090"/>
<path fill-rule="evenodd" clip-rule="evenodd" d="M20.0003 1.66669C9.87533 1.66669 1.66699 9.87502 1.66699 20C1.66699 30.125 9.87533 38.3334 20.0003 38.3334C30.1253 38.3334 38.3337 30.125 38.3337 20C38.3337 9.87502 30.1253 1.66669 20.0003 1.66669ZM5.00033 20C5.00033 23.4834 6.18866 26.69 8.18033 29.2367C9.57904 27.3999 11.3835 25.9113 13.4527 24.8872C15.5219 23.8631 17.7999 23.3314 20.1087 23.3334C22.3875 23.3312 24.6369 23.8492 26.6852 24.848C28.7336 25.8468 30.5269 27.2999 31.9287 29.0967C33.3727 27.2027 34.3451 24.992 34.7652 22.6477C35.1852 20.3033 35.041 17.8926 34.3445 15.615C33.6479 13.3374 32.419 11.2584 30.7595 9.55008C29.0999 7.84173 27.0574 6.55312 24.801 5.79087C22.5445 5.02862 20.139 4.81464 17.7834 5.16664C15.4279 5.51864 13.19 6.42651 11.2549 7.81511C9.3199 9.20371 7.74334 11.0331 6.65571 13.152C5.56807 15.2709 5.00063 17.6183 5.00033 20ZM20.0003 35C16.5569 35.0052 13.2174 33.8206 10.547 31.6467C11.6219 30.1079 13.0526 28.8516 14.7173 27.9845C16.3821 27.1174 18.2316 26.6654 20.1087 26.6667C21.9623 26.6652 23.7895 27.106 25.4385 27.9524C27.0876 28.7988 28.5109 30.0265 29.5903 31.5334C26.8992 33.7779 23.5046 35.0049 20.0003 35Z" fill="#909090"/>
</svg>
