<svg width="145" height="145" viewBox="0 0 145 145" fill="none" xmlns="http://www.w3.org/2000/svg">
<g clip-path="url(#clip0_68_561)">
<path d="M-0.0214844 -0.217529H145.023V145.217H-0.0214844V-0.217529Z" fill="#E5243B"/>
<path d="M10.2712 17.9095C9.44958 18.3546 7.08729 19.0051 6.26562 19.4159V15.4788C7.36118 15.0337 10.4082 13.5616 11.4353 12.4318H15.5718V40.163H10.2712V17.9095ZM29.5623 12.4116H34.015V13.773H31.4876V16.822H33.4773V18.1714H31.4876V21.6916H34.0351V23.0148H29.5623V12.4116ZM34.9031 12.4116H37.4587C39.5794 12.4116 40.7837 13.0923 40.7837 15.2311C40.7837 16.5018 40.4695 17.392 39.4747 17.7968L40.9528 23.0208H39.0155L37.7467 18.1633H36.8304V23.0208H34.9051L34.9031 12.4116ZM37.4426 16.9529C38.5563 16.9529 38.9611 16.4696 38.9611 15.3298C38.9611 14.2564 38.661 13.7327 37.5514 13.7327H36.8324V16.955L37.4426 16.9529ZM41.986 12.4116H44.5376C46.6582 12.4116 47.8645 13.0923 47.8645 15.2311C47.8645 16.5018 47.5483 17.392 46.5535 17.7968L48.0337 23.0208H46.0963L44.8256 18.1633H43.9032V23.0208H41.9799L41.986 12.4116ZM44.5255 16.9529C45.6371 16.9529 46.044 16.4696 46.044 15.3298C46.044 14.2564 45.7419 13.7327 44.6342 13.7327H43.9032V16.955L44.5255 16.9529ZM50.6517 12.4116H52.72L54.8406 23.0148H53.0462L52.6274 20.5659H50.7826L50.3476 23.0148H48.5351L50.6517 12.4116ZM52.4179 19.3334L51.699 14.8827L50.978 19.3334H52.4179ZM55.6381 12.4116H58.1394C60.7172 12.4116 61.5026 13.4448 61.5026 15.7104V19.571C61.5026 21.9011 60.697 23.0148 58.2179 23.0148H55.6381V12.4116ZM58.1656 21.6654C59.4867 21.6654 59.539 20.9586 59.539 19.6375V15.5795C59.539 14.3087 59.4081 13.7851 58.1394 13.7851H57.5634V21.6654H58.1656ZM62.721 12.4116H64.6322V23.0148H62.721V12.4116ZM65.8365 19.6234V15.8413C65.8365 13.6683 66.5292 12.2928 68.8573 12.2928C71.0303 12.2928 71.7251 13.5011 71.7251 15.3439V16.234H69.8662V15.3177C69.8662 14.4275 69.8521 13.7066 68.8714 13.7066C67.8906 13.7066 67.7839 14.4658 67.7839 15.4345V20.0302C67.7839 21.1821 68.0195 21.7319 68.8714 21.7319C69.826 21.7319 69.8662 20.9848 69.8662 20.0423V19.0877H71.7251V19.9375C71.7251 21.8104 71.0967 23.1598 68.8573 23.1598C66.5292 23.1598 65.8365 21.6916 65.8365 19.6234ZM74.3975 12.4116H76.4658L78.5864 23.0148H76.792L76.3731 20.5659H74.5284L74.0954 23.0148H72.2829L74.3975 12.4116ZM76.1637 19.3334L75.4447 14.8827L74.7157 19.3334H76.1637ZM83.174 16.234V15.3177C83.174 14.4275 83.1619 13.7066 82.1792 13.7066C81.1964 13.7066 81.0937 14.4658 81.0937 15.4345V20.0302C81.0937 21.1821 81.3293 21.7319 82.1792 21.7319C83.1358 21.7319 83.174 20.9848 83.174 20.0423V19.0877H85.0328V19.9375C85.0328 21.7319 84.4569 23.053 82.4289 23.1598V23.8143C83.3976 23.8143 84.0521 24.2473 84.0521 25.0589C84.0521 25.9873 83.2264 26.38 82.2718 26.38C81.9525 26.3768 81.6352 26.3287 81.3293 26.237V25.4113C81.5581 25.4825 81.7966 25.5178 82.0362 25.516C82.4933 25.516 82.8417 25.3851 82.8417 25.0327C82.8417 24.5614 82.306 24.3902 81.6898 24.3258V23.1336C79.7524 22.9322 79.1503 21.5366 79.1503 19.6254V15.8413C79.1462 13.6683 79.8431 12.2848 82.1671 12.2848C84.3401 12.2848 85.0328 13.4931 85.0328 15.3358V16.2259L83.174 16.234ZM87.7093 12.4116H89.7776L91.8982 23.0148H90.1058L89.6869 20.5659H87.8402L87.4032 23.0148H85.5907L87.7093 12.4116ZM88.1121 10.3977C87.7697 10.3977 87.6529 10.5991 87.6529 10.9354H86.7366C86.7366 9.99295 86.9984 9.28607 87.8503 9.28607C88.4907 9.28607 88.9237 9.89024 89.4855 9.89024C89.7876 9.89024 89.9044 9.70697 89.9044 9.36663H90.7684C90.7684 10.1903 90.6254 11.016 89.7735 11.016C89.0969 11.0241 88.6518 10.4078 88.1161 10.4078L88.1121 10.3977ZM89.4775 19.3334L88.7565 14.8827L88.0376 19.3334H89.4775ZM92.4218 19.6898V15.7084C92.4218 13.5616 93.2072 12.2848 95.4849 12.2848C97.7626 12.2848 98.536 13.5555 98.536 15.7084V19.6898C98.536 21.8225 97.7506 23.1577 95.4849 23.1577C93.2193 23.1577 92.4218 21.8366 92.4218 19.6898ZM96.5724 20.1389V15.2653C96.5724 14.3752 96.4274 13.7066 95.4849 13.7066C94.5424 13.7066 94.3853 14.3752 94.3853 15.2653V20.1389C94.3853 21.017 94.5283 21.7239 95.4849 21.7239C96.4415 21.7239 96.5724 21.025 96.5724 20.1389ZM29.5623 29.7311H32.0635C34.6433 29.7311 35.4287 30.7642 35.4287 33.0298V36.8904C35.4287 39.2205 34.6232 40.3342 32.1421 40.3342H29.5623V29.7311ZM32.0897 38.995C33.4128 38.995 33.4652 38.2881 33.4652 36.967V32.8989C33.4652 31.6282 33.3343 31.1045 32.0555 31.1045H31.4795V38.9849L32.0897 38.995ZM38.0972 29.7311H40.1654L42.2921 40.3342H40.4977L40.0768 37.8853H38.2301L37.7991 40.3342H35.9866L38.0972 29.7311ZM39.8754 36.6528L39.1565 32.2021L38.4254 36.6528H39.8754ZM46.0037 29.7311H49.1192C51.0183 29.7311 51.8299 30.8307 51.8299 32.7519C51.8299 34.8323 50.7041 35.6318 48.9883 35.6318H47.931V40.3443H46.0057L46.0037 29.7311ZM48.6741 34.2603C49.7354 34.2603 50.0093 33.8575 50.0093 32.7277C50.0093 31.5979 49.8663 31.0925 48.6741 31.0925H47.931V34.2603H48.6741ZM52.4703 37.0093V33.0278C52.4703 30.881 53.2557 29.6042 55.5334 29.6042C57.8111 29.6042 58.5844 30.875 58.5844 33.0278V37.0073C58.5844 39.14 57.799 40.4752 55.5334 40.4752C53.2678 40.4752 52.4703 39.1561 52.4703 37.0093ZM56.6209 37.4584V32.5848C56.6209 31.6946 56.4759 31.026 55.5334 31.026C54.5909 31.026 54.4338 31.6946 54.4338 32.5848V37.4584C54.4338 38.3364 54.5788 39.0433 55.5334 39.0433C56.488 39.0433 56.6209 38.3445 56.6209 37.4584ZM59.7485 29.7311H62.3665C64.2253 29.7311 65.4699 30.3594 65.4699 32.4538C65.4699 33.7488 64.9322 34.4677 63.9374 34.6268C65.1819 34.8625 65.77 35.7526 65.77 37.2449C65.77 39.2729 64.7751 40.3342 62.8116 40.3342H59.7485V29.7311ZM62.3403 34.0629C63.4923 34.0629 63.7944 33.5534 63.7944 32.48C63.7944 31.3543 63.2446 31.0703 62.0665 31.0703H61.6737V34.0549L62.3403 34.0629ZM62.4189 38.9728C63.597 38.9728 63.9253 38.423 63.9253 37.2308C63.9253 35.9741 63.5064 35.3982 62.3544 35.3982H61.6737V38.9728H62.4189ZM66.779 29.7311H69.3306C71.4512 29.7311 72.6555 30.4118 72.6555 32.5505C72.6555 33.8213 72.3413 34.7114 71.3465 35.1162L72.8267 40.3402H70.8893L69.6185 35.4827H68.7022V40.3402H66.779V29.7311ZM69.3185 34.2724C70.4301 34.2724 70.8369 33.7891 70.8369 32.6492C70.8369 31.5758 70.5349 31.0522 69.4272 31.0522H68.7062V34.2744L69.3185 34.2724ZM73.8598 29.7311H78.3105V31.0925H75.7851V34.1415H77.7748V35.4908H75.7851V39.0111H78.3407V40.3342H73.8598V29.7311ZM78.8462 39.0896L81.6878 31.0663H78.9912V29.7311H83.6392V30.7259L80.6808 39.0111H83.6513V40.3342H78.8462V39.0896ZM86.0861 29.7311H88.1544L90.275 40.3342H88.4826L88.0637 37.8853H86.217L85.7921 40.3342H83.9796L86.0861 29.7311ZM87.8543 36.6528L87.1333 32.2021L86.4124 36.6528H87.8543ZM111.973 69.153C111.973 68.3533 112.21 67.5716 112.654 66.9067C113.098 66.2418 113.729 65.7235 114.468 65.4173C115.207 65.1111 116.02 65.0308 116.804 65.1865C117.588 65.3422 118.309 65.7269 118.875 66.2921C119.44 66.8572 119.826 67.5774 119.982 68.3616C120.139 69.1457 120.059 69.9587 119.754 70.6977C119.448 71.4367 118.931 72.0685 118.266 72.5134C117.602 72.9582 116.82 73.196 116.021 73.1968C115.489 73.1971 114.963 73.0927 114.472 72.8896C113.981 72.6866 113.535 72.3888 113.159 72.0132C112.783 71.6377 112.485 71.1919 112.281 70.7011C112.078 70.2103 111.973 69.6843 111.973 69.153ZM120.735 74.7576C122.074 74.8807 123.319 75.4999 124.225 76.4937C125.13 77.4875 125.632 78.784 125.631 80.1286V91.342C125.616 91.7481 125.445 92.1327 125.152 92.4148C124.86 92.6969 124.469 92.8546 124.063 92.8546C123.657 92.8546 123.266 92.6969 122.974 92.4148C122.681 92.1327 122.51 91.7481 122.495 91.342V81.7116C122.495 81.3511 122.39 80.8617 121.73 80.8617C121.275 80.8617 121.178 81.345 121.162 81.6532V110.516C121.144 111.103 120.899 111.659 120.478 112.067C120.057 112.476 119.494 112.704 118.907 112.704C118.321 112.704 117.757 112.476 117.337 112.067C116.916 111.659 116.67 111.103 116.653 110.516V93.8835C116.661 93.7966 116.651 93.7089 116.622 93.6265C116.593 93.5441 116.547 93.4689 116.486 93.4061C116.425 93.3433 116.352 93.2945 116.27 93.2628C116.189 93.2312 116.102 93.2176 116.015 93.2229C115.927 93.2185 115.839 93.2326 115.758 93.2644C115.676 93.2961 115.602 93.3448 115.54 93.4071C115.479 93.4695 115.431 93.5442 115.4 93.6263C115.37 93.7084 115.357 93.796 115.362 93.8835V110.516C115.362 111.113 115.125 111.686 114.703 112.108C114.28 112.531 113.708 112.768 113.11 112.768C112.513 112.768 111.941 112.531 111.518 112.108C111.096 111.686 110.859 111.113 110.859 110.516V81.6532C110.845 81.345 110.746 80.8617 110.293 80.8617C109.628 80.8617 109.528 81.3511 109.528 81.7116V91.342C109.513 91.7481 109.342 92.1327 109.049 92.4148C108.757 92.6969 108.366 92.8546 107.96 92.8546C107.554 92.8546 107.163 92.6969 106.871 92.4148C106.578 92.1327 106.407 91.7481 106.392 91.342V80.1286C106.392 78.7832 106.894 77.4861 107.801 76.4923C108.708 75.4985 109.954 74.8797 111.294 74.7576C111.392 74.7428 111.491 74.7347 111.59 74.7334H120.431C120.533 74.7348 120.636 74.7428 120.737 74.7576M87.9147 71.2776C87.9147 70.5208 87.6903 69.781 87.2699 69.1518C86.8494 68.5225 86.2518 68.0321 85.5526 67.7425C84.8534 67.4529 84.0841 67.3771 83.3418 67.5247C82.5996 67.6724 81.9178 68.0368 81.3827 68.5719C80.8475 69.1071 80.4831 69.7889 80.3355 70.5311C80.1878 71.2734 80.2636 72.0427 80.5532 72.7419C80.8428 73.4411 81.3333 74.0387 81.9625 74.4591C82.5917 74.8796 83.3315 75.104 84.0883 75.104C85.1031 75.104 86.0764 74.7009 86.794 73.9833C87.5116 73.2657 87.9147 72.2924 87.9147 71.2776ZM76.3691 79.9514L73.1851 90.3169C73.1851 90.3169 72.6192 92.218 74.2303 92.6913C75.8415 93.1646 76.3268 91.3118 76.3268 91.3118L78.8945 82.652C78.8945 82.652 79.0335 81.9855 79.5329 82.1305C80.0324 82.2755 79.8471 82.9864 79.8471 82.9864L75.3783 99.1961H79.5329V110.808C79.5329 111.338 79.7432 111.845 80.1175 112.219C80.4917 112.594 80.9994 112.804 81.5287 112.804C82.058 112.804 82.5656 112.594 82.9399 112.219C83.3142 111.845 83.5244 111.338 83.5244 110.808V99.2062H84.6583V110.818C84.6583 111.348 84.8685 111.855 85.2428 112.23C85.6171 112.604 86.1247 112.814 86.654 112.814C87.1833 112.814 87.691 112.604 88.0652 112.23C88.4395 111.855 88.6498 111.348 88.6498 110.818V99.2062H92.8044L88.3396 82.9964C88.3396 82.9964 88.1503 82.2835 88.6498 82.1405C89.1492 81.9975 89.2902 82.6621 89.2902 82.6621L91.8579 91.3218C91.8579 91.3218 92.3453 93.1766 93.9463 92.7014C95.5474 92.2261 94.9915 90.327 94.9915 90.327L91.8015 79.9514C91.8015 79.9514 90.6657 76.9548 88.1443 76.9548H80.0283C77.509 76.9548 76.3691 79.9514 76.3691 79.9514ZM64.9745 71.2776C64.9745 70.5208 64.7501 69.781 64.3297 69.1518C63.9092 68.5225 63.3116 68.0321 62.6124 67.7425C61.9132 67.4529 61.1439 67.3771 60.4016 67.5247C59.6594 67.6724 58.9776 68.0368 58.4425 68.5719C57.9073 69.1071 57.5429 69.7889 57.3953 70.5311C57.2476 71.2734 57.3234 72.0427 57.613 72.7419C57.9026 73.4411 58.3931 74.0387 59.0223 74.4591C59.6515 74.8796 60.3913 75.104 61.1481 75.104C62.1629 75.104 63.1362 74.7009 63.8538 73.9833C64.5714 73.2657 64.9745 72.2924 64.9745 71.2776ZM53.4289 79.9514L50.2469 90.3149C50.2469 90.3149 49.677 92.216 51.2901 92.6893C52.9033 93.1625 53.3785 91.3098 53.3785 91.3098L55.9462 82.65C55.9462 82.65 56.0872 81.9834 56.5867 82.1284C57.0861 82.2734 56.8988 82.9843 56.8988 82.9843L52.432 99.1941H56.5907V110.806C56.5907 111.336 56.801 111.843 57.1752 112.217C57.5495 112.592 58.0571 112.802 58.5865 112.802C59.1158 112.802 59.6234 112.592 59.9977 112.217C60.372 111.843 60.5822 111.336 60.5822 110.806V99.2062H61.716V110.818C61.716 111.348 61.9263 111.855 62.3006 112.23C62.6749 112.604 63.1825 112.814 63.7118 112.814C64.2411 112.814 64.7487 112.604 65.123 112.23C65.4973 111.855 65.7076 111.348 65.7076 110.818V99.2062H69.8622L65.3974 82.9964C65.3974 82.9964 65.2081 82.2835 65.7076 82.1405C66.207 81.9975 66.348 82.6621 66.348 82.6621L68.9117 91.3218C68.9117 91.3218 69.401 93.1766 71.0041 92.7014C72.6072 92.2261 72.0473 90.327 72.0473 90.327L68.8593 79.9514C68.8593 79.9514 67.7255 76.9548 65.2041 76.9548H57.0881C54.5768 76.9568 53.4289 79.9514 53.4289 79.9514ZM100.777 92.7134C101.408 92.7134 102.024 92.5265 102.548 92.1763C103.073 91.8261 103.481 91.3283 103.723 90.7459C103.964 90.1635 104.027 89.5226 103.904 88.9042C103.781 88.2859 103.478 87.7178 103.032 87.2719C102.587 86.826 102.019 86.5222 101.401 86.399C100.782 86.2757 100.141 86.3386 99.5588 86.5796C98.9763 86.8205 98.4782 87.2288 98.1277 87.7528C97.7772 88.2768 97.5898 88.893 97.5894 89.5234C97.5886 89.9424 97.6705 90.3574 97.8305 90.7447C97.9904 91.1319 98.2251 91.4838 98.5213 91.7802C98.8175 92.0765 99.1692 92.3115 99.5563 92.4717C99.9435 92.6318 100.358 92.714 100.777 92.7134ZM93.1347 102.618C92.9776 102.99 92.8508 103.782 93.5979 104.126C94.476 104.529 94.9653 103.681 94.9653 103.681L96.6973 98.153C96.6973 98.153 96.9994 97.7844 96.9994 98.1671V111.177C96.9994 111.61 97.1717 112.026 97.4783 112.333C97.785 112.64 98.2009 112.812 98.6346 112.812C99.0683 112.812 99.4843 112.64 99.791 112.333C100.098 112.026 100.27 111.61 100.27 111.177V106.043C100.27 106.043 100.175 105.316 100.759 105.316C101.343 105.316 101.255 106.043 101.255 106.043V111.177C101.255 111.612 101.427 112.029 101.735 112.336C102.042 112.643 102.459 112.816 102.894 112.816C103.329 112.816 103.746 112.643 104.053 112.336C104.361 112.029 104.533 111.612 104.533 111.177V98.1671C104.533 97.7844 104.735 98.0563 104.735 98.0563L106.092 101.84C106.092 101.84 106.682 103.532 106.863 103.607C107.01 103.668 107.167 103.699 107.326 103.7C107.485 103.7 107.642 103.669 107.789 103.608C107.936 103.548 108.069 103.459 108.182 103.346C108.294 103.234 108.383 103.101 108.444 102.954C108.525 102.765 108.555 102.559 108.532 102.355C108.51 102.151 108.435 101.957 108.315 101.79V101.778C108.277 101.655 106.285 96.7734 106.052 96.0867C105.333 93.9882 104.024 94.0064 102.765 93.9721C101.506 93.9379 100.751 93.9721 100.751 93.9721C100.751 93.9721 99.9457 93.9399 98.2822 93.9882C96.6187 94.0366 96.0971 94.8925 94.2544 99.607C93.9926 100.286 93.1085 102.483 93.0965 102.616L93.1347 102.618ZM30.7686 69.153C30.7686 68.3533 30.5315 67.5716 30.0874 66.9067C29.6432 66.2418 29.0119 65.7235 28.2732 65.4173C27.5345 65.1111 26.7216 65.0308 25.9373 65.1865C25.153 65.3422 24.4324 65.7269 23.8667 66.2921C23.301 66.8572 22.9155 67.5774 22.759 68.3616C22.6025 69.1457 22.682 69.9587 22.9875 70.6977C23.293 71.4367 23.8106 72.0685 24.4751 72.5134C25.1396 72.9582 25.9211 73.196 26.7207 73.1968C27.252 73.1971 27.7782 73.0927 28.2691 72.8896C28.7601 72.6866 29.2063 72.3888 29.5822 72.0132C29.9581 71.6377 30.2563 71.1919 30.4599 70.7011C30.6634 70.2103 30.7683 69.6843 30.7686 69.153ZM21.9981 74.7576C20.6591 74.8811 19.4145 75.5004 18.5084 76.494C17.6024 77.4877 17.1002 78.7839 17.1003 80.1286V91.342C17.1003 91.7581 17.2656 92.1571 17.5598 92.4513C17.8541 92.7455 18.2531 92.9108 18.6692 92.9108C19.0852 92.9108 19.4843 92.7455 19.7785 92.4513C20.0727 92.1571 20.238 91.7581 20.238 91.342V81.7116C20.238 81.3511 20.3427 80.8617 21.0033 80.8617C21.4604 80.8617 21.5551 81.345 21.5732 81.6532V110.516C21.5732 111.113 21.8104 111.686 22.2327 112.108C22.6549 112.531 23.2276 112.768 23.8247 112.768C24.4219 112.768 24.9945 112.531 25.4168 112.108C25.839 111.686 26.0762 111.113 26.0762 110.516V93.8835C26.0702 93.7966 26.0826 93.7094 26.1126 93.6276C26.1426 93.5458 26.1896 93.4712 26.2505 93.4088C26.3113 93.3465 26.3847 93.2977 26.4657 93.2656C26.5467 93.2336 26.6336 93.219 26.7207 93.2229C26.8082 93.2181 26.8956 93.232 26.9773 93.2637C27.059 93.2953 27.133 93.344 27.1943 93.4065C27.2557 93.4691 27.303 93.5439 27.3332 93.6262C27.3633 93.7084 27.3756 93.7962 27.3692 93.8835V110.516C27.3601 110.818 27.4117 111.118 27.5209 111.399C27.63 111.68 27.7945 111.937 28.0046 112.153C28.2146 112.37 28.466 112.542 28.7438 112.659C29.0216 112.777 29.3201 112.837 29.6217 112.837C29.9233 112.837 30.2218 112.777 30.4996 112.659C30.7774 112.542 31.0288 112.37 31.2388 112.153C31.4489 111.937 31.6134 111.68 31.7225 111.399C31.8317 111.118 31.8833 110.818 31.8742 110.516V81.6532C31.8863 81.345 31.989 80.8617 32.4422 80.8617C33.1067 80.8617 33.2054 81.3511 33.2054 81.7116V91.342C33.22 91.7481 33.3915 92.1327 33.684 92.4148C33.9764 92.6969 34.3669 92.8546 34.7732 92.8546C35.1796 92.8546 35.5701 92.6969 35.8625 92.4148C36.1549 92.1327 36.3265 91.7481 36.341 91.342V80.1286C36.3421 78.7834 35.8399 77.4863 34.9332 76.4924C34.0266 75.4986 32.781 74.8798 31.4412 74.7576C31.3432 74.7428 31.2443 74.7347 31.1452 74.7334H22.3042C22.2011 74.7346 22.0982 74.7427 21.9961 74.7576" fill="white"/>
<path d="M14.8804 112.87C14.8263 112.87 14.7724 112.865 14.7193 112.854C14.4947 112.812 14.2962 112.682 14.1674 112.493C14.0386 112.304 13.9901 112.072 14.0326 111.847L17.6253 92.8101C17.6438 92.6969 17.6848 92.5885 17.7457 92.4914C17.8067 92.3943 17.8865 92.3103 17.9804 92.2445C18.0743 92.1787 18.1805 92.1323 18.2926 92.1081C18.4047 92.0839 18.5205 92.0823 18.6332 92.1036C18.7459 92.1248 18.8532 92.1683 18.9488 92.2317C19.0445 92.295 19.1264 92.3768 19.19 92.4723C19.2535 92.5678 19.2973 92.675 19.3188 92.7876C19.3402 92.9003 19.339 93.0161 19.315 93.1283L15.7242 112.174C15.686 112.369 15.581 112.546 15.4271 112.673C15.2732 112.8 15.08 112.87 14.8804 112.87ZM38.2637 91.0439C38.1304 90.831 37.9317 90.6671 37.6974 90.5766C37.4631 90.4861 37.2058 90.474 36.964 90.542C36.7223 90.6101 36.509 90.7546 36.3563 90.954C36.2036 91.1534 36.1196 91.3969 36.1169 91.6481C36.1338 91.8227 36.1723 91.9945 36.2317 92.1596L39.4539 97.9757C39.5698 98.2161 39.6382 98.4766 39.6553 98.743V111.229C39.6553 111.645 39.8206 112.044 40.1148 112.338C40.409 112.633 40.808 112.798 41.2241 112.798C41.6402 112.798 42.0392 112.633 42.3334 112.338C42.6276 112.044 42.7929 111.645 42.7929 111.229V106.311C42.7929 106.311 42.7043 105.614 43.2682 105.614C43.8321 105.614 43.7415 106.311 43.7415 106.311V111.239C43.7415 111.656 43.9072 112.056 44.2021 112.351C44.4971 112.646 44.8972 112.812 45.3143 112.812C45.7314 112.812 46.1315 112.646 46.4265 112.351C46.7214 112.056 46.8871 111.656 46.8871 111.239V98.7531C46.9042 98.4867 46.9726 98.2262 47.0885 97.9858L50.059 92.6147C50.059 92.6147 50.4215 91.8434 50.4215 91.6581C50.4205 91.3507 50.2976 91.0561 50.0798 90.8391C49.8619 90.622 49.567 90.5001 49.2595 90.5002C49.0626 90.4992 48.8688 90.5489 48.6967 90.6445C48.5246 90.7401 48.38 90.8783 48.2767 91.0459H48.2626C48.17 91.1265 46.6817 93.7767 46.1924 94.2681C45.6708 94.7897 45.2076 94.7333 45.2076 94.7333H41.3328C41.3328 94.7333 40.8636 94.7897 40.346 94.2681C39.8285 93.7465 38.3684 91.1265 38.2737 91.0459L38.2637 91.0439Z" fill="white"/>
<path d="M43.2619 92.7134C43.8924 92.7138 44.5089 92.5273 45.0334 92.1773C45.5579 91.8273 45.9668 91.3297 46.2085 90.7473C46.4501 90.1649 46.5137 89.524 46.3911 88.9055C46.2684 88.287 45.9652 87.7188 45.5196 87.2726C45.074 86.8265 44.5062 86.5225 43.8879 86.3991C43.2695 86.2757 42.6285 86.3384 42.0458 86.5794C41.4631 86.8203 40.965 87.2286 40.6143 87.7526C40.2637 88.2767 40.0763 88.8929 40.0759 89.5234C40.0754 89.9423 40.1575 90.3572 40.3175 90.7444C40.4775 91.1315 40.7123 91.4833 41.0084 91.7796C41.3045 92.0759 41.6561 92.3109 42.0432 92.4711C42.4302 92.6314 42.845 92.7137 43.2639 92.7134M43.2659 97.1883L46.8708 99.8164L48.5826 106.122H37.9473L39.6631 99.8164L43.2659 97.1883Z" fill="white"/>
</g>
<defs>
<clipPath id="clip0_68_561">
<rect width="145" height="145" rx="15" fill="white"/>
</clipPath>
</defs>
</svg>
