<svg width="144" height="145" viewBox="0 0 144 145" fill="none" xmlns="http://www.w3.org/2000/svg">
<g clip-path="url(#clip0_68_605)">
<path d="M-0.216797 -0.217499H144.215V145.217H-0.216797V-0.217499Z" fill="#DD1367"/>
<path d="M10.0249 17.9095C9.20088 18.3546 6.86288 19.0051 6.04688 19.4159V15.4787C7.13488 15.0337 10.1609 13.5615 11.1809 12.4317H15.2949V40.163H10.0249V17.9095ZM16.3489 32.625V20.2033C16.3489 15.3418 18.6269 12.0551 23.7269 12.0551C28.7589 12.0551 31.0709 15.3418 31.0709 20.2033V32.625C31.0709 37.3153 28.5549 40.6362 23.7269 40.6362C18.8009 40.6423 16.3489 37.3556 16.3489 32.625ZM25.7329 32.5223V20.306C25.7329 18.8339 25.5969 16.7112 23.7329 16.7112C21.7949 16.7112 21.6929 18.8339 21.6929 20.306V32.5283C21.6929 33.8978 21.9309 35.9862 23.7329 35.9862C25.4949 35.9862 25.7329 33.8978 25.7329 32.5283V32.5223ZM45.9469 12.4116H48.4829C50.5889 12.4116 51.7849 13.0923 51.7849 15.231C51.7849 16.5018 51.4729 17.3919 50.4849 17.7967L51.9529 23.0208H50.0289L48.7689 18.1633H47.8589V23.0208H45.9469V12.4116ZM48.4689 16.9529C49.5749 16.9529 49.9769 16.4696 49.9769 15.3297C49.9769 14.2563 49.6789 13.7327 48.5769 13.7327H47.8629V16.9549L48.4689 16.9529ZM52.9029 12.4116H57.3229V13.773H54.8129V16.822H56.7889V18.1713H54.8129V21.6916H57.3489V23.0147H52.9029V12.4116ZM58.1269 12.4116H60.6109C63.1729 12.4116 63.9529 13.4447 63.9529 15.7103V19.571C63.9529 21.901 63.1529 23.0147 60.6889 23.0147H58.1269V12.4116ZM60.6369 21.6654C61.9489 21.6654 62.0029 20.9585 62.0029 19.6374V15.5794C62.0029 14.3087 61.8729 13.7851 60.6029 13.7851H60.0309V21.6654H60.6369ZM64.9529 19.5851V12.4116H66.8249V19.8066C66.8249 20.8135 66.9409 21.7178 67.9169 21.7178C68.8929 21.7178 69.0229 20.8156 69.0229 19.8066V12.4116H70.8809V19.5851C70.8809 21.8003 70.2809 23.1577 67.9169 23.1577C65.5529 23.1577 64.9529 21.8104 64.9529 19.5851ZM75.8849 16.234V15.3176C75.8849 14.4275 75.8729 13.7065 74.8969 13.7065C73.9209 13.7065 73.8189 14.4658 73.8189 15.4344V20.0301C73.8189 21.1821 74.0529 21.7319 74.8969 21.7319C75.8469 21.7319 75.8849 20.9847 75.8849 20.0422V19.0876H77.7329V19.9375C77.7329 21.7319 77.1589 23.053 75.1449 23.1597V23.8142C76.1069 23.8142 76.7569 24.2472 76.7569 25.0588C76.7569 25.9872 75.9369 26.3799 74.9889 26.3799C74.6718 26.3768 74.3567 26.3287 74.0529 26.2369V25.4112C74.2801 25.4825 74.5169 25.5178 74.7549 25.516C75.2089 25.516 75.5549 25.3851 75.5549 25.0326C75.5549 24.5614 75.0229 24.3902 74.4109 24.3258V23.1335C72.4869 22.9322 71.8889 21.5365 71.8889 19.6253V15.8412C71.8889 13.6683 72.5789 12.2928 74.8889 12.2928C77.0469 12.2928 77.7369 13.5011 77.7369 15.3438V16.234H75.8849ZM80.3049 12.4116H82.3589L84.4669 23.0147H82.6849L82.2689 20.5658H80.4349L80.0009 23.0147H78.2009L80.3049 12.4116ZM80.7049 10.3977C80.3669 10.3977 80.2489 10.5991 80.2489 10.9354H79.3389C79.3389 9.99292 79.5989 9.28604 80.4449 9.28604C81.0809 9.28604 81.5109 9.89021 82.0689 9.89021C82.3689 9.89021 82.4849 9.70694 82.4849 9.3666H83.3429C83.3429 10.1903 83.2009 11.016 82.3549 11.016C81.6829 11.024 81.2409 10.4078 80.7089 10.4078L80.7049 10.3977ZM82.0609 19.3333L81.3449 14.8826L80.6309 19.3333H82.0609ZM84.9069 19.6898V15.7083C84.9069 13.5615 85.6869 12.2847 87.9489 12.2847C90.2109 12.2847 90.9789 13.5555 90.9789 15.7083V19.6898C90.9789 21.8225 90.1989 23.1577 87.9489 23.1577C85.6989 23.1577 84.9069 21.8366 84.9069 19.6898ZM89.0289 20.1389V15.2653C89.0289 14.3751 88.8849 13.7065 87.9489 13.7065C87.0129 13.7065 86.8569 14.3751 86.8569 15.2653V20.1389C86.8569 21.0169 87.0009 21.7238 87.9489 21.7238C88.8969 21.7238 89.0289 21.025 89.0289 20.1389ZM94.8789 12.4116H97.3609C99.9229 12.4116 100.703 13.4447 100.703 15.7103V19.571C100.703 21.901 99.9029 23.0147 97.4389 23.0147H94.8789V12.4116ZM97.3869 21.6654C98.7009 21.6654 98.7529 20.9585 98.7529 19.6374V15.5794C98.7529 14.3087 98.6229 13.7851 97.3529 13.7851H96.7809V21.6654H97.3869ZM103.277 12.4116H105.331L107.437 23.0147H105.655L105.239 20.5658H103.401L102.971 23.0147H101.171L103.277 12.4116ZM105.031 19.3333L104.317 14.8826L103.601 19.3333H105.031ZM107.839 19.9254L109.491 19.5972C109.543 20.8538 109.841 21.6654 110.691 21.6654C111.301 21.6654 111.561 21.2465 111.561 20.6706C111.561 19.7542 111.093 19.2447 110.405 18.6426L109.079 17.4765C108.325 16.822 107.857 16.089 107.857 14.9108C107.857 13.2353 108.897 12.2928 110.573 12.2928C112.549 12.2928 113.109 13.628 113.213 15.1726L111.561 15.4606C111.523 14.4658 111.379 13.7206 110.535 13.7206C109.963 13.7206 109.651 14.1516 109.651 14.7155C109.651 15.4344 109.949 15.8272 110.509 16.3125L111.821 17.4765C112.679 18.2237 113.395 19.1521 113.395 20.5537C113.395 22.0843 112.329 23.1577 110.755 23.1577C108.827 23.1597 107.917 22.0319 107.839 19.9254ZM45.9469 29.731H48.4309C50.9909 29.731 51.7709 30.7642 51.7709 33.0298V36.8904C51.7709 39.2205 50.9709 40.3342 48.5089 40.3342H45.9469V29.731ZM48.4569 38.9949C49.7689 38.9949 49.8209 38.2881 49.8209 36.9669V32.8989C49.8209 31.6281 49.6909 31.1045 48.4309 31.1045H47.8589V38.9849L48.4569 38.9949ZM52.8509 29.731H57.2709V31.0924H54.7609V34.1415H56.7369V35.4908H54.7609V39.011H57.2969V40.3342H52.8509V29.731ZM57.8169 37.2449L59.4669 36.9166C59.5189 38.1733 59.8169 38.9849 60.6669 38.9849C61.2789 38.9849 61.5389 38.566 61.5389 37.99C61.5389 37.0737 61.0709 36.5642 60.3809 35.962L59.0549 34.796C58.3009 34.1415 57.8329 33.4084 57.8329 32.2303C57.8329 30.5547 58.8729 29.6122 60.5509 29.6122C62.5269 29.6122 63.0849 30.9474 63.1889 32.4921L61.5389 32.7801C61.4989 31.7852 61.3569 31.0401 60.5109 31.0401C59.9389 31.0401 59.6269 31.471 59.6269 32.0349C59.6269 32.7539 59.9269 33.1466 60.4849 33.6319L61.7989 34.796C62.6569 35.5431 63.3709 36.4715 63.3709 37.8732C63.3709 39.4037 62.3049 40.4772 60.7329 40.4772C58.8009 40.4792 57.8929 39.3514 57.8169 37.2449ZM64.2109 29.731H66.1089V40.3342H64.2109V29.731ZM67.2269 36.8381V33.2775C67.2269 30.9998 67.9169 29.6122 70.2269 29.6122C72.3849 29.6122 73.1389 30.738 73.1389 32.7015V33.2513H71.3049V32.6472C71.3049 31.6261 71.2009 31.024 70.2529 31.024C69.2389 31.024 69.1609 31.8497 69.1609 32.8183V37.2489C69.1609 38.3485 69.3609 39.0433 70.3049 39.0433C71.2489 39.0433 71.4629 38.3102 71.4629 37.1583V36.1634H70.3309V34.945H73.2009V40.3261H71.9529L71.8229 39.291C71.5369 39.9717 71.0229 40.4691 70.0409 40.4691C67.9549 40.4792 67.2269 39.0694 67.2269 36.8381ZM74.2469 36.9045V29.731H76.1189V37.126C76.1189 38.133 76.2369 39.0372 77.2109 39.0372C78.1849 39.0372 78.3169 38.135 78.3169 37.126V29.731H80.1749V36.9045C80.1749 39.1299 79.5649 40.4772 77.2109 40.4772C74.8569 40.4772 74.2469 39.1299 74.2469 36.9045ZM82.8669 29.731H84.9209L87.0269 40.3342H85.2449L84.8289 37.8853H83.0009L82.5709 40.3342H80.7709L82.8669 29.731ZM84.6209 36.6528L83.9069 32.2021L83.2009 36.6528H84.6209ZM87.7409 29.731H89.6529V39.011H92.2129V40.3342H87.7409V29.731ZM92.8769 29.731H95.3589C97.9209 29.731 98.7009 30.7642 98.7009 33.0298V36.8904C98.7009 39.2205 97.9009 40.3342 95.4369 40.3342H92.8769V29.731ZM95.3849 38.9949C96.6989 38.9949 96.7509 38.2881 96.7509 36.9669V32.8989C96.7509 31.6281 96.6209 31.1045 95.3509 31.1045H94.7789V38.9849L95.3849 38.9949ZM101.275 29.731H103.329L105.435 40.3342H103.653L103.237 37.8853H101.401L100.971 40.3342H99.1709L101.275 29.731ZM103.029 36.6528L102.315 32.2021L101.601 36.6528H103.029ZM106.149 29.731H108.633C111.193 29.731 111.973 30.7642 111.973 33.0298V36.8904C111.973 39.2205 111.173 40.3342 108.711 40.3342H106.149V29.731ZM108.659 38.9949C109.971 38.9949 110.023 38.2881 110.023 36.9669V32.8989C110.023 31.6281 109.893 31.1045 108.623 31.1045H108.061V38.9849L108.659 38.9949ZM113.051 29.731H117.473V31.0924H114.963V34.1415H116.939V35.4908H114.963V39.011H117.499V40.3342H113.051V29.731ZM118.017 37.2449L119.669 36.9166C119.721 38.1733 120.019 38.9849 120.869 38.9849C121.469 38.9849 121.739 38.566 121.739 37.99C121.739 37.0737 121.271 36.5642 120.583 35.962L119.257 34.796C118.503 34.1415 118.035 33.4084 118.035 32.2303C118.035 30.5547 119.075 29.6122 120.751 29.6122C122.729 29.6122 123.287 30.9474 123.391 32.4921L121.739 32.7801C121.701 31.7852 121.557 31.0401 120.713 31.0401C120.141 31.0401 119.829 31.471 119.829 32.0349C119.829 32.7539 120.127 33.1466 120.687 33.6319L121.999 34.796C122.859 35.5431 123.573 36.4715 123.573 37.8732C123.573 39.4037 122.507 40.4772 120.933 40.4772C119.001 40.4792 118.095 39.3514 118.017 37.2449ZM85.4009 95.2167H58.8009C58.72 95.2213 58.6443 95.2581 58.5903 95.3189C58.5364 95.3796 58.5085 95.4595 58.5129 95.5409V103.596C58.5096 103.677 58.5379 103.756 58.5918 103.816C58.6457 103.876 58.7208 103.912 58.8009 103.917H85.4009C85.4415 103.915 85.4814 103.904 85.5181 103.887C85.5548 103.869 85.5877 103.844 85.6149 103.814C85.642 103.783 85.6629 103.748 85.6763 103.709C85.6897 103.67 85.6953 103.629 85.6929 103.588V95.5328C85.6945 95.4523 85.665 95.3742 85.6105 95.3152C85.556 95.2562 85.4808 95.2208 85.4009 95.2167ZM85.4009 78.0885H58.8009C58.72 78.0932 58.6443 78.13 58.5903 78.1907C58.5364 78.2515 58.5085 78.3314 58.5129 78.4128V86.4683C58.5099 86.5091 58.515 86.5501 58.5279 86.5889C58.5408 86.6277 58.5613 86.6635 58.5881 86.6943C58.6149 86.725 58.6475 86.7501 58.6841 86.768C58.7206 86.7859 58.7603 86.7963 58.8009 86.7986H85.4009C85.4415 86.7966 85.4814 86.7864 85.5181 86.7688C85.5548 86.7511 85.5877 86.7263 85.6149 86.6958C85.642 86.6653 85.6629 86.6296 85.6763 86.5909C85.6897 86.5522 85.6953 86.5113 85.6929 86.4703V78.4148C85.6967 78.3328 85.6681 78.2527 85.6134 78.192C85.5586 78.1312 85.4822 78.0947 85.4009 78.0906M85.0289 65.9206L72.2609 53.064C72.2404 53.0433 72.2161 53.0268 72.1894 53.0156C72.1626 53.0044 72.1339 52.9986 72.1049 52.9986C72.0759 52.9986 72.0472 53.0044 72.0204 53.0156C71.9936 53.0268 71.9693 53.0433 71.9489 53.064L59.1809 65.9206C59.1499 65.9516 59.1288 65.9912 59.1203 66.0342C59.1117 66.0773 59.1161 66.122 59.1328 66.1626C59.1495 66.2032 59.1779 66.2379 59.2142 66.2622C59.2505 66.2865 59.2932 66.2994 59.3369 66.2992H84.8729C84.9165 66.2994 84.9592 66.2865 84.9956 66.2622C85.0319 66.2379 85.0602 66.2032 85.077 66.1626C85.0937 66.122 85.098 66.0773 85.0895 66.0342C85.0809 65.9912 85.0598 65.9516 85.0289 65.9206ZM97.0149 104.017L109.783 91.1607C109.803 91.1401 109.82 91.1156 109.831 91.0887C109.842 91.0617 109.848 91.0328 109.848 91.0036C109.848 90.9744 109.842 90.9455 109.831 90.9185C109.82 90.8916 109.803 90.8671 109.783 90.8465L97.0149 77.9899C96.9838 77.959 96.9445 77.938 96.9017 77.9296C96.8588 77.9211 96.8145 77.9255 96.7742 77.9423C96.7339 77.959 96.6993 77.9874 96.6749 78.0238C96.6505 78.0602 96.6373 78.103 96.6369 78.1469V103.86C96.6373 103.904 96.6505 103.947 96.6749 103.983C96.6993 104.02 96.7339 104.048 96.7742 104.065C96.8145 104.082 96.8588 104.086 96.9017 104.078C96.9445 104.069 96.9838 104.048 97.0149 104.017ZM59.1809 116.087L71.9489 128.941C71.9692 128.962 71.9934 128.979 72.0202 128.99C72.047 129.002 72.0758 129.007 72.1049 129.007C72.1339 129.007 72.1627 129.002 72.1895 128.99C72.2163 128.979 72.2406 128.962 72.2609 128.941L85.0289 116.087C85.0595 116.055 85.0804 116.016 85.0888 115.973C85.0972 115.929 85.0928 115.885 85.0761 115.844C85.0595 115.804 85.0313 115.769 84.9952 115.744C84.959 115.72 84.9165 115.706 84.8729 115.706H59.3369C59.2933 115.706 59.2507 115.72 59.2146 115.744C59.1784 115.769 59.1502 115.804 59.1336 115.844C59.117 115.885 59.1126 115.929 59.121 115.973C59.1294 116.016 59.1502 116.055 59.1809 116.087ZM47.2009 77.9899L34.4269 90.8465C34.4063 90.8671 34.39 90.8916 34.3789 90.9185C34.3677 90.9455 34.362 90.9744 34.362 91.0036C34.362 91.0328 34.3677 91.0617 34.3789 91.0887C34.39 91.1156 34.4063 91.1401 34.4269 91.1607L47.2009 104.017C47.2317 104.049 47.2709 104.07 47.3137 104.078C47.3565 104.087 47.4009 104.083 47.4412 104.066C47.4815 104.049 47.5159 104.02 47.5401 103.984C47.5642 103.947 47.5771 103.904 47.5769 103.86V78.1389C47.5755 78.0956 47.5616 78.0537 47.5368 78.0183C47.5121 77.983 47.4776 77.9557 47.4376 77.9398C47.3976 77.924 47.3538 77.9203 47.3118 77.9292C47.2697 77.938 47.2312 77.9592 47.2009 77.9899Z" fill="white"/>
</g>
<defs>
<clipPath id="clip0_68_605">
<rect width="144" height="145" rx="15" fill="white"/>
</clipPath>
</defs>
</svg>
