<svg width="145" height="145" viewBox="0 0 145 145" fill="none" xmlns="http://www.w3.org/2000/svg">
<g clip-path="url(#clip0_68_609)">
<path d="M-0.216797 -0.217499H145.218V145.217H-0.216797V-0.217499Z" fill="#FD9D24"/>
<path d="M10.0935 17.9095C9.26379 18.3546 6.90956 19.0051 6.08789 19.4159V15.4787C7.18345 15.0337 10.2305 13.5615 11.2575 12.4317H15.4001V40.163H10.0935V17.9095Z" fill="white"/>
<path d="M17.3865 17.9095C16.5648 18.3546 14.2025 19.0051 13.3809 19.4159V15.4788C14.4764 15.0337 17.5214 13.5615 18.5505 12.4317H22.6931V40.163H17.3865V17.9095ZM38.8384 19.6233V15.8413C38.8384 13.6683 39.5332 12.2928 41.8593 12.2928C44.0322 12.2928 44.727 13.5011 44.727 15.3438V16.234H42.8682V15.3176C42.8682 14.4275 42.8541 13.7065 41.8734 13.7065C40.8926 13.7065 40.7859 14.4658 40.7859 15.4345V20.0301C40.7859 21.1821 41.0215 21.7319 41.8734 21.7319C42.8279 21.7319 42.8682 20.9847 42.8682 20.0422V19.0876H44.727V19.9375C44.727 21.8104 44.0987 23.1597 41.8593 23.1597C39.5332 23.1597 38.8384 21.6916 38.8384 19.6233ZM45.593 12.4116H47.5042V23.0147H45.593V12.4116ZM48.6038 12.4116H51.105C53.6828 12.4116 54.4682 13.4447 54.4682 15.7104V19.571C54.4682 21.9011 53.6627 23.0147 51.1836 23.0147H48.6038V12.4116ZM51.1312 21.6654C52.4523 21.6654 52.5047 20.9586 52.5047 19.6374V15.5795C52.5047 14.3087 52.3738 13.7851 51.105 13.7851H50.529V21.6654H51.1312ZM56.8647 12.4116H58.933L61.0536 23.0147H59.2613L58.8404 20.5658H56.9936L56.5606 23.0147H54.7481L56.8647 12.4116ZM58.6309 19.3333L57.912 14.8826L57.195 19.3333H58.6309ZM61.5772 12.4116H64.0765C66.6563 12.4116 67.4417 13.4447 67.4417 15.7104V19.571C67.4417 21.9011 66.6361 23.0147 64.155 23.0147H61.5772V12.4116ZM64.1027 21.6654C65.4258 21.6654 65.4781 20.9586 65.4781 19.6374V15.5795C65.4781 14.3087 65.3472 13.7851 64.0684 13.7851H63.4925V21.6654H64.1027ZM68.3318 12.4116H72.7825V13.773H70.2551V16.822H72.2448V18.1713H70.2551V21.6916H72.8087V23.0147H68.3318V12.4116ZM73.135 19.9254L74.7984 19.5972C74.8508 20.8538 75.1509 21.6654 76.0068 21.6654C76.621 21.6654 76.8828 21.2465 76.8828 20.6706C76.8828 19.7542 76.4116 19.2447 75.7188 18.6426L74.3836 17.4765C73.6243 16.822 73.1531 16.089 73.1531 14.9108C73.1531 13.2353 74.2003 12.2928 75.8879 12.2928C77.8777 12.2928 78.4416 13.628 78.5463 15.1726L76.8828 15.4606C76.8445 14.4658 76.6995 13.7206 75.8497 13.7206C75.2737 13.7206 74.9595 14.1516 74.9595 14.7155C74.9595 15.4345 75.2596 15.8272 75.8235 16.3125L77.1325 17.4765C77.9965 18.2237 78.7175 19.1521 78.7175 20.5538C78.7175 22.0843 77.6441 23.1577 76.0591 23.1577C74.1298 23.1597 73.2135 22.032 73.135 19.9254ZM81.9659 12.4116H86.4165V13.773H83.8952V16.822H85.8849V18.1713H83.8952V21.6916H86.4488V23.0147H81.9659V12.4116ZM38.8384 36.9428V33.1607C38.8384 30.9877 39.5332 29.6122 41.8593 29.6122C44.0322 29.6122 44.727 30.8206 44.727 32.6633V33.5534H42.8682V32.6371C42.8682 31.747 42.8541 31.026 41.8734 31.026C40.8926 31.026 40.7859 31.7852 40.7859 32.7539V37.3496C40.7859 38.5015 41.0215 39.0513 41.8734 39.0513C42.8279 39.0513 42.8682 38.3042 42.8682 37.3617V36.4071H44.727V37.257C44.727 39.1299 44.0987 40.4792 41.8593 40.4792C39.5332 40.4792 38.8384 39.0111 38.8384 36.9428ZM45.3715 37.0092V33.0278C45.3715 30.881 46.1569 29.6042 48.4346 29.6042C50.7123 29.6042 51.4856 30.8749 51.4856 33.0278V37.0072C51.4856 39.1399 50.7002 40.4752 48.4346 40.4752C46.169 40.4752 45.3715 39.1561 45.3715 37.0092ZM49.5221 37.4583V32.5847C49.5221 31.6946 49.3771 31.026 48.4346 31.026C47.4921 31.026 47.327 31.6946 47.327 32.5847V37.4583C47.327 38.3364 47.472 39.0433 48.4266 39.0433C49.3811 39.0433 49.5221 38.3445 49.5221 37.4583ZM52.5309 29.7311H54.5447L56.0491 37.0737L57.5978 29.7311H59.5472L59.7486 40.3342H58.3087L58.1516 32.9633L56.6452 40.3342H55.4812L53.9486 32.9372L53.8057 40.3342H52.3516L52.5309 29.7311ZM60.6992 36.9045V29.7311H62.5842V37.1261C62.5842 38.133 62.703 39.0372 63.6838 39.0372C64.6645 39.0372 64.7975 38.135 64.7975 37.1261V29.7311H66.6704V36.9045C66.6704 39.1299 66.0541 40.4772 63.6838 40.4772C61.3134 40.4772 60.6992 39.1299 60.6992 36.9045ZM67.6511 29.7311H68.9984L71.5782 35.7727V29.7311H73.1752V40.3342H71.8964L69.3045 33.9985V40.3342H67.6552L67.6511 29.7311ZM74.301 29.7311H76.2122V40.3342H74.301V29.7311ZM77.3118 29.7311H79.811C82.3908 29.7311 83.1762 30.7642 83.1762 33.0298V36.8904C83.1762 39.2205 82.3707 40.3342 79.8895 40.3342H77.3118V29.7311ZM79.8372 38.9949C81.1603 38.9949 81.2127 38.2881 81.2127 36.967V32.8989C81.2127 31.6281 81.0818 31.1045 79.8029 31.1045H79.227V38.9849L79.8372 38.9949ZM85.5707 29.7311H87.639L89.7596 40.3342H87.9672L87.5484 37.8853H85.7016L85.2706 40.3342H83.4581L85.5707 29.7311ZM87.3389 36.6528L86.6179 32.2021L85.899 36.6528H87.3389ZM90.2832 29.7311H92.7845C95.3622 29.7311 96.1477 30.7642 96.1477 33.0298V36.8904C96.1477 39.2205 95.3421 40.3342 92.863 40.3342H90.2832V29.7311ZM92.8106 38.9949C94.1318 38.9949 94.1841 38.2881 94.1841 36.967V32.8989C94.1841 31.6281 94.0532 31.1045 92.7845 31.1045H92.2085V38.9849L92.8106 38.9949ZM97.0378 29.7311H101.488V31.0924H98.9631V34.1415H100.953V35.4908H98.9631V39.0111H101.515V40.3342H97.0378V29.7311ZM101.843 37.2449L103.504 36.9166C103.557 38.1733 103.859 38.9849 104.713 38.9849C105.329 38.9849 105.591 38.566 105.591 37.99C105.591 37.0737 105.12 36.5642 104.425 35.962L103.09 34.796C102.33 34.1415 101.859 33.4084 101.859 32.2303C101.859 30.5547 102.906 29.6122 104.596 29.6122C106.586 29.6122 107.148 30.9474 107.252 32.4921L105.591 32.7801C105.551 31.7852 105.408 31.0401 104.556 31.0401C103.98 31.0401 103.666 31.4711 103.666 32.0349C103.666 32.7539 103.968 33.1466 104.529 33.632L105.853 34.796C106.717 35.5431 107.436 36.4715 107.436 37.8732C107.436 39.4038 106.362 40.4772 104.779 40.4772C102.838 40.4792 101.921 39.3514 101.843 37.2449ZM38.7478 54.5643L40.4113 54.2361C40.4636 55.4927 40.7637 56.3043 41.6196 56.3043C42.2359 56.3043 42.4977 55.8854 42.4977 55.3095C42.4977 54.3931 42.0264 53.8836 41.3336 53.2815L39.9984 52.1154C39.2372 51.4609 38.7659 50.7279 38.7659 49.5497C38.7659 47.8742 39.8152 46.9317 41.5028 46.9317C43.4925 46.9317 44.0564 48.2669 44.1611 49.8115L42.4936 50.0995C42.4554 49.1047 42.3104 48.3595 41.4605 48.3595C40.8845 48.3595 40.5684 48.7905 40.5684 49.3544C40.5684 50.0733 40.8704 50.4661 41.4343 50.9514L42.7554 52.1154C43.6194 52.8626 44.3404 53.791 44.3404 55.1926C44.3404 56.7232 43.267 57.7966 41.682 57.7966C39.7427 57.7986 38.8263 56.6708 38.7478 54.5643ZM44.86 54.224V47.0505H46.745V54.4455C46.745 55.4524 46.8638 56.3567 47.8445 56.3567C48.8253 56.3567 48.9582 55.4545 48.9582 54.4455V47.0505H50.8311V54.224C50.8311 56.4493 50.2149 57.7966 47.8445 57.7966C45.4742 57.7966 44.86 56.4493 44.86 54.224ZM51.5561 54.5643L53.2176 54.2361C53.27 55.4927 53.572 56.3043 54.4259 56.3043C55.0422 56.3043 55.304 55.8854 55.304 55.3095C55.304 54.3931 54.8327 53.8836 54.1379 53.2815L52.8027 52.1154C52.0435 51.4609 51.5722 50.7279 51.5722 49.5497C51.5722 47.8742 52.6195 46.9317 54.3091 46.9317C56.2988 46.9317 56.8627 48.2669 56.9654 49.8115L55.304 50.0995C55.2637 49.1047 55.1207 48.3595 54.2688 48.3595C53.6929 48.3595 53.3787 48.7905 53.3787 49.3544C53.3787 50.0733 53.6808 50.4661 54.2427 50.9514L55.5658 52.1154C56.4297 52.8626 57.1487 53.791 57.1487 55.1926C57.1487 56.7232 56.0753 57.7966 54.4924 57.7966C52.545 57.7986 51.6286 56.6708 51.5561 54.5643ZM58.8061 48.4763H57.1165V47.0505H62.3929V48.4763H60.7395V57.6536H58.8061V48.4763ZM62.8198 47.0505H67.2645V48.4119H64.7451V51.4609H66.7348V52.8102H64.7451V56.3305H67.2967V57.6536H62.8198V47.0505ZM67.8868 47.0505H69.2341L71.8138 53.0922V47.0505H73.4109V57.6536H72.128L69.5361 51.3179V57.6536H67.8868V47.0505ZM75.5436 48.4763H73.8559V47.0505H79.1303V48.4763H77.4809V57.6536H75.5436V48.4763ZM80.8844 47.0505H82.9527L85.0733 57.6536H83.2809L82.862 55.2047H81.0153L80.5843 57.6536H78.7718L80.8844 47.0505ZM82.6526 53.9722L81.9316 49.5215L81.2127 53.9722H82.6526ZM82.1813 43.7014H83.9938L82.4351 46.3195H81.402L82.1813 43.7014ZM84.7068 47.0505H86.4085L87.8182 54.5502L89.1393 47.0505H90.8813L88.7466 57.6536H86.8495L84.7068 47.0505ZM91.4311 47.0505H95.8818V48.4119H93.3463V51.4609H95.3361V52.8102H93.3463V56.3305H95.9V57.6536H91.4311V47.0505ZM96.5404 47.0505H98.4515V57.6536H96.5404V47.0505ZM99.2853 54.5643L100.947 54.2361C100.999 55.4927 101.301 56.3043 102.155 56.3043C102.771 56.3043 103.033 55.8854 103.033 55.3095C103.033 54.3931 102.562 53.8836 101.867 53.2815L100.532 52.1154C99.7727 51.4609 99.3014 50.7279 99.3014 49.5497C99.3014 47.8742 100.349 46.9317 102.038 46.9317C104.028 46.9317 104.59 48.2669 104.697 49.8115L103.033 50.0995C102.993 49.1047 102.85 48.3595 101.998 48.3595C101.422 48.3595 101.108 48.7905 101.108 49.3544C101.108 50.0733 101.41 50.4661 101.972 50.9514L103.295 52.1154C104.159 52.8626 104.878 53.791 104.878 55.1926C104.878 56.7232 103.804 57.7966 102.222 57.7966C100.292 57.7986 99.3679 56.6708 99.2853 54.5643ZM33.5922 113.986H52.6718C52.7622 113.986 52.8507 113.96 52.9265 113.911C53.0023 113.862 53.0621 113.792 53.0986 113.709C53.1352 113.626 53.1468 113.535 53.1322 113.446C53.1175 113.356 53.0772 113.273 53.0162 113.207L52.99 113.179L43.5006 100.896L43.4079 100.795C43.3641 100.747 43.3106 100.708 43.2509 100.682C43.1913 100.656 43.1268 100.642 43.0616 100.642C42.9484 100.645 42.8399 100.688 42.7554 100.763L42.697 100.829L42.6084 100.928L33.3445 113.082L33.2016 113.255C33.154 113.326 33.1266 113.408 33.1223 113.493C33.118 113.578 33.137 113.663 33.1771 113.738C33.2173 113.813 33.2771 113.876 33.3503 113.92C33.4234 113.963 33.5071 113.986 33.5922 113.986ZM52.6134 115.72H33.4976C33.436 115.72 33.375 115.732 33.318 115.756C33.2611 115.779 33.2094 115.814 33.1658 115.858C33.1222 115.901 33.0877 115.953 33.0641 116.01C33.0405 116.067 33.0284 116.128 33.0284 116.189V131.148C33.0281 131.21 33.04 131.272 33.0635 131.329C33.087 131.386 33.1215 131.438 33.1651 131.482C33.2087 131.525 33.2605 131.56 33.3176 131.584C33.3746 131.608 33.4358 131.62 33.4976 131.62H39.65V122.207C39.6498 122.145 39.6616 122.084 39.685 122.027C39.7084 121.97 39.7427 121.919 39.7862 121.875C39.8296 121.832 39.8812 121.797 39.938 121.773C39.9948 121.75 40.0557 121.738 40.1172 121.738H45.8286C45.9531 121.738 46.0724 121.787 46.1604 121.875C46.2484 121.963 46.2979 122.082 46.2979 122.207V131.62H52.6134C52.7381 131.619 52.8574 131.569 52.9453 131.481C53.0333 131.393 53.0827 131.273 53.0827 131.148V116.189C53.0827 116.128 53.0705 116.067 53.0469 116.01C53.0234 115.953 52.9888 115.901 52.9452 115.858C52.9017 115.814 52.8499 115.779 52.793 115.756C52.7361 115.732 52.675 115.72 52.6134 115.72ZM118.685 111.805H99.7545C99.6945 111.804 99.6348 111.814 99.579 111.836C99.5231 111.858 99.4721 111.891 99.429 111.933C99.3859 111.975 99.3516 112.024 99.3279 112.08C99.3043 112.135 99.2919 112.194 99.2913 112.254V131.36C99.2935 131.481 99.3434 131.596 99.4302 131.68C99.517 131.764 99.6336 131.811 99.7545 131.809H118.685C118.745 131.81 118.805 131.799 118.86 131.777C118.916 131.755 118.967 131.722 119.01 131.681C119.053 131.639 119.087 131.589 119.111 131.534C119.135 131.479 119.147 131.42 119.148 131.36V112.254C119.148 112.194 119.135 112.135 119.112 112.08C119.088 112.024 119.054 111.975 119.011 111.933C118.967 111.891 118.917 111.858 118.861 111.836C118.805 111.814 118.745 111.804 118.685 111.805ZM108.332 124.277C108.331 124.337 108.319 124.397 108.296 124.452C108.273 124.507 108.238 124.558 108.196 124.6C108.153 124.642 108.102 124.675 108.046 124.698C107.99 124.72 107.931 124.731 107.871 124.73H102.218C102.157 124.731 102.097 124.72 102.041 124.698C101.985 124.675 101.934 124.642 101.891 124.6C101.848 124.558 101.813 124.508 101.79 124.452C101.766 124.397 101.753 124.337 101.752 124.277V120.843C101.753 120.783 101.766 120.724 101.79 120.668C101.813 120.613 101.848 120.563 101.891 120.521C101.934 120.479 101.985 120.446 102.041 120.424C102.097 120.402 102.157 120.391 102.218 120.392H107.871C107.931 120.391 107.99 120.402 108.046 120.424C108.102 120.446 108.153 120.479 108.195 120.521C108.238 120.563 108.272 120.613 108.296 120.669C108.319 120.724 108.331 120.783 108.332 120.843V124.277ZM108.332 117.929C108.33 118.05 108.281 118.166 108.194 118.25C108.108 118.335 107.991 118.382 107.871 118.38H102.218C102.096 118.382 101.979 118.335 101.892 118.251C101.805 118.166 101.754 118.051 101.752 117.929V114.492C101.754 114.37 101.805 114.255 101.892 114.17C101.979 114.085 102.096 114.039 102.218 114.041H107.871C107.93 114.04 107.99 114.051 108.046 114.073C108.101 114.095 108.152 114.128 108.195 114.17C108.238 114.212 108.272 114.262 108.295 114.317C108.319 114.372 108.331 114.432 108.332 114.492V117.929ZM116.971 124.277C116.971 124.337 116.959 124.397 116.935 124.453C116.912 124.508 116.878 124.558 116.834 124.601C116.791 124.643 116.74 124.676 116.684 124.698C116.628 124.72 116.568 124.731 116.508 124.73H110.857C110.797 124.731 110.737 124.72 110.681 124.698C110.625 124.676 110.574 124.643 110.531 124.601C110.488 124.558 110.453 124.508 110.43 124.453C110.406 124.397 110.394 124.337 110.394 124.277V120.843C110.394 120.783 110.407 120.724 110.43 120.669C110.454 120.613 110.488 120.563 110.531 120.521C110.575 120.479 110.625 120.446 110.681 120.424C110.737 120.402 110.797 120.391 110.857 120.392H116.508C116.568 120.391 116.628 120.402 116.684 120.424C116.74 120.446 116.791 120.479 116.834 120.521C116.877 120.563 116.911 120.613 116.935 120.669C116.958 120.724 116.971 120.783 116.971 120.843V124.277ZM116.971 117.929C116.97 117.989 116.958 118.049 116.934 118.104C116.91 118.159 116.876 118.209 116.833 118.251C116.79 118.293 116.739 118.326 116.683 118.348C116.628 118.37 116.568 118.381 116.508 118.38H110.857C110.797 118.381 110.737 118.37 110.682 118.348C110.626 118.326 110.575 118.293 110.532 118.251C110.489 118.209 110.455 118.159 110.431 118.104C110.407 118.049 110.395 117.989 110.394 117.929V114.492C110.394 114.432 110.407 114.372 110.43 114.317C110.454 114.262 110.488 114.211 110.531 114.17C110.575 114.128 110.625 114.095 110.681 114.072C110.737 114.05 110.797 114.039 110.857 114.041H116.508C116.568 114.039 116.628 114.05 116.684 114.072C116.74 114.095 116.791 114.128 116.834 114.17C116.877 114.211 116.911 114.262 116.935 114.317C116.958 114.372 116.971 114.432 116.971 114.492V117.929ZM74.7018 67.4653H56.1881C56.1287 67.4653 56.0698 67.477 56.015 67.4998C55.9601 67.5226 55.9103 67.556 55.8684 67.5981C55.8265 67.6402 55.7933 67.6902 55.7707 67.7452C55.7482 67.8001 55.7367 67.859 55.737 67.9184V131.191C55.737 131.311 55.7844 131.426 55.869 131.51C55.9535 131.595 56.0683 131.643 56.1881 131.644H74.7058C74.826 131.643 74.9411 131.596 75.0263 131.511C75.1115 131.426 75.1599 131.311 75.1609 131.191V67.9083C75.1604 67.788 75.1122 67.6727 75.0269 67.5878C74.9416 67.5029 74.8262 67.4552 74.7058 67.4552M63.6898 124.434C63.6898 124.498 63.6644 124.56 63.6192 124.606C63.5739 124.651 63.5124 124.677 63.4481 124.678H59.2089C59.1446 124.677 59.0832 124.651 59.0379 124.606C58.9926 124.56 58.9672 124.498 58.9672 124.434V119.71C58.9672 119.646 58.9927 119.584 59.038 119.539C59.0833 119.493 59.1448 119.468 59.2089 119.468H63.4381C63.5022 119.468 63.5636 119.493 63.609 119.539C63.6543 119.584 63.6797 119.646 63.6797 119.71L63.6898 124.434ZM63.6898 113.583C63.6901 113.615 63.684 113.647 63.672 113.676C63.6599 113.706 63.6421 113.732 63.6196 113.755C63.5971 113.777 63.5704 113.795 63.541 113.807C63.5115 113.819 63.48 113.825 63.4481 113.825H59.2089C59.1771 113.825 59.1456 113.819 59.1161 113.807C59.0867 113.795 59.0599 113.777 59.0374 113.755C59.0149 113.732 58.9971 113.706 58.9851 113.676C58.973 113.647 58.967 113.615 58.9672 113.583V108.859C58.967 108.827 58.973 108.795 58.9851 108.766C58.9971 108.737 59.0149 108.71 59.0374 108.687C59.0599 108.665 59.0867 108.647 59.1161 108.635C59.1456 108.623 59.1771 108.617 59.2089 108.617H63.4381C63.4699 108.617 63.5014 108.623 63.5309 108.635C63.5603 108.647 63.5871 108.665 63.6096 108.687C63.6321 108.71 63.6498 108.737 63.6619 108.766C63.6739 108.795 63.68 108.827 63.6797 108.859L63.6898 113.583ZM63.6898 102.735C63.6898 102.799 63.6644 102.86 63.619 102.905C63.5737 102.951 63.5122 102.976 63.4481 102.976H59.2089C59.1448 102.976 59.0833 102.951 59.038 102.905C58.9927 102.86 58.9672 102.799 58.9672 102.735V98.0079C58.9672 97.9436 58.9926 97.882 59.0379 97.8363C59.0832 97.7907 59.1446 97.7648 59.2089 97.7643H63.4381C63.5024 97.7648 63.5638 97.7907 63.6091 97.8363C63.6544 97.882 63.6797 97.9436 63.6797 98.0079L63.6898 102.735ZM63.6898 91.8817C63.6898 91.946 63.6644 92.0076 63.6192 92.0533C63.5739 92.0989 63.5124 92.1248 63.4481 92.1254H59.2089C59.1446 92.1248 59.0832 92.0989 59.0379 92.0533C58.9926 92.0076 58.9672 91.946 58.9672 91.8817V87.1551C58.9672 87.1234 58.9735 87.0921 58.9857 87.0629C58.9979 87.0337 59.0157 87.0072 59.0381 86.9849C59.0606 86.9626 59.0873 86.945 59.1166 86.9331C59.1459 86.9212 59.1773 86.9152 59.2089 86.9154H63.4381C63.4697 86.9152 63.5011 86.9212 63.5304 86.9331C63.5597 86.945 63.5864 86.9626 63.6088 86.9849C63.6313 87.0072 63.6491 87.0337 63.6613 87.0629C63.6735 87.0921 63.6797 87.1234 63.6797 87.1551L63.6898 91.8817ZM63.6898 81.0329C63.6898 81.097 63.6644 81.1584 63.619 81.2037C63.5737 81.2491 63.5122 81.2745 63.4481 81.2745H59.2089C59.1448 81.2745 59.0833 81.2491 59.038 81.2037C58.9927 81.1584 58.9672 81.097 58.9672 81.0329V76.3063C58.9672 76.2422 58.9927 76.1807 59.038 76.1354C59.0833 76.0901 59.1448 76.0646 59.2089 76.0646H63.4381C63.5022 76.0646 63.5636 76.0901 63.609 76.1354C63.6543 76.1807 63.6797 76.2422 63.6797 76.3063L63.6898 81.0329ZM72.0052 124.434C72.0052 124.466 71.9988 124.498 71.9864 124.528C71.9741 124.558 71.9559 124.585 71.9331 124.607C71.9102 124.63 71.8831 124.648 71.8533 124.66C71.8235 124.672 71.7916 124.678 71.7595 124.678H67.5303C67.4657 124.678 67.4037 124.652 67.358 124.606C67.3123 124.561 67.2866 124.499 67.2866 124.434V119.71C67.2866 119.678 67.2929 119.646 67.3052 119.617C67.3175 119.587 67.3355 119.56 67.3581 119.538C67.3808 119.516 67.4076 119.498 67.4372 119.486C67.4668 119.474 67.4984 119.468 67.5303 119.468H71.7595C71.7915 119.467 71.8234 119.473 71.8532 119.485C71.883 119.497 71.9101 119.515 71.933 119.537C71.9558 119.56 71.974 119.587 71.9864 119.616C71.9988 119.646 72.0052 119.678 72.0052 119.71V124.434ZM72.0052 113.583C72.0052 113.615 71.9988 113.647 71.9864 113.677C71.974 113.706 71.9558 113.733 71.933 113.756C71.9101 113.778 71.883 113.796 71.8532 113.808C71.8234 113.82 71.7915 113.826 71.7595 113.825H67.5303C67.4983 113.826 67.4666 113.82 67.4369 113.808C67.4072 113.796 67.3802 113.778 67.3575 113.756C67.3348 113.733 67.3168 113.706 67.3047 113.677C67.2925 113.647 67.2863 113.615 67.2866 113.583V108.859C67.2863 108.827 67.2925 108.795 67.3047 108.765C67.3168 108.736 67.3348 108.709 67.3575 108.687C67.3802 108.664 67.4072 108.646 67.4369 108.634C67.4666 108.622 67.4983 108.617 67.5303 108.617H71.7595C71.7915 108.617 71.8234 108.622 71.8532 108.634C71.883 108.646 71.9101 108.664 71.933 108.686C71.9558 108.709 71.974 108.736 71.9864 108.765C71.9988 108.795 72.0052 108.827 72.0052 108.859V113.583ZM72.0052 102.735C72.0049 102.767 71.9983 102.798 71.9858 102.828C71.9734 102.857 71.9552 102.884 71.9324 102.906C71.9095 102.929 71.8825 102.946 71.8529 102.958C71.8232 102.97 71.7915 102.976 71.7595 102.976H67.5303C67.466 102.976 67.4043 102.951 67.3587 102.906C67.3131 102.86 67.2871 102.799 67.2866 102.735V98.0079C67.2866 97.9433 67.3123 97.8813 67.358 97.8356C67.4037 97.7899 67.4657 97.7643 67.5303 97.7643H71.7595C71.7916 97.764 71.8235 97.7701 71.8533 97.7822C71.8831 97.7943 71.9102 97.8123 71.9331 97.8349C71.9559 97.8576 71.9741 97.8845 71.9864 97.9142C71.9988 97.9439 72.0052 97.9758 72.0052 98.0079V102.735ZM72.0052 91.8817C72.0052 91.9138 71.9988 91.9457 71.9864 91.9754C71.9741 92.0051 71.9559 92.0321 71.9331 92.0547C71.9102 92.0774 71.8831 92.0953 71.8533 92.1074C71.8235 92.1195 71.7916 92.1256 71.7595 92.1254H67.5303C67.4657 92.1254 67.4037 92.0997 67.358 92.054C67.3123 92.0083 67.2866 91.9463 67.2866 91.8817V87.1551C67.2869 87.1233 67.2934 87.092 67.3058 87.0628C67.3182 87.0335 67.3362 87.007 67.3588 86.9848C67.3815 86.9625 67.4082 86.945 67.4377 86.9331C67.4671 86.9212 67.4986 86.9152 67.5303 86.9154H71.7595C71.7914 86.9149 71.8231 86.9207 71.8527 86.9325C71.8824 86.9443 71.9094 86.9618 71.9322 86.9841C71.9551 87.0063 71.9733 87.0329 71.9858 87.0623C71.9983 87.0916 72.0049 87.1232 72.0052 87.1551V91.8817ZM72.0052 81.0329C72.0049 81.0649 71.9983 81.0965 71.9858 81.126C71.9734 81.1554 71.9552 81.1821 71.9324 81.2046C71.9095 81.227 71.8825 81.2448 71.8529 81.2568C71.8232 81.2688 71.7915 81.2748 71.7595 81.2745H67.5303C67.466 81.2745 67.4043 81.2491 67.3587 81.2039C67.3131 81.1586 67.2871 81.0971 67.2866 81.0329V76.3063C67.2866 76.2744 67.2929 76.2428 67.3052 76.2133C67.3175 76.1839 67.3355 76.1571 67.3581 76.1347C67.3808 76.1122 67.4076 76.0944 67.4372 76.0824C67.4668 76.0704 67.4984 76.0643 67.5303 76.0646H71.7595C71.7915 76.0641 71.8234 76.0699 71.8532 76.0818C71.883 76.0937 71.9101 76.1114 71.933 76.1339C71.9558 76.1564 71.974 76.1833 71.9864 76.2128C71.9988 76.2424 72.0052 76.2742 72.0052 76.3063V81.0329ZM119.128 109.882C119.128 109.932 119.119 109.981 119.1 110.028C119.081 110.074 119.053 110.116 119.017 110.152C118.982 110.187 118.94 110.215 118.893 110.234C118.847 110.253 118.798 110.263 118.748 110.262H99.7022C99.6012 110.262 99.5044 110.222 99.433 110.151C99.3617 110.08 99.3215 109.983 99.3215 109.882V106.074C99.3215 105.973 99.3617 105.876 99.433 105.804C99.5044 105.733 99.6012 105.693 99.7022 105.693H118.748C118.848 105.693 118.945 105.733 119.017 105.804C119.088 105.876 119.128 105.973 119.128 106.074V109.882ZM97.07 79.4056C97.0508 79.3315 97.0139 79.2632 96.9625 79.2065C96.911 79.1498 96.8466 79.1064 96.7747 79.0801C96.7028 79.0537 96.6256 79.0452 96.5497 79.0553C96.4738 79.0653 96.4015 79.0936 96.339 79.1378L96.3047 79.162L96.1497 79.3633L77.9481 102.445L77.8636 102.557C77.7667 102.653 77.7104 102.782 77.7065 102.918V131.285C77.7065 131.345 77.7182 131.404 77.741 131.459C77.7638 131.513 77.7972 131.563 77.8393 131.605C77.8814 131.647 77.9314 131.68 77.9864 131.703C78.0413 131.725 78.1002 131.737 78.1596 131.737H96.6672C96.7267 131.737 96.7855 131.725 96.8405 131.703C96.8955 131.68 96.9454 131.647 96.9875 131.605C97.0296 131.563 97.063 131.513 97.0858 131.459C97.1086 131.404 97.1204 131.345 97.1204 131.285V79.5949C97.1177 79.5289 97.1005 79.4643 97.07 79.4056ZM89.4072 91.9421L89.5381 91.779C90.7827 90.1799 92.8811 87.5981 93.9042 86.3415L94.0391 86.1804C94.1017 86.1039 94.1848 86.0469 94.2786 86.0161C94.3725 85.9852 94.4732 85.9817 94.5689 86.006C94.6647 86.0303 94.7515 86.0814 94.8193 86.1533C94.887 86.2252 94.9329 86.3149 94.9514 86.412V92.2522C94.9505 92.3872 94.8977 92.5166 94.804 92.6137C94.7103 92.7108 94.5828 92.7682 94.4479 92.7738H89.8059C89.7107 92.7704 89.6183 92.7411 89.5385 92.689C89.4588 92.6369 89.3947 92.5641 89.3533 92.4783C89.3119 92.3926 89.2946 92.2971 89.3034 92.2023C89.3122 92.1074 89.3467 92.0168 89.4031 91.9401L89.4072 91.9421ZM86.5273 124.273C86.5276 124.332 86.5161 124.391 86.4936 124.446C86.471 124.501 86.4378 124.551 86.3959 124.593C86.354 124.635 86.3042 124.669 86.2493 124.692C86.1944 124.714 86.1356 124.726 86.0762 124.726H80.5561C80.436 124.726 80.3207 124.678 80.2357 124.593C80.1507 124.509 80.103 124.393 80.103 124.273V120.819C80.103 120.76 80.1147 120.701 80.1375 120.646C80.1603 120.591 80.1937 120.541 80.2358 120.5C80.2779 120.458 80.3279 120.424 80.3829 120.402C80.4378 120.379 80.4967 120.368 80.5561 120.368H86.0742C86.1938 120.368 86.3086 120.416 86.3932 120.5C86.4778 120.585 86.5253 120.7 86.5253 120.819L86.5273 124.273ZM86.5273 117.891C86.5276 117.95 86.5161 118.009 86.4936 118.064C86.471 118.119 86.4378 118.169 86.3959 118.211C86.354 118.253 86.3042 118.287 86.2493 118.31C86.1944 118.332 86.1356 118.344 86.0762 118.344H80.5561C80.436 118.344 80.3207 118.296 80.2357 118.211C80.1507 118.127 80.103 118.011 80.103 117.891V114.437C80.103 114.378 80.1147 114.319 80.1375 114.264C80.1603 114.209 80.1937 114.159 80.2358 114.118C80.2779 114.076 80.3279 114.042 80.3829 114.02C80.4378 113.997 80.4967 113.986 80.5561 113.986H86.0742C86.1337 113.986 86.1926 113.997 86.2476 114.02C86.3026 114.043 86.3525 114.076 86.3945 114.118C86.4365 114.161 86.4696 114.211 86.4921 114.266C86.5145 114.321 86.5258 114.38 86.5253 114.439L86.5273 117.891ZM86.5273 111.509C86.5273 111.629 86.4798 111.743 86.3952 111.828C86.3106 111.913 86.1958 111.96 86.0762 111.96H80.5561C80.4363 111.96 80.3214 111.913 80.2364 111.828C80.1515 111.744 80.1035 111.629 80.103 111.509V108.053C80.103 107.933 80.1507 107.818 80.2357 107.733C80.3207 107.648 80.436 107.6 80.5561 107.6H86.0742C86.1336 107.6 86.1924 107.612 86.2473 107.635C86.3021 107.657 86.352 107.691 86.3939 107.733C86.4358 107.775 86.469 107.825 86.4915 107.88C86.5141 107.935 86.5256 107.994 86.5253 108.053L86.5273 111.509ZM86.5434 97.5206V105.125C86.5429 105.245 86.495 105.36 86.4101 105.445C86.3253 105.53 86.2103 105.578 86.0903 105.578H80.5722C80.5125 105.578 80.4532 105.567 80.3979 105.544C80.3426 105.522 80.2923 105.488 80.2498 105.446C80.2074 105.404 80.1736 105.354 80.1505 105.299C80.1274 105.244 80.1154 105.185 80.1151 105.125V104.166C80.1168 104.108 80.1291 104.051 80.1513 103.997C80.1584 103.979 80.1672 103.961 80.1775 103.945C80.1898 103.925 80.2032 103.905 80.2178 103.886C80.2319 103.864 80.252 103.836 80.2702 103.812C80.975 102.805 84.159 98.8799 85.4962 97.2406L85.6291 97.0795C85.6773 97.0184 85.7384 96.9687 85.808 96.9339C85.8777 96.8991 85.9541 96.8801 86.0319 96.8781C86.1524 96.8794 86.2686 96.9225 86.3608 97C86.453 97.0775 86.5154 97.1846 86.5374 97.3031L86.5434 97.5206ZM94.9635 124.273C94.9638 124.332 94.9523 124.391 94.9297 124.446C94.9072 124.501 94.874 124.551 94.8321 124.593C94.7902 124.635 94.7403 124.669 94.6855 124.692C94.6306 124.714 94.5718 124.726 94.5124 124.726H88.9943C88.9347 124.726 88.8755 124.715 88.8203 124.692C88.7651 124.67 88.7149 124.636 88.6726 124.594C88.6303 124.552 88.5968 124.502 88.5739 124.447C88.551 124.392 88.5392 124.333 88.5392 124.273V120.819C88.5395 120.76 88.5514 120.701 88.5744 120.646C88.5975 120.591 88.6311 120.541 88.6733 120.499C88.7156 120.458 88.7657 120.424 88.8208 120.402C88.8758 120.379 88.9348 120.368 88.9943 120.368H94.5124C94.632 120.368 94.7468 120.416 94.8314 120.5C94.916 120.585 94.9635 120.7 94.9635 120.819V124.273ZM94.9635 117.891C94.9638 117.95 94.9523 118.009 94.9297 118.064C94.9072 118.119 94.874 118.169 94.8321 118.211C94.7902 118.253 94.7403 118.287 94.6855 118.31C94.6306 118.332 94.5718 118.344 94.5124 118.344H88.9943C88.9347 118.344 88.8755 118.333 88.8203 118.31C88.7651 118.288 88.7149 118.254 88.6726 118.212C88.6303 118.17 88.5968 118.12 88.5739 118.065C88.551 118.01 88.5392 117.951 88.5392 117.891V114.437C88.5389 114.377 88.5505 114.318 88.5733 114.263C88.5961 114.208 88.6297 114.158 88.672 114.116C88.7144 114.073 88.7647 114.04 88.82 114.017C88.8753 113.995 88.9346 113.984 88.9943 113.984H94.5124C94.5718 113.984 94.6306 113.996 94.6855 114.019C94.7403 114.041 94.7902 114.075 94.8321 114.117C94.874 114.159 94.9072 114.209 94.9297 114.264C94.9523 114.319 94.9638 114.378 94.9635 114.437V117.891ZM94.9635 111.509C94.963 111.629 94.9153 111.743 94.8308 111.827C94.7463 111.912 94.6319 111.96 94.5124 111.96H88.9943C88.9348 111.96 88.8758 111.949 88.8208 111.926C88.7657 111.904 88.7156 111.871 88.6733 111.829C88.6311 111.787 88.5975 111.737 88.5744 111.682C88.5514 111.627 88.5395 111.569 88.5392 111.509V108.053C88.5392 107.994 88.551 107.934 88.5739 107.879C88.5968 107.824 88.6303 107.774 88.6726 107.732C88.7149 107.69 88.7651 107.657 88.8203 107.634C88.8755 107.611 88.9347 107.6 88.9943 107.6H94.5124C94.5718 107.6 94.6306 107.612 94.6855 107.635C94.7403 107.657 94.7902 107.691 94.8321 107.733C94.874 107.775 94.9072 107.825 94.9297 107.88C94.9523 107.935 94.9638 107.994 94.9635 108.053V111.509ZM94.9635 105.125C94.9635 105.245 94.916 105.359 94.8314 105.444C94.7468 105.529 94.632 105.576 94.5124 105.576H88.9943C88.9348 105.576 88.8758 105.565 88.8208 105.542C88.7657 105.52 88.7156 105.487 88.6733 105.445C88.6311 105.403 88.5975 105.353 88.5744 105.298C88.5514 105.243 88.5395 105.185 88.5392 105.125V101.669C88.5395 101.61 88.5514 101.551 88.5744 101.496C88.5975 101.441 88.6311 101.391 88.6733 101.349C88.7156 101.307 88.7657 101.274 88.8208 101.252C88.8758 101.229 88.9348 101.218 88.9943 101.218H94.5124C94.632 101.218 94.7468 101.266 94.8314 101.35C94.916 101.435 94.9635 101.55 94.9635 101.669V105.125ZM94.9635 98.741C94.9635 98.8606 94.916 98.9754 94.8314 99.06C94.7468 99.1446 94.632 99.1921 94.5124 99.1921H88.9943C88.9348 99.1924 88.8758 99.1809 88.8208 99.1584C88.7657 99.1358 88.7156 99.1027 88.6733 99.0608C88.6311 99.0189 88.5975 98.9691 88.5744 98.9142C88.5514 98.8594 88.5395 98.8005 88.5392 98.741V95.2852C88.5392 95.2255 88.551 95.1664 88.5739 95.1113C88.5968 95.0562 88.6303 95.0061 88.6726 94.964C88.7149 94.9219 88.7651 94.8886 88.8203 94.8659C88.8755 94.8433 88.9347 94.8318 88.9943 94.832H94.5124C94.5718 94.832 94.6306 94.8438 94.6855 94.8666C94.7403 94.8894 94.7902 94.9228 94.8321 94.9649C94.874 95.007 94.9072 95.0569 94.9297 95.1119C94.9523 95.1669 94.9638 95.2257 94.9635 95.2852V98.741Z" fill="white"/>
</g>
<defs>
<clipPath id="clip0_68_609">
<rect width="145" height="145" rx="15" fill="white"/>
</clipPath>
</defs>
</svg>
