<svg width="144" height="145" viewBox="0 0 144 145" fill="none" xmlns="http://www.w3.org/2000/svg">
<g clip-path="url(#clip0_68_614)">
<path d="M-0.216797 -0.217499H144.215V145.217H-0.216797V-0.217499Z" fill="#BF8B2E"/>
<path d="M9.8237 17.9095C8.9997 18.3546 6.6617 19.0051 5.8457 19.4159V15.4788C6.9337 15.0337 9.9597 13.5615 10.9797 12.4317H15.0937V40.163H9.8237V17.9095ZM15.6717 36.4313L22.3697 26.0577C23.8317 23.7639 25.2937 21.8467 25.2937 19.279C25.2937 17.4987 24.6137 16.5401 23.2937 16.5401C21.2937 16.5401 20.8117 18.3888 20.8117 20.6484V21.9151H15.6717V20.5417C15.6717 15.6459 17.7797 12.0833 23.1857 12.0833C28.0137 12.0833 30.4957 14.788 30.4957 19.3756C30.4957 22.765 28.7617 25.1273 26.8957 27.9689L21.5917 35.9802H29.7517V40.157H15.6717V36.4313ZM45.5777 19.6233V15.8413C45.5777 13.6683 46.2657 12.2928 48.5777 12.2928C50.7357 12.2928 51.4257 13.5011 51.4257 15.3438V16.234H49.5797V15.3176C49.5797 14.4275 49.5657 13.7065 48.5917 13.7065C47.6177 13.7065 47.5117 14.4658 47.5117 15.4345V20.0301C47.5117 21.1821 47.7457 21.7319 48.5917 21.7319C49.5397 21.7319 49.5797 20.9847 49.5797 20.0422V19.0876H51.4257V19.9375C51.4257 21.8104 50.8017 23.1597 48.5777 23.1597C46.2657 23.1597 45.5777 21.6916 45.5777 19.6233ZM52.1997 19.6898V15.7083C52.1997 13.5615 52.9797 12.2847 55.2417 12.2847C57.5037 12.2847 58.2697 13.5555 58.2697 15.7083V19.6898C58.2697 21.8225 57.4897 23.1577 55.2417 23.1577C52.9937 23.1577 52.1997 21.8366 52.1997 19.6898ZM56.3197 20.147V15.2653C56.3197 14.3751 56.1777 13.7065 55.2417 13.7065C54.3057 13.7065 54.1497 14.3751 54.1497 15.2653V20.1389C54.1497 21.017 54.2917 21.7238 55.2417 21.7238C56.1917 21.7238 56.3277 21.025 56.3277 20.1389L56.3197 20.147ZM59.3037 12.4116H60.6437L63.2057 18.4533V12.4116H64.7997V23.0147H63.5257L60.9437 16.679V23.0147H59.3037V12.4116ZM65.7397 19.9254L67.3997 19.5972C67.4537 20.8538 67.7517 21.6654 68.5997 21.6654C69.2117 21.6654 69.4717 21.2465 69.4717 20.6706C69.4717 19.7542 69.0037 19.2447 68.3157 18.6426L66.9877 17.4765C66.2337 16.822 65.7657 16.089 65.7657 14.9108C65.7657 13.2353 66.8057 12.2928 68.4837 12.2928C70.4597 12.2928 71.0197 13.628 71.1237 15.1726L69.4717 15.4606C69.4337 14.4658 69.2897 13.7206 68.4437 13.7206C67.8737 13.7206 67.5597 14.1516 67.5597 14.7155C67.5597 15.4345 67.8597 15.8272 68.4177 16.3125L69.7317 17.4765C70.5897 18.2237 71.3057 19.1521 71.3057 20.5538C71.3057 22.0843 70.2397 23.1577 68.6657 23.1577C66.7277 23.1597 65.8177 22.032 65.7397 19.9254ZM71.9537 19.5851V12.4116H73.8257V19.8066C73.8257 20.8136 73.9417 21.7178 74.9177 21.7178C75.8937 21.7178 76.0217 20.8156 76.0217 19.8066V12.4116H77.8817V19.5851C77.8817 21.8004 77.2697 23.1577 74.9177 23.1577C72.5657 23.1577 71.9537 21.8104 71.9537 19.5851ZM79.1557 12.4116H81.1437L82.6397 19.7542L84.1857 12.4116H86.1237L86.3237 23.0147H84.8917L84.7357 15.6439L83.2417 23.0147H82.0797L80.5597 15.6177L80.4157 23.0147H78.9737L79.1557 12.4116ZM87.3197 19.6898V15.7083C87.3197 13.5615 88.0997 12.2847 90.3617 12.2847C92.6237 12.2847 93.3997 13.5636 93.3997 15.7083V19.6898C93.3997 21.8225 92.6197 23.1577 90.3717 23.1577C88.1237 23.1577 87.3197 21.8366 87.3197 19.6898ZM91.4397 20.1389V15.2653C91.4397 14.3751 91.2977 13.7065 90.3617 13.7065C89.4257 13.7065 89.2697 14.3751 89.2697 15.2653V20.1389C89.2697 21.017 89.4117 21.7238 90.3617 21.7238C91.3117 21.7238 91.4397 21.025 91.4397 20.1389ZM97.1857 12.4116H101.6V13.773H99.0977V16.822H101.074V18.1713H99.0977V21.6916H101.632V23.0147H97.1857V12.4116ZM45.7457 29.7311H48.8397C50.7257 29.7311 51.5317 30.8306 51.5317 32.7519C51.5317 34.8322 50.4137 35.6317 48.7097 35.6317H47.6577V40.3442H45.7457V29.7311ZM48.3997 34.2603C49.4537 34.2603 49.7257 33.8575 49.7257 32.7277C49.7257 31.5979 49.5837 31.0924 48.3997 31.0924H47.6597V34.2603H48.3997ZM52.1997 29.7311H54.7337C56.8397 29.7311 58.0357 30.4117 58.0357 32.5505C58.0357 33.8213 57.7237 34.7114 56.7357 35.1162L58.2057 40.3402H56.2817L55.0197 35.4827H54.1097V40.3402H52.1997V29.7311ZM54.7217 34.2724C55.8257 34.2724 56.2297 33.789 56.2297 32.6492C56.2297 31.5758 55.9297 31.0522 54.8297 31.0522H54.1137V34.2744L54.7217 34.2724ZM58.8877 37.0092V33.0278C58.8877 30.881 59.6697 29.6042 61.9317 29.6042C64.1937 29.6042 64.9597 30.8749 64.9597 33.0278V37.0072C64.9597 39.1399 64.1797 40.4751 61.9317 40.4751C59.6837 40.4751 58.8877 39.1561 58.8877 37.0092ZM63.0097 37.4583V32.5847C63.0097 31.6946 62.8677 31.026 61.9317 31.026C60.9957 31.026 60.8397 31.6946 60.8397 32.5847V37.4583C60.8397 38.3364 60.9817 39.0433 61.9317 39.0433C62.8817 39.0433 63.0097 38.3445 63.0097 37.4583ZM65.9857 29.7311H68.4697C71.0297 29.7311 71.8117 30.7642 71.8117 33.0298V36.8904C71.8117 39.2205 71.0117 40.3342 68.5477 40.3342H65.9857V29.7311ZM68.4957 38.9949C69.8077 38.9949 69.8617 38.2881 69.8617 36.967V32.8989C69.8617 31.6281 69.7297 31.1045 68.4617 31.1045H67.8897V38.9849L68.4957 38.9949ZM72.7597 36.9045V29.7311H74.6317V37.1261C74.6317 38.133 74.7477 39.0372 75.7237 39.0372C76.6997 39.0372 76.8277 38.135 76.8277 37.1261V29.7311H78.6877V36.9045C78.6877 39.1299 78.0757 40.4772 75.7237 40.4772C73.3717 40.4772 72.7597 39.1299 72.7597 36.9045ZM83.6397 33.5534V32.6371C83.6397 31.747 83.6277 31.026 82.6517 31.026C81.6757 31.026 81.5737 31.7852 81.5737 32.7539V37.3496C81.5737 38.5015 81.8077 39.0513 82.6517 39.0513C83.6017 39.0513 83.6397 38.3042 83.6397 37.3617V36.4071H85.4857V37.257C85.4857 39.0513 84.9137 40.3724 82.8997 40.4792V41.1337C83.8617 41.1337 84.5117 41.5667 84.5117 42.3783C84.5117 43.3067 83.6917 43.6994 82.7437 43.6994C82.4266 43.6963 82.1115 43.6481 81.8077 43.5564V42.7307C82.0349 42.8019 82.2717 42.8373 82.5097 42.8354C82.9637 42.8354 83.3097 42.7045 83.3097 42.3521C83.3097 41.8808 82.7777 41.7097 82.1657 41.6452V40.453C80.2417 40.2516 79.6437 38.856 79.6437 36.9448V33.1607C79.6437 30.9877 80.3337 29.6122 82.6437 29.6122C84.8017 29.6122 85.4897 30.8206 85.4897 32.6633V33.5534H83.6397ZM87.9997 29.7311H90.0537L92.1597 40.3342H90.3797L89.9637 37.8853H88.1297L87.7017 40.3342H85.9017L87.9997 29.7311ZM88.3997 27.7272C88.0617 27.7272 87.9437 27.9286 87.9437 28.2649H87.0337C87.0337 27.3224 87.2937 26.6156 88.1397 26.6156C88.7757 26.6156 89.2057 27.2197 89.7637 27.2197C90.0637 27.2197 90.1797 27.0365 90.1797 26.6961H91.0377C91.0377 27.5198 90.8957 28.3455 90.0497 28.3455C89.3857 28.3435 88.9437 27.7272 88.4117 27.7272H88.3997ZM89.7637 36.6528L89.0477 32.2021L88.3337 36.6528H89.7637ZM92.5577 37.0092V33.0278C92.5577 30.881 93.3377 29.6042 95.5997 29.6042C97.8617 29.6042 98.6297 30.8749 98.6297 33.0278V37.0072C98.6297 39.1399 97.8497 40.4751 95.5997 40.4751C93.3497 40.4751 92.5577 39.1561 92.5577 37.0092ZM96.6797 37.4583V32.5847C96.6797 31.6946 96.5357 31.026 95.5997 31.026C94.6637 31.026 94.5077 31.6946 94.5077 32.5847V37.4583C94.5077 38.3364 94.6517 39.0433 95.5997 39.0433C96.5477 39.0433 96.6797 38.3445 96.6797 37.4583ZM45.7457 47.0505H48.2817C50.3877 47.0505 51.5837 47.7312 51.5837 49.8699C51.5837 51.1407 51.2717 52.0308 50.2837 52.4356L51.7517 57.6597H49.8277L48.5677 52.8022H47.6577V57.6597H45.7457V47.0505ZM48.2677 51.5918C49.3737 51.5918 49.7757 51.1085 49.7757 49.9686C49.7757 48.8952 49.4777 48.3716 48.3757 48.3716H47.6617V51.5938L48.2677 51.5918ZM52.6497 47.0505H57.0697V48.4119H54.5597V51.4609H56.5357V52.8102H54.5597V56.3305H57.0957V57.6536H52.6497V47.0505ZM57.5617 54.5643L59.2137 54.2361C59.2657 55.4927 59.5637 56.3043 60.4137 56.3043C61.0237 56.3043 61.2857 55.8854 61.2857 55.3095C61.2857 54.3931 60.8157 53.8836 60.1277 53.2815L58.7997 52.1154C58.0457 51.4609 57.5777 50.7279 57.5777 49.5497C57.5777 47.8742 58.6177 46.9317 60.2957 46.9317C62.2717 46.9317 62.8297 48.2669 62.9337 49.8115L61.2837 50.0995C61.2437 49.1047 61.1017 48.3595 60.2557 48.3595C59.6837 48.3595 59.3717 48.7905 59.3717 49.3544C59.3717 50.0733 59.6717 50.4661 60.2297 50.9514L61.5437 52.1154C62.4017 52.8626 63.1157 53.791 63.1157 55.1926C63.1157 56.7232 62.0497 57.7966 60.4777 57.7966C58.5517 57.7986 57.6397 56.6708 57.5617 54.5643ZM63.8537 47.0505H66.9477C68.8337 47.0505 69.6397 48.1501 69.6397 50.0713C69.6397 52.1517 68.5217 52.9512 66.8177 52.9512H65.7657V57.6637H63.8537V47.0505ZM66.5057 51.5797C67.5597 51.5797 67.8317 51.177 67.8317 50.0472C67.8317 48.9174 67.6897 48.4119 66.5057 48.4119H65.7657V51.5797H66.5057ZM70.1457 54.3287V50.3472C70.1457 48.2004 70.9257 46.9236 73.1877 46.9236C75.4497 46.9236 76.2177 48.1944 76.2177 50.3472V54.3267C76.2177 56.4594 75.4377 57.7946 73.1877 57.7946C70.9377 57.7946 70.1457 56.4755 70.1457 54.3287ZM74.2677 54.7778V49.9042C74.2677 49.014 74.1237 48.3454 73.1877 48.3454C72.2517 48.3454 72.0957 49.014 72.0957 49.9042V54.7778C72.0957 55.6558 72.2397 56.3627 73.1877 56.3627C74.1357 56.3627 74.2677 55.6639 74.2677 54.7778ZM77.2437 47.0505H78.5837L81.1437 53.0922V47.0505H82.7297V57.6536H81.4557L78.8817 51.3179V57.6536H77.2437V47.0505ZM83.6797 54.5643L85.3297 54.2361C85.3817 55.4927 85.6817 56.3043 86.5297 56.3043C87.1417 56.3043 87.4017 55.8854 87.4017 55.3095C87.4017 54.3931 86.9337 53.8836 86.2437 53.2815L84.9177 52.1154C84.1637 51.4609 83.6957 50.7279 83.6957 49.5497C83.6957 47.8742 84.7357 46.9317 86.4137 46.9317C88.3897 46.9317 88.9477 48.2669 89.0517 49.8115L87.3997 50.0995C87.3597 49.1047 87.2177 48.3595 86.3717 48.3595C85.7997 48.3595 85.4877 48.7905 85.4877 49.3544C85.4877 50.0733 85.7877 50.4661 86.3457 50.9514L87.6597 52.1154C88.5177 52.8626 89.2317 53.791 89.2317 55.1926C89.2317 56.7232 88.1657 57.7966 86.5937 57.7966C84.6677 57.7986 83.7577 56.6708 83.6797 54.5643ZM91.4917 47.0505H93.5457L95.6517 57.6536H93.8717L93.4557 55.2047H91.6217L91.1997 57.6536H89.3997L91.4917 47.0505ZM93.2477 53.9722L92.5317 49.5215L91.8177 53.9722H93.2477ZM92.7797 43.7014H94.5797L93.0317 46.3195H91.9997L92.7797 43.7014ZM95.4317 47.0505H97.1217L98.5117 54.5502L99.8257 47.0505H101.554L99.4357 57.6536H97.5497L95.4317 47.0505ZM102.244 47.0505H106.664V48.4119H104.154V51.4609H106.13V52.8102H104.154V56.3305H106.69V57.6536H102.244V47.0505ZM107.47 47.0505H109.368V57.6536H107.47V47.0505ZM110.342 54.5643L111.994 54.2361C112.046 55.4927 112.344 56.3043 113.194 56.3043C113.794 56.3043 114.064 55.8854 114.064 55.3095C114.064 54.3931 113.596 53.8836 112.908 53.2815L111.582 52.1154C110.826 51.4609 110.358 50.7279 110.358 49.5497C110.358 47.8742 111.4 46.9317 113.076 46.9317C115.052 46.9317 115.612 48.2669 115.716 49.8115L114.064 50.0995C114.026 49.1047 113.882 48.3595 113.038 48.3595C112.466 48.3595 112.154 48.7905 112.154 49.3544C112.154 50.0733 112.452 50.4661 113.012 50.9514L114.324 52.1154C115.182 52.8626 115.898 53.791 115.898 55.1926C115.898 56.7232 114.832 57.7966 113.258 57.7966C111.33 57.7986 110.42 56.6708 110.342 54.5643ZM108.822 75.253C102.422 70.1579 93.9237 70.0531 90.8217 70.7983L90.4617 70.8829C86.8717 71.7367 81.1677 73.1485 74.4917 81.492C74.4537 81.5383 74.4157 81.5847 74.3797 81.633L74.2957 81.7357C74.2255 81.8292 74.1863 81.9427 74.1837 82.0599C74.1839 82.1579 74.2086 82.2542 74.2557 82.3399L74.4117 82.5977C75.2497 84.0074 76.3057 85.8199 77.1997 87.4995C77.2089 87.5156 77.2169 87.5325 77.2237 87.5498C77.2718 87.6445 77.3447 87.7241 77.4347 87.7799C77.5246 87.8357 77.6281 87.8654 77.7337 87.866C77.883 87.8677 78.0268 87.8098 78.1337 87.7049C78.1757 87.6505 78.2177 87.5921 78.2557 87.5337C84.1817 79.2767 88.8397 78.1429 91.9917 77.3958L92.3697 77.3072C94.0057 76.9044 100.226 76.9346 104.716 80.5052C108.22 83.2904 110 87.723 110 93.6781C110 103.669 105.174 107.574 101.124 109.096C94.8517 111.459 88.8357 108.291 88.7917 108.277L88.5217 108.146C85.0757 106.639 79.9337 103.514 75.0857 93.7022C65.3037 73.948 57.1337 72.0972 51.7277 70.8547L51.4377 70.7902C48.9757 70.2283 40.4257 69.8296 33.7057 75.2308C30.1937 78.0503 26.0117 83.5361 26.0117 93.6398C26.0117 99.7943 27.2677 103.86 30.4957 108.14C31.2037 109.115 38.4377 118.473 52.4237 115.772C54.6617 115.341 57.6957 114.266 61.0237 111.745L64.1017 114.54C64.2006 114.628 64.3297 114.674 64.4616 114.668C64.5935 114.661 64.7177 114.603 64.8077 114.506C64.8909 114.414 64.9354 114.293 64.9317 114.169V114.127L67.1517 100.372V100.219C67.151 100.15 67.136 100.082 67.1078 100.019C67.0796 99.9556 67.0387 99.899 66.9877 99.8527C66.899 99.7707 66.7821 99.7266 66.6617 99.7298H66.5657L66.4217 99.7459L53.3377 103.433L53.0997 103.474C53.0023 103.493 52.9142 103.545 52.8497 103.621C52.8049 103.67 52.7703 103.727 52.7478 103.789C52.7253 103.852 52.7155 103.918 52.7189 103.985C52.7222 104.051 52.7387 104.116 52.7673 104.176C52.796 104.236 52.8362 104.29 52.8857 104.334L53.0397 104.477L55.9717 107.143C54.0777 108.377 52.4277 108.943 51.1717 109.189C41.0517 111.132 36.0557 104.46 35.8657 104.199L35.7997 104.118C33.4477 101.011 32.6537 98.3684 32.6537 93.6458C32.6537 87.6727 34.4017 83.2361 37.8537 80.4649C42.2297 76.9487 48.2657 76.9286 49.9697 77.3192L50.2637 77.3857C54.6937 78.3927 60.7657 79.7782 69.1257 96.6908C73.4697 105.471 78.9077 111.213 85.7537 114.24C89.0037 115.824 92.5649 116.655 96.1757 116.673C98.6532 116.68 101.112 116.241 103.436 115.376C107.404 113.885 116.636 108.79 116.636 93.6841C116.636 83.5885 112.39 78.0926 108.836 75.259" fill="white"/>
</g>
<defs>
<clipPath id="clip0_68_614">
<rect width="144" height="145" rx="15" fill="white"/>
</clipPath>
</defs>
</svg>
