<svg width="145" height="145" viewBox="0 0 145 145" fill="none" xmlns="http://www.w3.org/2000/svg">
<g clip-path="url(#clip0_68_618)">
<path d="M-0.216797 145.02L-0.216797 -0.217514H145.021V145.02H-0.216797Z" fill="#3F7E44"/>
<path d="M10.2947 17.9095C9.46497 18.3546 7.11073 19.0051 6.28906 19.4159V15.4787C7.38462 15.0337 10.4316 13.5615 11.4587 12.4317H15.6013V40.163H10.2947V17.9095ZM16.0806 32.2544V31.2958H21.3469V32.2222C21.3811 34.9269 21.8605 36.1936 23.6065 36.1936C25.3868 36.1936 25.7634 34.8242 25.7634 32.188C25.7634 29.4149 25.1129 27.84 22.6821 27.7715C22.3754 27.7358 22.0663 27.7244 21.7577 27.7373V23.8666H22.5794C25.0444 23.8666 25.7634 22.5999 25.7634 19.7583C25.7634 17.543 25.2498 16.2662 23.5038 16.2662C21.7577 16.2662 21.3872 17.7726 21.3469 19.9375V21.17H16.0806V19.6556C16.0806 14.794 18.8195 12.0551 23.5098 12.0551C28.2344 12.0551 30.9733 14.6571 30.9733 19.4844C30.9733 22.7368 29.4669 24.9964 27.4812 25.5442C29.4951 26.2974 30.9733 28.1461 30.9733 32.0833C30.9733 37.118 28.9594 40.6423 23.5441 40.6423C17.9978 40.6423 16.0806 37.2872 16.0806 32.2544ZM48.2525 12.4116H50.3207L52.4414 23.0147H50.647L50.2281 20.5658H48.3834L47.9504 23.0147H46.1379L48.2525 12.4116ZM50.0186 19.3333L49.2997 14.8826L48.5787 19.3333H50.0186ZM56.9041 16.234V15.3176C56.9041 14.4275 56.892 13.7065 55.9093 13.7065C54.9265 13.7065 54.8238 14.4658 54.8238 15.4344V20.0301C54.8238 21.1821 55.0594 21.7319 55.9093 21.7319C56.8659 21.7319 56.9041 20.9847 56.9041 20.0422V19.0876H58.7629V19.9375C58.7629 21.7319 58.187 23.053 56.159 23.1597V23.8142C57.1277 23.8142 57.7822 24.2472 57.7822 25.0588C57.7822 25.9872 56.9565 26.3799 56.0019 26.3799C55.6826 26.3768 55.3653 26.3287 55.0594 26.2369V25.4112C55.2882 25.4825 55.5267 25.5178 55.7663 25.516C56.2234 25.516 56.5718 25.3851 56.5718 25.0326C56.5718 24.5614 56.0361 24.3902 55.4199 24.3258V23.1335C53.4825 22.9322 52.8804 21.5365 52.8804 19.6253V15.8413C52.8804 13.6683 53.5752 12.2928 55.9012 12.2928C58.0742 12.2928 58.767 13.5011 58.767 15.3438V16.234H56.9041ZM61.3025 12.4116H63.3707L65.4914 23.0147H63.699L63.2801 20.5658H61.4334L61.0024 23.0147H59.1899L61.3025 12.4116ZM61.7052 10.3977C61.3649 10.3977 61.2461 10.5991 61.2461 10.9354H60.3298C60.3298 9.99292 60.5916 9.28604 61.4434 9.28604C62.0839 9.28604 62.5168 9.89021 63.0787 9.89021C63.3808 9.89021 63.4976 9.70694 63.4976 9.3666H64.3616C64.3616 10.1903 64.2186 11.016 63.3667 11.016C62.69 11.024 62.245 10.4078 61.7093 10.4078L61.7052 10.3977ZM63.0707 19.3333L62.3497 14.8826L61.6247 19.3333H63.0707ZM65.8841 19.6898V15.7083C65.8841 13.5615 66.6695 12.2847 68.9472 12.2847C71.2249 12.2847 71.9982 13.5555 71.9982 15.7083V19.6898C71.9982 21.8225 71.2128 23.1577 68.9472 23.1577C66.6816 23.1577 65.8841 21.8366 65.8841 19.6898ZM70.0347 20.1389V15.2653C70.0347 14.3751 69.8897 13.7065 68.9472 13.7065C68.0047 13.7065 67.8476 14.3751 67.8476 15.2653V20.1389C67.8476 21.0169 67.9926 21.7238 68.9472 21.7238C69.9018 21.7238 70.0347 21.025 70.0347 20.1389ZM75.6494 19.6233V15.8413C75.6494 13.6683 76.3422 12.2928 78.6702 12.2928C80.8452 12.2928 81.538 13.5011 81.538 15.3438V16.234H79.6792V15.3176C79.6792 14.4275 79.6651 13.7065 78.6843 13.7065C77.7036 13.7065 77.5968 14.4658 77.5968 15.4344V20.0301C77.5968 21.1821 77.8325 21.7319 78.6843 21.7319C79.6389 21.7319 79.6792 20.9847 79.6792 20.0422V19.0876H81.538V19.9375C81.538 21.8104 80.9097 23.1597 78.6702 23.1597C76.3422 23.1597 75.6494 21.6916 75.6494 19.6233ZM82.3254 19.6898V15.7083C82.3254 13.5615 83.1109 12.2847 85.3886 12.2847C87.6663 12.2847 88.4376 13.5555 88.4376 15.7083V19.6898C88.4376 21.8225 87.6522 23.1577 85.3886 23.1577C83.125 23.1577 82.3254 21.8366 82.3254 19.6898ZM86.4741 20.1469V15.2653C86.4741 14.3751 86.3311 13.7065 85.3886 13.7065C84.4461 13.7065 84.289 14.3751 84.289 15.2653V20.1389C84.289 21.0169 84.432 21.7238 85.3886 21.7238C86.3452 21.7238 86.4741 21.025 86.4741 20.1389V20.1469ZM89.4727 12.4116H90.8261L93.4059 18.4533V12.4116H95.0029V23.0147H93.72L91.1221 16.679V23.0147H89.4727V12.4116ZM97.2705 13.8374H95.5809V12.4116H100.857V13.8374H99.2079V23.0147H97.2705V13.8374ZM101.437 12.4116H103.989C106.109 12.4116 107.314 13.0923 107.314 15.231C107.314 16.5018 107 17.3919 106.005 17.7967L107.485 23.0208H105.548L104.277 18.1633H103.361V23.0208H101.437V12.4116ZM103.977 16.9529C105.088 16.9529 105.495 16.4696 105.495 15.3297C105.495 14.2563 105.193 13.7327 104.086 13.7327H103.365V16.9549L103.977 16.9529ZM109.972 12.4116H112.04L114.161 23.0147H112.375L111.956 20.5658H110.111L109.678 23.0147H107.866L109.972 12.4116ZM111.738 19.3333L111.019 14.8826L110.298 19.3333H111.738ZM119.2 12.4116H121.268L123.389 23.0147H121.596L121.177 20.5658H119.331L118.9 23.0147H117.087L119.2 12.4116ZM120.968 19.3333L120.247 14.8826L119.528 19.3333H120.968ZM46.8246 29.731H48.8385L50.3429 37.0737L51.9016 29.731H53.8511L54.0525 40.3342H52.6125L52.4555 32.9633L50.9491 40.3342H49.785L48.2525 32.9372L48.1095 40.3342H46.6414L46.8246 29.731ZM55.138 36.9045V29.731H57.0229V37.126C57.0229 38.133 57.1398 39.0372 58.1225 39.0372C59.1053 39.0372 59.2342 38.135 59.2342 37.126V29.731H61.1071V36.9045C61.1071 39.1299 60.4909 40.4772 58.1225 40.4772C55.7542 40.4772 55.138 39.1299 55.138 36.9045ZM62.2289 29.731H64.7281C67.3079 29.731 68.0933 30.7642 68.0933 33.0298V36.8904C68.0933 39.2205 67.2877 40.3342 64.8066 40.3342H62.2289V29.731ZM64.7543 38.9949C66.0774 38.9949 66.1298 38.2881 66.1298 36.9669V32.8989C66.1298 31.6281 65.9988 31.1045 64.72 31.1045H64.1441V38.9849L64.7543 38.9949ZM70.6368 29.731H72.7011L74.8217 40.3342H73.0273L72.6084 37.8853H70.7677L70.3348 40.3342H68.5223L70.6368 29.731ZM72.403 36.6528L71.6941 32.2041L70.9631 36.6528H72.403ZM75.4923 29.731H76.8416L79.4194 35.7727V29.731H81.0164V40.3342H79.7336L77.1417 33.9985V40.3342H75.4923V29.731ZM86.0955 33.5534V32.6371C86.0955 31.7469 86.0834 31.026 85.1006 31.026C84.1178 31.026 84.0151 31.7852 84.0151 32.7539V37.3496C84.0151 38.5015 84.2507 39.0513 85.1006 39.0513C86.0572 39.0513 86.0955 38.3042 86.0955 37.3617V36.4071H87.9543V37.2569C87.9543 39.0513 87.3783 40.3724 85.3503 40.4792V41.1337C86.319 41.1337 86.9735 41.5667 86.9735 42.3783C86.9735 43.3067 86.1478 43.6994 85.1932 43.6994C84.8739 43.6962 84.5566 43.6481 84.2507 43.5564V42.7307C84.4795 42.8019 84.718 42.8373 84.9576 42.8354C85.4147 42.8354 85.7632 42.7045 85.7632 42.3521C85.7632 41.8808 85.2275 41.7097 84.6112 41.6452V40.453C82.6739 40.2516 82.0717 38.856 82.0717 36.9448V33.1607C82.0717 30.9877 82.7665 29.6122 85.0925 29.6122C87.2655 29.6122 87.9583 30.8206 87.9583 32.6633V33.5534H86.0955ZM90.4938 29.731H92.562L94.6827 40.3342H92.8903L92.4714 37.8853H90.6247L90.1917 40.3342H88.3792L90.4938 29.731ZM92.26 36.6528L91.541 32.2021L90.8261 36.6528H92.26ZM97.9673 36.8381V33.2775C97.9673 30.9998 98.6621 29.6122 100.988 29.6122C103.161 29.6122 103.92 30.738 103.92 32.7015V33.2513H102.074V32.6472C102.074 31.6261 101.969 31.024 101.014 31.024C99.9933 31.024 99.9147 31.8497 99.9147 32.8183V37.2489C99.9147 38.3485 100.116 39.0433 101.067 39.0433C102.017 39.0433 102.231 38.3102 102.231 37.1583V36.1634H101.097V34.945H103.977V40.3261H102.72L102.589 39.291C102.301 39.9717 101.784 40.4691 100.795 40.4691C98.7004 40.4792 97.9673 39.0694 97.9673 36.8381ZM105.062 29.731H106.988V39.011H109.565V40.3342H105.062V29.731ZM109.879 37.0092V33.0278C109.879 30.881 110.665 29.6042 112.943 29.6042C115.22 29.6042 116 30.883 116 33.0278V37.0072C116 39.1399 115.214 40.4751 112.949 40.4751C110.683 40.4751 109.879 39.156 109.879 37.0092ZM114.03 37.4583V32.5847C114.03 31.6946 113.885 31.026 112.943 31.026C112 31.026 111.843 31.6946 111.843 32.5847V37.4583C111.843 38.3364 111.988 39.0433 112.943 39.0433C113.897 39.0433 114.03 38.3444 114.03 37.4583ZM117.027 29.731H119.645C121.504 29.731 122.748 30.3594 122.748 32.4538C122.748 33.7487 122.211 34.4677 121.216 34.6268C122.46 34.8624 123.048 35.7526 123.048 37.2449C123.048 39.2728 122.053 40.3342 120.09 40.3342H117.027V29.731ZM119.625 34.0629C120.777 34.0629 121.079 33.5534 121.079 32.48C121.079 31.3542 120.529 31.0703 119.351 31.0703H118.948V34.0549L119.625 34.0629ZM119.703 38.9728C120.881 38.9728 121.21 38.423 121.21 37.2308C121.21 35.9741 120.791 35.3981 119.639 35.3981H118.958V38.9728H119.703ZM125.497 29.731H127.565L129.694 40.3342H127.9L127.479 37.8853H125.634L125.201 40.3342H123.389L125.497 29.731ZM127.263 36.6528L126.544 32.2021L125.823 36.6528H127.263ZM130.353 29.731H132.278V39.011H134.856V40.3342H130.353V29.731ZM46.6675 47.0505H49.1688C51.7466 47.0505 52.532 48.0836 52.532 50.3492V54.2099C52.532 56.5399 51.7264 57.6536 49.2473 57.6536H46.6675V47.0505ZM49.195 56.3043C50.5161 56.3043 50.5684 55.5974 50.5684 54.2763V50.2183C50.5684 48.9476 50.4375 48.424 49.1688 48.424H48.5928V56.3043H49.195ZM53.3959 54.3287V50.3472C53.3959 48.2004 54.1814 46.9236 56.4591 46.9236C58.7368 46.9236 59.5101 48.1944 59.5101 50.3472V54.3267C59.5101 56.4594 58.7247 57.7946 56.4591 57.7946C54.1934 57.7946 53.3959 56.4755 53.3959 54.3287ZM57.5466 54.7778V49.9042C57.5466 49.014 57.4016 48.3454 56.4591 48.3454C55.5166 48.3454 55.3595 49.014 55.3595 49.9042V54.7778C55.3595 55.6558 55.5045 56.3627 56.4591 56.3627C57.4136 56.3627 57.5466 55.6639 57.5466 54.7778ZM63.1613 54.2622V50.4801C63.1613 48.3072 63.8561 46.9317 66.1821 46.9317C68.3551 46.9317 69.0479 48.14 69.0479 49.9827V50.8728H67.1891V49.9565C67.1891 49.0664 67.177 48.3454 66.1942 48.3454C65.2114 48.3454 65.1087 49.1047 65.1087 50.0733V54.669C65.1087 55.821 65.3443 56.3708 66.1942 56.3708C67.1508 56.3708 67.1891 55.6236 67.1891 54.6811V53.7265H69.0479V54.5764C69.0479 56.4493 68.4195 57.7986 66.1821 57.7986C63.8561 57.7986 63.1613 56.3305 63.1613 54.2622ZM70.0065 47.0505H71.9318V56.3305H74.5136V57.6536H70.0065V47.0505ZM75.1782 47.0505H77.0893V57.6536H75.1782V47.0505ZM78.489 47.0505H80.4928L81.9972 54.3931L83.5559 47.0505H85.5054L85.7068 57.6536H84.2668L84.1097 50.2828L82.6034 57.6536H81.4393L79.9068 50.2566L79.7638 57.6536H78.3098L78.489 47.0505ZM88.4638 47.0505H90.532L92.6527 57.6536H90.8603L90.4414 55.2047H88.5947L88.1637 57.6536H86.3512L88.4638 47.0505ZM90.232 53.9722L89.511 49.5215L88.792 53.9722H90.232ZM127.193 94.0104C123.35 88.6111 105.969 67.0262 73.6033 66.9819C41.2381 66.9376 23.7958 88.4701 19.9372 93.8653C19.772 94.0949 19.6311 94.2963 19.5143 94.4695C19.6311 94.6447 19.77 94.8441 19.9352 95.0737C23.7817 100.475 41.1595 122.06 73.5308 122.1C105.902 122.14 123.334 100.608 127.191 95.2167C127.36 94.9831 127.499 94.7857 127.61 94.6125C127.499 94.4433 127.36 94.244 127.193 94.0083M55.5286 80.5878C55.8207 80.1608 56.7914 78.9404 56.9102 78.7753C57.1599 78.4551 57.6553 78.3906 58.0017 78.3282C58.3481 78.2658 58.8073 78.4571 58.8576 78.7149C58.9079 78.9726 58.7247 79.9756 58.5535 80.1488C58.0782 80.6401 56.8417 81.3329 56.161 81.2242C55.6354 81.1416 55.428 80.7328 55.5286 80.5777M54.3747 82.8856C54.425 82.8252 54.4714 82.7749 54.4915 82.7507C54.8943 82.2875 55.7099 82.1888 56.2698 82.1022C56.8296 82.0156 57.5788 82.2895 57.6694 82.6641C57.76 83.0387 56.2597 83.7133 55.9858 83.9671C55.2064 84.684 53.984 86.1441 53.2711 86.2992C53.076 86.3487 52.8698 86.3273 52.6891 86.2387C53.1562 85.0759 53.72 83.9542 54.3747 82.8856ZM66.458 107.753C66.017 109.477 65.5054 110.097 65.0684 110.639C64.6314 111.181 63.0163 111.888 61.9912 111.811C60.9661 111.735 60.8272 108.992 60.8292 107.582C60.8292 107.095 60.1404 108.537 59.784 105.606C59.5584 103.729 58.3501 105.808 58.2675 104.549C58.185 103.29 57.5828 103.542 56.9505 102.767C56.3181 101.991 55.5407 102.841 54.6566 103.234C53.7725 103.627 54.1411 103.838 52.8985 103.435C52.8663 103.435 52.8502 103.417 52.82 103.405C51.6502 100.627 51.0516 97.6412 51.0598 94.6266C51.0598 93.8653 51.1021 93.1182 51.1746 92.3771C51.215 92.3061 51.2615 92.2387 51.3136 92.1757C52.5098 90.766 52.4836 90.4357 52.4836 90.4357L53.8027 89.9806C55.0575 90.1829 56.2926 90.4928 57.4942 90.9069C58.8012 91.4003 60.8594 92.5181 62.0557 92.0247C62.9216 91.6682 63.6003 91.197 63.5198 90.476C63.4231 89.5717 62.7142 89.3562 61.8482 89.9644C61.53 90.188 60.8554 88.601 60.3237 88.6796C59.792 88.7581 60.9782 90.5465 60.5251 90.621C60.072 90.6955 59.1677 88.7581 59.0127 88.444C58.8576 88.1298 58.1608 87.3524 57.5305 87.9445C56.1993 89.2072 54.0404 89.1267 53.6054 89.4509C52.2843 90.4377 51.9379 89.1246 51.9681 88.3251C52.0204 88.1419 52.0748 87.9566 52.1332 87.7774C52.5662 87.3021 54.1129 87.147 54.6445 87.5015C55.2266 87.8922 55.6515 87.4028 55.873 87.1672C56.0945 86.9315 56.0241 86.563 55.873 86.2508C55.722 85.9387 56.165 85.7071 56.4671 85.6285C56.7692 85.55 57.7782 84.8451 58.1789 84.6115C58.5797 84.3779 60.6681 84.1282 61.6025 84.5974C61.9722 84.7938 62.3984 84.8561 62.8088 84.7739C63.2193 84.6917 63.5886 84.4699 63.8541 84.1463C64.3143 83.5993 64.868 83.1384 65.4893 82.7849C65.8176 82.6339 64.6838 81.5766 63.7554 82.7265C62.827 83.8765 62.3457 83.9751 61.9086 83.9751C61.4716 83.9751 58.8697 83.3206 58.5495 82.497C58.2293 81.6733 59.355 81.061 60.3277 80.5978C61.3004 80.1347 63.9165 80.1508 64.5891 79.9937C65.9545 79.6956 67.7026 79.0109 68.5827 79.611C69.4627 80.2112 64.9053 81.2322 66.3996 82.0418C66.9313 82.3338 69.3399 80.6603 70.1636 80.2293C72.105 79.2324 68.2866 78.8961 68.7841 76.8641C69.3479 74.5663 64.1018 75.4544 61.4857 75.6396C64.5164 73.7071 67.9653 72.5273 71.5446 72.1985C75.124 71.8698 78.73 72.4017 82.062 73.7499C85.394 75.0981 88.3553 77.2235 90.6989 79.9489C93.0425 82.6742 94.7005 85.9204 95.5345 89.4167C95.5467 89.7679 95.5094 90.119 95.4238 90.4599C95.2224 91.2654 93.6757 91.9683 92.7816 90.6613C92.556 90.331 91.5893 89.4167 91.6195 90.9774C91.6497 92.5382 93.136 92.7033 91.6941 93.6398C90.2521 94.5762 89.9883 94.3487 89.3217 94.5843C88.6551 94.8199 88.0107 96.427 88.1677 97.289C88.3248 98.1509 90.383 100.511 88.8565 100.404C88.498 100.376 85.8054 98.5335 85.3624 97.3494C84.8952 96.1028 84.3857 94.8824 84.0232 93.9419C83.6607 93.0014 82.7061 92.7658 81.8985 93.3156C81.0909 93.8653 82.122 94.4131 81.542 95.5872C80.962 96.7613 80.5532 97.8025 79.7074 96.8358C77.5102 94.3104 74.3102 95.549 73.8127 92.7436C73.5429 91.2211 72.2338 91.3661 71.1383 90.5022C70.0427 89.6382 69.4265 89.177 69.2412 89.7973C69.0761 90.341 72.6829 93.2068 72.9387 93.9419C73.3193 95.0314 71.8552 95.99 70.7818 96.2458C69.7084 96.5015 69.2473 95.6416 68.198 94.5481C67.1488 93.4545 66.6896 92.6711 66.6151 93.529C66.5084 94.7696 67.61 96.5942 68.6793 97.2769C69.5896 97.8549 70.6127 98.1187 70.3146 99.0551C70.0166 99.9916 70.3146 99.4579 69.2855 100.465C68.2564 101.472 68.0651 101.808 68.1376 103.21C68.2101 104.611 67.8436 104.7 67.622 105.87C67.4005 107.04 66.893 106.027 66.45 107.743M90.6488 98.7853C91.4081 98.7249 92.5439 99.7761 92.0988 100.179C91.6538 100.582 90.5179 100.431 89.95 99.9775C89.3821 99.5244 90.3085 98.8054 90.6488 98.7792M89.6923 98.0844C89.4486 97.9938 89.2351 97.7622 89.0518 97.2084C88.8686 96.6546 89.3338 96.3404 89.7889 96.564C90.2441 96.7875 90.8502 97.4903 90.8502 97.8589C90.8502 98.2274 89.94 98.1831 89.6923 98.0844ZM79.7497 98.0482C79.3026 98.451 78.1627 98.2979 77.5928 97.8468C77.0229 97.3957 77.9553 96.6747 78.2936 96.6485C79.0529 96.5821 80.1907 97.6434 79.7497 98.0442M70.5261 102.507C70.2159 103.014 69.362 106.805 68.7941 106.362C68.2262 105.918 69.0298 101.965 69.1969 101.665C70.0891 100.032 72.0163 100.114 70.5281 102.507M73.5731 117.208C71.4283 117.205 69.295 116.895 67.2374 116.29C67.0766 116.162 66.9628 115.985 66.9136 115.786C66.8644 115.586 66.8827 115.376 66.9655 115.188C67.6663 113.376 69.7447 112.661 71.386 112.506C75.0412 112.153 79.8443 114.89 80.6096 114.451C81.3749 114.012 82.9236 112.004 85.1932 112.091C86.7399 112.153 86.7278 112.413 87.2474 112.609C83.3185 115.604 78.5116 117.221 73.5711 117.208M89.4808 110.665C89.2373 110.601 89.0006 110.513 88.7739 110.403C87.5434 109.775 87.6904 110.776 87.0843 110.554C86.4781 110.333 87.771 108.925 85.9504 110.111C84.1299 111.298 84.6293 109.926 83.8419 107.918C83.0545 105.91 84.7582 103.625 86.1941 103.111C88.1536 102.404 89.37 102.261 90.2884 102.036C92.9991 101.363 93.573 99.756 94.0644 100.735C94.157 100.918 94.2457 101.093 94.3262 101.256C94.5458 101.716 94.664 102.217 94.6726 102.726C93.5289 105.713 91.7632 108.421 89.4929 110.673M95.6856 99.2988C95.0814 99.1317 92.554 95.6295 94.5578 93.3276C94.8921 92.949 93.8892 91.8353 94.155 91.8132C95.2506 91.7286 95.8326 92.4174 96.1186 93.3901C96.1387 93.821 96.1568 94.256 96.1548 94.6971C96.1522 96.2432 95.9923 97.7851 95.6775 99.2988" fill="white"/>
</g>
<defs>
<clipPath id="clip0_68_618">
<rect width="145" height="145" rx="15" fill="white"/>
</clipPath>
</defs>
</svg>
