<svg width="144" height="145" viewBox="0 0 144 145" fill="none" xmlns="http://www.w3.org/2000/svg">
<g clip-path="url(#clip0_68_622)">
<path d="M-0.216797 -0.217499H144.215V145.217H-0.216797V-0.217499Z" fill="#0A97D9"/>
<path d="M9.8237 17.9095C8.9997 18.3546 6.6617 19.0051 5.8457 19.4159V15.4787C6.9337 15.0337 9.9597 13.5615 10.9797 12.4317H15.0937V40.163H9.8237V17.9095ZM23.5997 33.6581H15.2297V29.5498L22.4037 12.4317H28.4897V29.6525H31.1757V33.6581H28.4897V40.163H23.5997V33.6581ZM23.5997 29.6525V17.8753L19.3777 29.6525H23.5997ZM45.4517 12.4116H47.1417L48.5417 19.9113L49.8537 12.4116H51.5837L49.4637 23.0147H47.5797L45.4517 12.4116ZM52.3157 12.4116H54.2137V23.0147H52.3157V12.4116ZM55.4497 12.4116H57.9317C60.4937 12.4116 61.2737 13.4447 61.2737 15.7103V19.571C61.2737 21.901 60.4737 23.0147 58.0097 23.0147H55.4497V12.4116ZM57.9577 21.6654C59.2717 21.6654 59.3237 20.9585 59.3237 19.6374V15.5794C59.3237 14.3087 59.1937 13.7851 57.9237 13.7851H57.3597V21.6654H57.9577ZM63.7997 12.4116H65.8537L67.9597 23.0147H66.1777L65.7617 20.5658H63.9297L63.4997 23.0147H61.6997L63.7997 12.4116ZM65.5497 19.3333L64.8357 14.8826L64.1197 19.3333H65.5497ZM71.3857 12.4116H72.7257L75.2857 18.4533V12.4116H76.8737V23.0147H75.5997L73.0237 16.679V23.0147H71.3857V12.4116ZM79.6537 12.4116H81.7077L83.8157 23.0147H82.0337L81.6177 20.5658H79.7837L79.3557 23.0147H77.5557L79.6537 12.4116ZM81.4097 19.3333L80.6937 14.8826L79.9797 19.3333H81.4097ZM47.5197 29.731H49.5737L51.6797 40.3342H49.8977L49.4817 37.8853H47.6497L47.2197 40.3342H45.4197L47.5197 29.731ZM49.2737 36.6528L48.5597 32.2021L47.8437 36.6528H49.2737ZM48.7997 26.3819H50.5997L49.0537 29H48.0257L48.7997 26.3819ZM52.0697 36.838V33.2775C52.0697 30.9998 52.7577 29.6122 55.0697 29.6122C57.2277 29.6122 57.9817 30.738 57.9817 32.7015V33.2513H56.1497V32.6471C56.1497 31.6261 56.0457 31.024 55.0957 31.024C54.0817 31.024 54.0037 31.8496 54.0037 32.8183V37.2489C54.0037 38.3485 54.2037 39.0433 55.1477 39.0433C56.0917 39.0433 56.3057 38.3102 56.3057 37.1583V36.1634H55.1737V34.945H58.0337V40.3261H56.7857L56.6557 39.291C56.5257 39.6549 56.2818 39.9665 55.9609 40.179C55.6399 40.3914 55.2591 40.4932 54.8757 40.4691C52.7997 40.4792 52.0697 39.0694 52.0697 36.838ZM59.0377 36.9045V29.731H60.9097V37.126C60.9097 38.133 61.0257 39.0372 62.0017 39.0372C62.9777 39.0372 63.1057 38.135 63.1057 37.126V29.731H64.9657V36.9045C64.9657 39.1299 64.3537 40.4771 62.0017 40.4771C59.6497 40.4771 59.0377 39.1299 59.0377 36.9045ZM67.5997 29.731H69.6537L71.7597 40.3342H69.9797L69.5637 37.8853H67.7297L67.3017 40.3342H65.5017L67.5997 29.731ZM69.3597 36.6528L68.6437 32.2021L67.9297 36.6528H69.3597ZM110.856 106.049C109.03 103.566 97.2337 88.4218 80.6957 88.4218C66.3357 88.4218 50.9737 101.538 50.9737 101.538C50.9737 101.538 45.1997 89.6442 33.3997 88.5023C33.3317 88.5023 33.2577 88.4862 33.1797 88.4862H33.1057C32.9857 88.4938 32.8729 88.5464 32.7896 88.6336C32.7062 88.7209 32.6585 88.8365 32.6557 88.9575C32.6902 89.1126 32.7526 89.26 32.8397 89.3925C34.3617 91.936 38.2397 99.1719 38.2397 106.402C38.2397 113.632 34.3337 120.902 32.8277 123.443L32.7257 123.604C32.678 123.679 32.6523 123.766 32.6517 123.854C32.6524 123.973 32.6977 124.088 32.7785 124.175C32.8593 124.262 32.9697 124.315 33.0877 124.323L33.2137 124.311C33.2549 124.316 33.2965 124.316 33.3377 124.311C45.1797 123.2 50.9717 111.269 50.9717 111.269C50.9717 111.269 66.3337 124.386 80.6937 124.386C97.2317 124.386 109.028 109.243 110.854 106.764C110.904 106.698 110.944 106.637 110.98 106.593C111.005 106.536 111.018 106.474 111.018 106.412C111.018 106.349 111.005 106.288 110.98 106.231C110.944 106.18 110.904 106.122 110.854 106.059M89.8917 108.315C88.9375 108.314 88.0052 108.028 87.2124 107.493C86.4196 106.959 85.8019 106.199 85.4375 105.311C85.0731 104.423 84.9783 103.447 85.165 102.504C85.3517 101.562 85.8117 100.697 86.4866 100.018C87.1616 99.3388 88.0213 98.8764 88.9572 98.6891C89.893 98.5019 90.863 98.5982 91.7445 98.9659C92.6261 99.3335 93.3796 99.9561 93.9098 100.755C94.4401 101.554 94.7233 102.493 94.7237 103.453C94.7237 104.092 94.5987 104.725 94.3558 105.315C94.1129 105.905 93.7569 106.441 93.3082 106.893C92.8595 107.344 92.3268 107.702 91.7405 107.946C91.1543 108.19 90.5261 108.316 89.8917 108.315ZM49.8897 74.8482C49.9243 74.7979 49.9669 74.7537 50.0157 74.7173C50.0925 74.6639 50.1825 74.6332 50.2757 74.6287C50.3968 74.6285 50.5132 74.6762 50.5997 74.7616C50.6056 74.7698 50.6131 74.7766 50.6217 74.7817C59.6357 83.4414 69.0937 76.421 71.0617 74.7817L71.2617 74.5964C71.3186 74.5752 71.379 74.5649 71.4397 74.5662C71.5077 74.5635 71.5755 74.5737 71.6397 74.5964L71.8397 74.7817C73.8057 76.421 83.2597 83.4414 92.2777 74.7817C92.2777 74.7817 92.2877 74.7696 92.2957 74.7616C92.38 74.6766 92.4944 74.6288 92.6137 74.6287C92.7078 74.6316 92.7989 74.6624 92.8757 74.7173C92.9274 74.7529 92.9727 74.7972 93.0097 74.8482C94.7577 76.5801 102.308 83.1273 110.298 76.1351C110.342 76.0916 110.377 76.0396 110.401 75.9822C110.425 75.9248 110.438 75.8631 110.438 75.8008V72.4778C110.438 72.4154 110.426 72.3534 110.403 72.2955C110.38 72.2376 110.345 72.185 110.301 72.1406C110.258 72.0962 110.206 72.061 110.148 72.037C110.091 72.0129 110.03 72.0005 109.968 72.0005C109.933 72.0043 109.899 72.0111 109.866 72.0207L109.626 72.1415C107.172 73.3821 99.5537 76.3203 92.6437 69.743C92.5797 69.6805 92.5117 69.6201 92.4437 69.5517C92.3825 69.5181 92.3133 69.5021 92.2437 69.5053C92.1934 69.5045 92.1437 69.517 92.0997 69.5416C92 69.5674 91.9141 69.6309 91.8597 69.7188C89.8017 71.2977 80.3457 77.7462 71.9237 69.8356L71.7997 69.7108C71.7073 69.6232 71.5846 69.5755 71.4577 69.5778C71.3353 69.577 71.2174 69.6248 71.1297 69.7108L70.9997 69.8356C62.5837 77.7462 53.1177 71.2977 51.0597 69.7188C51.0086 69.6312 50.9252 69.5675 50.8277 69.5416C50.7808 69.5169 50.7286 69.5044 50.6757 69.5053C50.6061 69.5021 50.5369 69.5181 50.4757 69.5517C50.4097 69.6201 50.3417 69.6805 50.2757 69.743C43.3657 76.3203 35.7537 73.3821 33.2977 72.1415L33.0557 72.0207C33.0255 72.0119 32.9948 72.0052 32.9637 72.0005C32.9014 72.0003 32.8396 72.0124 32.782 72.0363C32.7244 72.0602 32.672 72.0954 32.6279 72.1397C32.5839 72.1841 32.549 72.2368 32.5252 72.2949C32.5015 72.3529 32.4894 72.4151 32.4897 72.4778V75.8008C32.4889 75.8628 32.5005 75.9244 32.5238 75.9819C32.5472 76.0393 32.5819 76.0914 32.6257 76.1351C40.6097 83.1273 48.1697 76.5801 49.9177 74.8482M33.0257 59.9595C32.9965 59.9496 32.9663 59.9428 32.9357 59.9394C32.873 59.9396 32.811 59.9524 32.7532 59.9768C32.6954 60.0013 32.643 60.037 32.599 60.0819C32.555 60.1268 32.5202 60.18 32.4966 60.2385C32.473 60.297 32.4612 60.3596 32.4617 60.4227V63.7355C32.4603 63.7994 32.4719 63.8628 32.4956 63.922C32.5193 63.9812 32.5547 64.0349 32.5997 64.0799C40.5817 71.0641 48.1397 64.519 49.8897 62.791C49.9207 62.7368 49.9639 62.6906 50.0157 62.6561C50.0922 62.6024 50.1825 62.5723 50.2757 62.5695C50.3953 62.568 50.5108 62.6135 50.5977 62.6964C50.6036 62.7052 50.612 62.7122 50.6217 62.7165C59.6377 71.3762 69.0937 64.3639 71.0597 62.7165L71.2597 62.5393C71.3163 62.514 71.3778 62.5016 71.4397 62.503C71.5042 62.5012 71.5684 62.5136 71.6277 62.5393L71.8277 62.7165C73.7937 64.3639 83.2497 71.3762 92.2657 62.7165C92.2657 62.7165 92.2777 62.7065 92.2837 62.6964C92.3698 62.6137 92.4847 62.5681 92.6037 62.5695C92.6976 62.5715 92.7889 62.6016 92.8657 62.6561C92.9188 62.6911 92.9638 62.7371 92.9977 62.791C94.7457 64.519 102.296 71.0641 110.286 64.0799C110.33 64.0346 110.365 63.9809 110.389 63.9217C110.413 63.8626 110.425 63.7993 110.424 63.7355V60.4167C110.425 60.3539 110.413 60.2916 110.39 60.2332C110.367 60.1749 110.333 60.1217 110.29 60.0768C110.246 60.0319 110.194 59.996 110.137 59.9714C110.08 59.9468 110.018 59.9338 109.956 59.9333C109.921 59.9361 109.887 59.9429 109.854 59.9535C109.78 59.9958 109.702 60.036 109.614 60.0783C107.158 61.3169 99.5437 64.2632 92.6317 57.6778C92.5657 57.6153 92.4977 57.5549 92.4317 57.4764C92.3687 57.448 92.3007 57.433 92.2317 57.4321C92.1832 57.4352 92.135 57.4426 92.0877 57.4542C91.9914 57.4929 91.9081 57.5586 91.8477 57.6435C89.7877 59.2244 80.3337 65.6689 71.9117 57.7603L71.7897 57.6395C71.6967 57.5517 71.5751 57.5009 71.4477 57.4965C71.324 57.5017 71.2065 57.5526 71.1177 57.6395L70.9877 57.7603C62.5717 65.6689 53.1057 59.2244 51.0477 57.6435C50.9906 57.558 50.909 57.4919 50.8137 57.4542C50.7644 57.4425 50.7142 57.4351 50.6637 57.4321C50.5948 57.4338 50.5269 57.4488 50.4637 57.4764C50.4007 57.5471 50.334 57.6143 50.2637 57.6778C43.3517 64.2632 35.7397 61.3169 33.2837 60.0783C33.1977 60.036 33.1157 59.9958 33.0397 59.9535" fill="white"/>
</g>
<defs>
<clipPath id="clip0_68_622">
<rect width="144" height="145" rx="15" fill="white"/>
</clipPath>
</defs>
</svg>
