<svg width="145" height="145" viewBox="0 0 145 145" fill="none" xmlns="http://www.w3.org/2000/svg">
<g clip-path="url(#clip0_68_626)">
<path d="M-0.216797 -0.217499H145.218V145.217H-0.216797V-0.217499Z" fill="#56C02B"/>
<path d="M9.82398 17.9095C9.00232 18.3546 6.64607 19.0051 5.81836 19.4159V15.4787C6.91391 15.0337 9.96093 13.5615 10.988 12.4317H15.1306V40.163H9.82398V17.9095ZM15.8153 32.1175H20.9447C20.9447 35.1645 21.3213 36.7494 23.2385 36.6709C25.2524 36.6024 25.3611 34.3428 25.3611 30.7138C25.3611 27.7695 25.053 25.6791 22.9988 25.6791C21.7663 25.6791 20.985 26.535 20.6366 28.1783H16.0892L16.4658 12.4297H29.2016V16.9851H20.7795L20.5056 23.1134C21.0534 22.4287 22.4571 21.8809 23.9977 21.7782C28.2772 21.4016 30.3656 24.799 30.3656 30.4742C30.3656 36.3628 29.2359 40.608 22.9364 40.608C17.082 40.608 15.8153 37.2569 15.8153 32.1175ZM45.6994 12.4116H47.4011L48.8109 19.9113L50.132 12.4116H51.874L49.7393 23.0147H47.8422L45.6994 12.4116ZM52.6111 12.4116H54.5222V23.0147H52.6111V12.4116ZM55.7668 12.4116H58.2661C60.8459 12.4116 61.6252 13.4447 61.6252 15.7083V19.571C61.6252 21.901 60.8197 23.0147 58.3386 23.0147H55.7608L55.7668 12.4116ZM58.2922 21.6654C59.6154 21.6654 59.6677 20.9585 59.6677 19.6374V15.5794C59.6677 14.3087 59.5368 13.7851 58.258 13.7851H57.682V21.6654H58.2922ZM64.1708 12.4116H66.2391L68.3597 23.0147H66.5653L66.1464 20.5658H64.3017L63.8687 23.0147H62.0562L64.1708 12.4116ZM65.937 19.3333L65.218 14.8826L64.497 19.3333H65.937ZM47.2581 31.1569H45.5685V29.731H50.8449V31.1569H49.1955V40.3342H47.2581V31.1569ZM51.4209 29.731H55.8715V31.0924H53.3441V34.1415H55.3338V35.4908H53.3441V39.011H55.8977V40.3342H51.4209V29.731ZM56.6288 29.731H59.1824C61.303 29.731 62.5073 30.4117 62.5073 32.5505C62.5073 33.8212 62.1931 34.7114 61.1983 35.1162L62.6785 40.3402H60.7411L59.4704 35.4827H58.554V40.3402H56.6288V29.731ZM59.1703 34.2724C60.282 34.2724 60.6888 33.789 60.6888 32.6492C60.6888 31.5758 60.3867 31.0521 59.2791 31.0521H58.5581V34.2744L59.1703 34.2724ZM63.5807 29.731H66.1323C68.2529 29.731 69.4593 30.4117 69.4593 32.5505C69.4593 33.8212 69.1451 34.7114 68.1482 35.1162L69.6284 40.3402H67.6911L66.4203 35.4827H65.504V40.3402H63.5807V29.731ZM66.1202 34.2724C67.2319 34.2724 67.6387 33.789 67.6387 32.6492C67.6387 31.5758 67.3366 31.0521 66.229 31.0521H65.508V34.2744L66.1202 34.2724ZM70.5306 29.731H74.9813V31.0924H72.4559V34.1415H74.4456V35.4908H72.4559V39.011H75.0075V40.3342H70.5306V29.731ZM75.4788 37.2449L77.1422 36.9166C77.1946 38.1733 77.4947 38.9849 78.3506 38.9849C78.9648 38.9849 79.2266 38.566 79.2266 37.99C79.2266 37.0737 78.7554 36.5642 78.0626 35.962L76.7294 34.796C75.9702 34.1415 75.4989 33.4084 75.4989 32.2303C75.4989 30.5547 76.5461 29.6122 78.2338 29.6122C80.2235 29.6122 80.7874 30.9474 80.8921 32.4921L79.2286 32.7801C79.1904 31.7852 79.0454 31.0401 78.1955 31.0401C77.6195 31.0401 77.3054 31.471 77.3054 32.0349C77.3054 32.7539 77.6054 33.1466 78.1693 33.6319L79.4904 34.796C80.3544 35.5431 81.0754 36.4715 81.0754 37.8732C81.0754 39.4037 80.002 40.4771 78.417 40.4771C76.4736 40.4792 75.5573 39.3514 75.4788 37.2449ZM82.8758 31.1569H81.1861V29.731H86.4625V31.1569H84.8131V40.3342H82.8758V31.1569ZM87.0385 29.731H89.5901C91.7107 29.731 92.915 30.4117 92.915 32.5505C92.915 33.8212 92.6008 34.7114 91.606 35.1162L93.0862 40.3402H91.1488L89.8781 35.4827H88.9617V40.3402H87.0385V29.731ZM89.578 34.2724C90.6897 34.2724 91.0965 33.789 91.0965 32.6492C91.0965 31.5758 90.7944 31.0521 89.6868 31.0521H88.9658V34.2744L89.578 34.2724ZM93.9884 29.731H98.4391V31.0924H95.9137V34.1415H97.9034V35.4908H95.9137V39.011H98.4653V40.3342H93.9884V29.731ZM59.9517 98.2335C60.0368 98.234 60.1182 98.2682 60.1782 98.3286C60.2382 98.3889 60.2719 98.4706 60.2719 98.5557V109.195C60.2724 109.237 60.2645 109.279 60.2487 109.319C60.2328 109.358 60.2092 109.393 60.1794 109.423C60.1496 109.453 60.1141 109.477 60.075 109.493C60.0359 109.509 59.994 109.518 59.9517 109.517H55.646C55.6034 109.518 55.5612 109.51 55.5217 109.494C55.4823 109.478 55.4464 109.454 55.4162 109.424C55.3861 109.394 55.3621 109.359 55.3459 109.319C55.3297 109.28 55.3215 109.238 55.3218 109.195V98.5557C55.3223 98.47 55.3567 98.3881 55.4174 98.3277C55.4782 98.2673 55.5603 98.2335 55.646 98.2335H59.9517ZM107.23 114.087H36.2825C36.1956 114.088 36.1128 114.124 36.0521 114.186C35.9914 114.249 35.9577 114.332 35.9582 114.419V118.755C35.9585 118.797 35.9671 118.839 35.9835 118.878C36 118.917 36.0239 118.953 36.054 118.982C36.0841 119.012 36.1198 119.035 36.159 119.051C36.1982 119.067 36.2401 119.075 36.2825 119.075H107.23C107.315 119.075 107.397 119.042 107.458 118.982C107.519 118.922 107.554 118.84 107.556 118.755V114.419C107.555 114.332 107.521 114.249 107.46 114.187C107.399 114.125 107.317 114.089 107.23 114.087ZM107.23 122.704H36.2825C36.2401 122.704 36.1982 122.712 36.159 122.728C36.1198 122.744 36.0841 122.767 36.054 122.797C36.0239 122.827 36 122.862 35.9835 122.901C35.9671 122.94 35.9585 122.982 35.9582 123.024V127.374C35.9598 127.46 35.9946 127.541 36.0552 127.601C36.1157 127.66 36.1973 127.694 36.2825 127.695H107.23C107.315 127.694 107.397 127.66 107.458 127.601C107.519 127.541 107.554 127.46 107.556 127.374V123.024C107.554 122.939 107.519 122.858 107.458 122.798C107.397 122.738 107.315 122.704 107.23 122.704ZM93.7306 86.4562C92.8425 85.7635 90.4782 84.1443 87.5923 84.1443C85.5301 84.1443 83.6109 84.9499 81.895 86.561C81.8345 86.6181 81.7865 86.6871 81.7539 86.7637C81.7213 86.8403 81.7049 86.9228 81.7057 87.006V87.4028C81.7016 87.4935 81.7175 87.584 81.7523 87.6679C81.7871 87.7518 81.84 87.827 81.9071 87.8881C81.9757 87.9448 82.0565 87.9847 82.1432 88.0046C82.23 88.0245 82.3201 88.0239 82.4065 88.0029C82.4525 87.997 82.4978 87.9862 82.5415 87.9707C82.6748 87.9226 82.7959 87.8456 82.8959 87.7451C83.2665 87.4954 84.2835 87.1531 85.7375 87.1531C87.2399 87.1531 90.1922 87.5558 93.0479 90.2182L93.1124 90.2766C93.193 90.3585 93.2893 90.4233 93.3955 90.4672C93.5018 90.5112 93.6157 90.5333 93.7306 90.5324C93.8429 90.5332 93.9543 90.5116 94.058 90.4687C94.1618 90.4258 94.2559 90.3625 94.3348 90.2826L94.3912 90.2222C97.261 87.5558 100.209 87.1531 101.712 87.1531C103.176 87.1531 104.189 87.4954 104.561 87.7451C104.676 87.8547 104.813 87.9366 104.964 87.9848C105.099 88.0227 105.242 88.0275 105.379 87.9989C105.508 87.9642 105.621 87.8879 105.702 87.7819C105.783 87.6759 105.827 87.5462 105.826 87.4128V87.0705C105.825 86.9882 105.808 86.907 105.775 86.8316C105.742 86.7562 105.694 86.6882 105.635 86.6315C103.903 84.9801 101.963 84.1463 99.869 84.1463C97.0093 84.1463 94.655 85.7393 93.7447 86.4623M89.3263 58.1792C89.2511 58.216 89.1846 58.2684 89.1315 58.333C89.0783 58.3976 89.0397 58.4729 89.0181 58.5538L88.9456 58.7894C88.9185 58.8795 88.9127 58.9746 88.9288 59.0672C88.9449 59.1599 88.9824 59.2475 89.0383 59.3231C89.0895 59.3925 89.1555 59.4498 89.2313 59.4908C89.3072 59.5319 89.3912 59.5558 89.4773 59.5608C89.5065 59.5666 89.5367 59.5666 89.5659 59.5608C89.6858 59.5583 89.8035 59.5287 89.9103 59.4742C90.0507 59.4399 90.1948 59.4237 90.3393 59.4258C90.6574 59.4258 93.5172 59.5225 95.4082 62.7367L95.4324 62.783C95.479 62.8713 95.5432 62.949 95.6212 63.0114C95.6992 63.0738 95.7891 63.1194 95.8855 63.1455C95.9596 63.1665 96.0361 63.178 96.1131 63.1797C96.2374 63.1806 96.36 63.1501 96.4695 63.0911L96.5158 63.069C97.4978 62.5651 98.5841 62.2982 99.6877 62.2896C101.48 62.2896 102.65 63.0206 102.924 63.3267C102.982 63.4308 103.063 63.5208 103.16 63.5906C103.234 63.6331 103.311 63.6701 103.391 63.7013C103.426 63.709 103.461 63.7144 103.496 63.7174C103.517 63.7195 103.539 63.7195 103.56 63.7174C103.691 63.7163 103.818 63.6734 103.923 63.5952C104.027 63.517 104.104 63.4074 104.142 63.2824L104.201 63.081C104.219 63.0258 104.228 62.968 104.227 62.9099C104.228 62.8021 104.2 62.6961 104.144 62.6037C102.767 60.2112 100.767 59.7118 99.3313 59.7118C98.4588 59.7235 97.5949 59.8856 96.7776 60.1911C96.1272 59.3171 94.4859 57.5106 91.9927 57.5106C91.0653 57.5224 90.1538 57.7528 89.3323 58.1833M74.3349 69.0945L74.357 69.4127C74.361 69.5096 74.3888 69.604 74.438 69.6876C74.4872 69.7713 74.5562 69.8414 74.639 69.892C74.7093 69.9363 74.7879 69.9655 74.8701 69.978C74.9522 69.9905 75.036 69.9859 75.1163 69.9645C75.1505 69.9645 75.1908 69.9424 75.221 69.9323C75.3402 69.8828 75.4454 69.8046 75.5271 69.7047C75.8292 69.4872 76.7999 69.0905 78.2338 69.0905C79.6113 69.0905 81.7077 69.459 83.8424 71.2131L83.8928 71.2635C84.0456 71.3936 84.2398 71.465 84.4406 71.4649H84.4929C84.7061 71.4516 84.9056 71.3555 85.0488 71.197L85.0971 71.1446C87.4614 68.6454 90.009 68.2708 91.316 68.2708C92.2484 68.2708 92.909 68.4722 93.1667 68.6092C93.273 68.7007 93.3992 68.7662 93.5353 68.8005C93.6203 68.8206 93.7081 68.8267 93.7951 68.8186C93.8456 68.8103 93.8954 68.7982 93.9441 68.7824C94.0677 68.7389 94.1737 68.6565 94.2464 68.5475C94.319 68.4386 94.3543 68.3089 94.3469 68.1782L94.3308 67.9003C94.3253 67.8194 94.3035 67.7404 94.2668 67.6681C94.2302 67.5958 94.1793 67.5316 94.1173 67.4794C92.7076 66.2912 91.1811 65.6931 89.578 65.6931C87.0828 65.6931 85.0931 67.1672 84.2674 67.8902C83.5122 67.3767 81.6815 66.3194 79.5347 66.3194C77.6457 66.3194 75.954 67.1028 74.5 68.6454C74.4438 68.7062 74.4003 68.7776 74.3719 68.8554C74.3436 68.9332 74.331 69.0158 74.3349 69.0985M38.4333 74.7898C38.4333 72.751 39.2428 70.7957 40.6838 69.3535C42.1248 67.9114 44.0795 67.1003 46.1183 67.0987C46.2854 67.0987 46.4465 67.1128 46.6117 67.1229C46.7242 65.5944 47.1731 64.1096 47.9263 62.7747C48.6795 61.4399 49.7184 60.288 50.9686 59.4015C52.2188 58.5149 53.6496 57.9156 55.1584 57.6464C56.6672 57.3772 58.2169 57.4447 59.6966 57.8442C61.1763 58.2437 62.5495 58.9653 63.7178 59.9573C64.8861 60.9493 65.8208 62.1873 66.455 63.5826C67.0891 64.9779 67.4071 66.4961 67.3861 68.0287C67.3652 69.5612 67.0058 71.0702 66.3337 72.4476C69.1304 73.068 71.5996 74.6991 73.2677 77.028C74.9358 79.3568 75.6853 82.2196 75.3726 85.0671C75.0599 87.9147 73.7069 90.5465 71.5731 92.4579C69.4393 94.3692 66.675 95.4255 63.8103 95.4241C63.3411 95.4241 48.2893 95.3335 48.2893 95.3335C46.6818 95.3348 45.1092 94.8651 43.7657 93.9826C42.4222 93.1 41.3667 91.8432 40.7295 90.3674C40.0924 88.8916 39.9016 87.2614 40.1807 85.6784C40.4598 84.0953 41.1966 82.6287 42.2999 81.4598C41.1246 80.7876 40.1479 79.8166 39.4689 78.6452C38.7898 77.4738 38.4325 76.1438 38.4333 74.7898Z" fill="white"/>
</g>
<defs>
<clipPath id="clip0_68_626">
<rect width="145" height="145" rx="15" fill="white"/>
</clipPath>
</defs>
</svg>
