<svg width="144" height="145" viewBox="0 0 144 145" fill="none" xmlns="http://www.w3.org/2000/svg">
<g clip-path="url(#clip0_68_630)">
<path d="M-0.216797 -0.217499H144.215V145.217H-0.216797V-0.217499Z" fill="#00689D"/>
<path d="M9.8237 17.9095C8.9997 18.3546 6.6617 19.0051 5.8457 19.4159V15.4787C6.9337 15.0337 9.9597 13.5615 10.9797 12.4317H15.0937V40.163H9.8237V17.9095ZM16.0797 31.4328V21.5647C16.0797 16.1635 17.5757 12.0833 23.4917 12.0833C28.5577 12.0833 30.4277 14.5826 30.4617 19.1017V19.581H25.4977C25.4977 17.253 25.2597 16.1232 23.5257 16.1232C21.8597 16.1232 21.4177 17.4584 21.4177 21.7379V24.5453C21.9957 23.5524 23.3217 22.9704 24.9537 22.9342C29.3397 22.8657 30.9037 26.3235 30.9037 30.9112C30.9037 36.5601 29.1357 40.5315 23.5257 40.5315C18.2557 40.5396 16.0797 36.6709 16.0797 31.4328ZM25.6337 31.8194C25.6337 29.0121 25.5657 26.9861 23.5257 26.9861C23.0962 26.9988 22.6771 27.1218 22.3082 27.3435C21.9392 27.5652 21.6327 27.8783 21.4177 28.2528V32.6653C21.4177 34.7537 21.8597 36.6024 23.5597 36.6024C25.2937 36.6024 25.6337 34.8564 25.6337 31.8194ZM45.9457 12.4116H49.0397C50.9257 12.4116 51.7317 13.5112 51.7317 15.4224C51.7317 17.5027 50.6137 18.3022 48.9097 18.3022H47.8577V23.0147H45.9457V12.4116ZM48.5997 16.9408C49.6537 16.9408 49.9257 16.5381 49.9257 15.4083C49.9257 14.2785 49.7837 13.773 48.5997 13.773H47.8597V16.9408H48.5997ZM53.5637 12.4116H55.6177L57.7237 23.0147H55.9437L55.5277 20.5658H53.6937L53.2657 23.0147H51.4657L53.5637 12.4116ZM55.3197 19.3333L54.5997 14.8846L53.8897 19.3333H55.3197ZM58.1657 21.7701L60.9877 13.7468H58.3097V12.4116H62.9237V13.4065L59.9857 21.6916H62.9377V23.0147H58.1657V21.7701ZM63.6257 24.1405C63.8769 24.0852 64.1001 23.9414 64.2553 23.735C64.4104 23.5286 64.4872 23.2731 64.4717 23.0147H63.5337V21.2465H65.2637V22.8576C65.2637 23.9834 64.7817 24.5976 63.8077 24.7809L63.6257 24.1405ZM68.5257 21.9151C69.6317 21.9151 69.9257 21.7137 69.9257 20.592V12.4116H71.8377V20.6444C71.8377 22.4246 71.3297 23.2765 69.4577 23.2765H68.5337L68.5257 21.9151ZM73.0897 19.5851V12.4116H74.9617V19.8066C74.9617 20.8135 75.0777 21.7178 76.0537 21.7178C77.0297 21.7178 77.1577 20.8156 77.1577 19.8066V12.4116H79.0177V19.5851C79.0177 21.8003 78.4057 23.1577 76.0537 23.1577C73.7017 23.1577 73.0897 21.8104 73.0897 19.5851ZM79.9997 19.9254L81.6497 19.5971C81.7017 20.8538 82.0017 21.6654 82.8497 21.6654C83.4617 21.6654 83.7217 21.2465 83.7217 20.6706C83.7217 19.7542 83.2537 19.2447 82.5637 18.6426L81.2377 17.4765C80.4837 16.822 80.0157 16.089 80.0157 14.9108C80.0157 13.2353 81.0557 12.2928 82.7337 12.2928C84.7097 12.2928 85.2677 13.628 85.3717 15.1726L83.7217 15.4606C83.6817 14.4658 83.5397 13.7206 82.6937 13.7206C82.1217 13.7206 81.8097 14.1516 81.8097 14.7155C81.8097 15.4344 82.1097 15.8271 82.6677 16.3125L83.9817 17.4765C84.8397 18.2237 85.5537 19.1521 85.5537 20.5537C85.5537 22.0843 84.4877 23.1577 82.9157 23.1577C80.9997 23.1597 80.0837 22.0319 79.9997 19.9254ZM87.4797 13.8374H85.7997V12.4116H91.0377V13.8374H89.3997V23.0147H87.4797V13.8374ZM91.7997 12.4116H93.6977V23.0147H91.7997V12.4116ZM98.8937 16.234V15.3176C98.8937 14.4275 98.8817 13.7065 97.9057 13.7065C96.9297 13.7065 96.8277 14.4658 96.8277 15.4344V20.0301C96.8277 21.1821 97.0617 21.7319 97.9057 21.7319C98.8557 21.7319 98.8937 20.9847 98.8937 20.0422V19.0876H100.74V19.9375C100.74 21.7319 100.168 23.053 98.1537 23.1597V23.8142C99.1157 23.8142 99.7657 24.2472 99.7657 25.0588C99.7657 25.9872 98.9457 26.3799 97.9977 26.3799C97.6806 26.3768 97.3655 26.3287 97.0617 26.2369V25.4112C97.2889 25.4825 97.5257 25.5178 97.7637 25.516C98.2177 25.516 98.5637 25.3851 98.5637 25.0326C98.5637 24.5614 98.0317 24.3902 97.4197 24.3258V23.1335C95.4957 22.9321 94.8977 21.5365 94.8977 19.6253V15.8412C94.8977 13.6683 95.5877 12.2928 97.8977 12.2928C100.056 12.2928 100.744 13.5011 100.744 15.3438V16.234H98.8937ZM103.4 12.4116H105.454L107.56 23.0147H105.78L105.364 20.5658H103.53L103.102 23.0147H101.302L103.4 12.4116ZM105.148 19.3333L104.432 14.8826L103.718 19.3333H105.148ZM111.244 12.4116H115.664V13.773H113.156V16.822H115.132V18.1713H113.156V21.6916H115.69V23.0147H111.244V12.4116ZM45.9997 29.731H47.8977V40.3342H45.9997V29.731ZM49.2617 29.731H50.5997L53.1617 35.7727V29.731H54.7477V40.3342H53.4737L50.8997 33.9985V40.3342H49.2617V29.731ZM55.8257 37.2449L57.4777 36.9166C57.5297 38.1733 57.8277 38.9849 58.6777 38.9849C59.2877 38.9849 59.5477 38.566 59.5477 37.99C59.5477 37.0737 59.0797 36.5642 58.3917 35.962L57.0657 34.796C56.3117 34.1415 55.8437 33.4084 55.8437 32.2303C55.8437 30.5547 56.8837 29.6122 58.5597 29.6122C60.5357 29.6122 61.0957 30.9474 61.1997 32.4921L59.5477 32.7801C59.5097 31.7852 59.3657 31.0401 58.5217 31.0401C57.9497 31.0401 57.6377 31.471 57.6377 32.0349C57.6377 32.7539 57.9357 33.1466 58.4957 33.6319L59.8077 34.796C60.6657 35.5431 61.3817 36.4715 61.3817 37.8732C61.3817 39.4037 60.3157 40.4771 58.7417 40.4771C56.8137 40.4792 55.9037 39.3514 55.8257 37.2449ZM63.3017 31.1569H61.6237V29.731H66.8637V31.1569H65.2257V40.3342H63.3017V31.1569ZM67.6157 29.731H69.5137V40.3342H67.6157V29.731ZM71.9317 31.1569H70.2557V29.731H75.4937V31.1569H73.8557V40.3342H71.9317V31.1569ZM76.1177 36.9045V29.731H77.9997V37.126C77.9997 38.133 78.1177 39.0372 79.0917 39.0372C80.0657 39.0372 80.1977 38.135 80.1977 37.126V29.731H82.0557V36.9045C82.0557 39.1299 81.4457 40.4771 79.0917 40.4771C76.7377 40.4771 76.1177 39.1299 76.1177 36.9045ZM83.3457 29.731H85.2437V40.3342H83.3457V29.731ZM90.4437 33.5534V32.6371C90.4437 31.7469 90.4317 31.026 89.4557 31.026C88.4797 31.026 88.3777 31.7852 88.3777 32.7539V37.3496C88.3777 38.5015 88.6117 39.0513 89.4557 39.0513C90.4057 39.0513 90.4437 38.3042 90.4437 37.3617V36.4071H92.2897V37.2569C92.2897 39.0513 91.7177 40.3724 89.7037 40.4792V41.1337C90.6657 41.1337 91.3157 41.5667 91.3157 42.3783C91.3157 43.3067 90.4957 43.6994 89.5477 43.6994C89.2306 43.6962 88.9155 43.6481 88.6117 43.5564V42.7307C88.8389 42.8019 89.0757 42.8373 89.3137 42.8354C89.7677 42.8354 90.1137 42.7045 90.1137 42.3521C90.1137 41.8808 89.5817 41.7096 88.9697 41.6452V40.453C87.0457 40.2516 86.4477 38.856 86.4477 36.9448V33.1607C86.4477 30.9877 87.1377 29.6122 89.4477 29.6122C91.6057 29.6122 92.2937 30.8206 92.2937 32.6633V33.5534H90.4437ZM93.1997 37.0092V33.0278C93.1997 30.881 93.9797 29.6042 96.2417 29.6042C98.5037 29.6042 99.2717 30.8749 99.2717 33.0278V37.0072C99.2717 39.1399 98.4917 40.4751 96.2417 40.4751C93.9917 40.4751 93.1997 39.156 93.1997 37.0092ZM95.5997 27.7272C95.2617 27.7272 95.1437 27.9286 95.1437 28.2649H94.2397C94.2397 27.3224 94.4997 26.6156 95.3457 26.6156C95.9817 26.6156 96.4117 27.2197 96.9697 27.2197C97.2697 27.2197 97.3857 27.0365 97.3857 26.6961H98.2437C98.2437 27.5198 98.1017 28.3455 97.2557 28.3455C96.5797 28.3435 96.1377 27.7272 95.5997 27.7272ZM97.3217 37.4583V32.5847C97.3217 31.6946 97.1777 31.026 96.2417 31.026C95.3057 31.026 95.1497 31.6946 95.1497 32.5847V37.4583C95.1497 38.3364 95.2937 39.0433 96.2417 39.0433C97.1897 39.0433 97.3217 38.3444 97.3217 37.4583ZM100.428 29.731H104.848V31.0924H102.34V34.1415H104.316V35.4908H102.34V39.011H104.874V40.3342H100.428V29.731ZM105.472 37.2449L107.124 36.9166C107.176 38.1733 107.474 38.9849 108.324 38.9849C108.924 38.9849 109.194 38.566 109.194 37.99C109.194 37.0737 108.726 36.5642 108.038 35.962L106.712 34.796C105.958 34.1415 105.49 33.4084 105.49 32.2303C105.49 30.5547 106.53 29.6122 108.206 29.6122C110.182 29.6122 110.742 30.9474 110.846 32.4921L109.2 32.7801C109.162 31.7852 109.018 31.0401 108.174 31.0401C107.602 31.0401 107.29 31.471 107.29 32.0349C107.29 32.7539 107.588 33.1466 108.148 33.6319L109.46 34.796C110.318 35.5431 111.034 36.4715 111.034 37.8732C111.034 39.4037 109.968 40.4771 108.394 40.4771C106.46 40.4792 105.55 39.3514 105.472 37.2449ZM45.9457 47.0505H50.3657V48.4119H47.8577V51.4609H49.8337V52.8102H47.8577V56.3305H50.3997V57.6536H45.9457V47.0505ZM51.2497 47.0505H55.5797V48.3857H53.1617V51.475H55.1377V52.8223H53.1617V57.6556H51.2497V47.0505ZM56.4117 47.0505H58.3097V57.6536H56.4117V47.0505ZM59.5057 54.2622V50.4801C59.5057 48.3071 60.1937 46.9317 62.5057 46.9317C64.6637 46.9317 65.3537 48.14 65.3537 49.9827V50.8728H63.5077V49.9565C63.5077 49.0664 63.4937 48.3454 62.5197 48.3454C61.5457 48.3454 61.4397 49.1046 61.4397 50.0733V54.669C61.4397 55.821 61.6737 56.3708 62.5197 56.3708C63.4677 56.3708 63.5077 55.6236 63.5077 54.6811V53.7265H65.3537V54.5764C65.3537 56.4493 64.7297 57.7986 62.5057 57.7986C60.1997 57.7986 59.5057 56.3305 59.5057 54.2622ZM67.9997 47.0505H70.0557L72.1617 57.6536H70.3797L69.9637 55.2047H68.1317L67.7017 57.6536H65.9017L67.9997 47.0505ZM69.7617 53.9722L69.0477 49.5215L68.3317 53.9722H69.7617ZM72.5997 56.409L75.4217 48.3857H72.7517V47.0505H77.3657V48.0453L74.4277 56.3305H77.3797V57.6536H72.5997V56.409ZM78.2237 47.0505H82.6437V48.4119H80.1357V51.4609H82.1117V52.8102H80.1357V56.3305H82.6697V57.6536H78.2237V47.0505ZM83.2677 54.5643L84.9197 54.236C84.9717 55.4927 85.2697 56.3043 86.1197 56.3043C86.7297 56.3043 86.9897 55.8854 86.9897 55.3094C86.9897 54.3931 86.5217 53.8836 85.8337 53.2815L84.5077 52.1154C83.7537 51.4609 83.2857 50.7278 83.2857 49.5497C83.2857 47.8742 84.3257 46.9317 86.0017 46.9317C87.9777 46.9317 88.5377 48.2669 88.6417 49.8115L86.9897 50.0995C86.9517 49.1046 86.8077 48.3595 85.9637 48.3595C85.3917 48.3595 85.0797 48.7905 85.0797 49.3544C85.0797 50.0733 85.3777 50.466 85.9377 50.9514L87.2497 52.1154C88.1077 52.8626 88.8237 53.791 88.8237 55.1926C88.8237 56.7232 87.7577 57.7966 86.1837 57.7966C84.2557 57.7986 83.3457 56.6708 83.2677 54.5643ZM95.7597 65.9226C95.7597 65.9226 94.3597 67.8056 94.7597 69.6403C95.1597 71.4749 97.2497 72.5665 97.2497 72.5665C97.2497 72.5665 98.6597 70.6835 98.2497 68.8488C97.8397 67.0142 95.7617 65.9226 95.7617 65.9226M93.4637 76.6768C93.4637 76.6768 94.8737 74.7918 94.4637 72.9571C94.0537 71.1225 91.9757 70.033 91.9757 70.033C91.9757 70.033 90.5657 71.914 90.9757 73.7506C91.3857 75.5873 93.4657 76.6768 93.4657 76.6768M99.2517 74.6609C99.2517 74.6609 100.74 76.1713 102.434 76.0183C104.128 75.8652 105.384 74.1111 105.384 74.1111C105.384 74.1111 103.898 72.6007 102.202 72.7517C100.506 72.9028 99.2517 74.6589 99.2517 74.6589M101.69 66.5933C100.312 68.003 100.506 70.4921 100.506 70.4921C100.506 70.4921 102.936 70.7036 104.316 69.2979C105.696 67.8922 105.5 65.399 105.5 65.399C105.5 65.399 103.068 65.1876 101.69 66.5933ZM98.6497 80.2595C100.336 80.4609 101.924 79.0008 101.924 79.0008C101.924 79.0008 100.774 77.2165 99.0877 77.0151C97.4017 76.8138 95.8117 78.2758 95.8117 78.2758C95.8117 78.2758 96.9617 80.0581 98.6497 80.2595ZM100.156 107.58H87.5417C87.0686 107.58 86.6148 107.769 86.2802 108.106C85.9457 108.443 85.7577 108.9 85.7577 109.376C85.7577 109.853 85.9457 110.31 86.2802 110.647C86.6148 110.983 87.0686 111.173 87.5417 111.173H100.156C100.629 111.173 101.083 110.983 101.417 110.647C101.752 110.31 101.94 109.853 101.94 109.376C101.94 108.9 101.752 108.443 101.417 108.106C101.083 107.769 100.629 107.58 100.156 107.58ZM100.156 127.387H87.5417C87.3023 127.378 87.0637 127.419 86.8401 127.506C86.6165 127.592 86.4126 127.723 86.2404 127.891C86.0681 128.059 85.9312 128.26 85.8377 128.482C85.7441 128.704 85.6959 128.943 85.6959 129.184C85.6959 129.425 85.7441 129.664 85.8377 129.886C85.9312 130.108 86.0681 130.309 86.2404 130.477C86.4126 130.644 86.6165 130.775 86.8401 130.862C87.0637 130.949 87.3023 130.989 87.5417 130.981H100.156C100.619 130.966 101.058 130.77 101.38 130.434C101.702 130.099 101.882 129.65 101.882 129.184C101.882 128.717 101.702 128.269 101.38 127.934C101.058 127.598 100.619 127.402 100.156 127.387ZM43.4237 103.216C43.1361 103.124 42.8437 103.049 42.5477 102.99C42.5477 102.99 42.8717 103.091 43.4237 103.216Z" fill="white"/>
<path d="M99.6923 112.427H88.0003C87.731 112.428 87.4729 112.536 87.2825 112.728C87.092 112.919 86.9848 113.179 86.9843 113.45V117.007L79.3543 117.851L68.2003 117.611V110.746C69.6991 110.554 71.1818 110.251 72.6363 109.84C83.3663 106.79 85.7063 100.06 85.4743 93.8794C85.2403 87.584 87.2403 85.1392 90.1163 84.0517C90.8884 83.7638 91.686 83.5507 92.4983 83.4153C92.5303 84.962 92.8423 86.7604 93.5283 88.9011C93.7823 88.887 94.0363 88.8669 94.2883 88.8387C93.5643 86.6476 93.2543 84.8451 93.2383 83.3085C94.0819 83.2011 94.9338 83.1755 95.7823 83.232C94.9238 82.7286 94.113 82.1468 93.3603 81.494C93.8423 78.5135 95.6063 76.6829 97.4223 74.8119C98.4223 73.7808 99.4543 72.7175 100.266 71.4488L99.6343 71.046C98.8643 72.2543 97.8543 73.2854 96.8823 74.2883C95.1103 76.1149 93.3223 77.9798 92.7163 80.9342C92.0701 80.3477 91.4565 79.7258 90.8783 79.0713C88.2323 76.0847 84.8263 78.2799 79.9683 82.8333C75.1103 87.3867 68.9963 87.5417 63.0283 81.3933C55.1523 73.2733 48.2823 73.3197 43.5723 73.7808C46.7943 75.1644 47.9223 78.1953 49.5543 85.9024C51.2623 93.9902 55.5743 97.6474 61.4703 98.1529C58.7383 98.6 58.0283 98.9806 53.6343 102.038C50.2023 104.422 45.3743 103.669 43.4163 103.22C47.0163 104.348 51.2663 108.144 55.0743 109.463C57.3215 110.235 59.6568 110.717 62.0243 110.899V117.462L40.8843 117.007V121.587L79.3563 120.727L86.9863 121.572V125.135C86.9868 125.406 87.094 125.666 87.2845 125.858C87.4749 126.05 87.733 126.158 88.0023 126.158H99.6923C99.9619 126.158 100.221 126.05 100.411 125.859C100.602 125.667 100.71 125.407 100.71 125.135V113.454C100.711 113.32 100.684 113.186 100.633 113.062C100.582 112.937 100.507 112.824 100.413 112.728C100.318 112.633 100.206 112.557 100.082 112.506C99.9587 112.454 99.8262 112.427 99.6923 112.427ZM63.8683 110.991C64.7003 111.006 65.5343 110.983 66.3703 110.923V117.569L63.8683 117.51V110.991ZM39.8003 120.833C39.8003 121.798 39.1303 122.581 38.3063 122.581H37.4003C36.5763 122.581 35.9043 121.798 35.9043 120.833V117.657C35.9043 116.691 36.5763 115.909 37.4003 115.909H38.2983C39.1223 115.909 39.7923 116.691 39.7923 117.657L39.8003 120.833Z" fill="white"/>
</g>
<defs>
<clipPath id="clip0_68_630">
<rect width="144" height="145" rx="15" fill="white"/>
</clipPath>
</defs>
</svg>
