<svg width="144" height="145" viewBox="0 0 144 145" fill="none" xmlns="http://www.w3.org/2000/svg">
<g clip-path="url(#clip0_68_637)">
<path d="M-0.216797 -0.217499H144.215V145.217H-0.216797V-0.217499Z" fill="#19486A"/>
<path d="M10.0249 17.9095C9.20088 18.3546 6.86287 19.0051 6.04688 19.4159V15.4788C7.13488 15.0337 10.1609 13.5615 11.1809 12.4317H15.2949V40.163H10.0249V17.9095Z" fill="white"/>
<path d="M22.6732 16.4716H15.2012V12.4317H27.8012V15.8896L22.0012 40.163H16.8932L22.6732 16.4716ZM36.7472 12.4116H39.8412C41.7272 12.4116 42.5332 13.5112 42.5332 15.4224C42.5332 17.5027 41.4152 18.3022 39.7112 18.3022H38.6592V23.0147H36.7472V12.4116ZM39.4012 16.9408C40.4552 16.9408 40.7272 16.5381 40.7272 15.4083C40.7272 14.2785 40.5852 13.773 39.4012 13.773H38.6612V16.9408H39.4012ZM44.3392 12.4116H46.4012L48.5072 23.0147H46.7272L46.3112 20.5658H44.4772L44.0492 23.0147H42.2492L44.3392 12.4116ZM46.0952 19.3333L45.3792 14.8826L44.6652 19.3333H46.0952ZM49.2672 12.4116H51.8012C53.9072 12.4116 55.1032 13.0923 55.1032 15.231C55.1032 16.5018 54.7912 17.392 53.8032 17.7967L55.2732 23.0208H53.3492L52.0872 18.1633H51.1772V23.0208H49.2672V12.4116ZM51.7892 16.9529C52.8932 16.9529 53.2972 16.4696 53.2972 15.3297C53.2972 14.2563 52.9972 13.7327 51.8972 13.7327H51.1812V16.9549L51.7892 16.9529ZM56.0512 19.6233V15.8413C56.0512 13.6683 56.7412 12.2928 59.0512 12.2928C61.2092 12.2928 61.8992 13.5011 61.8992 15.3438V16.234H60.0532V15.3176C60.0532 14.4275 60.0392 13.7065 59.0652 13.7065C58.0912 13.7065 57.9852 14.4658 57.9852 15.4345V20.0301C57.9852 21.1821 58.2192 21.7319 59.0652 21.7319C60.0132 21.7319 60.0532 20.9847 60.0532 20.0422V19.0876H61.8992V19.9375C61.8992 21.8104 61.2732 23.1597 59.0512 23.1597C56.7412 23.1597 56.0512 21.6916 56.0512 19.6233ZM62.9552 12.4116H67.3752V13.773H64.8652V16.822H66.8412V18.1713H64.8652V21.6916H67.4012V23.0147H62.9552V12.4116ZM68.2332 12.4116H70.7672C72.8732 12.4116 74.0692 13.0923 74.0692 15.231C74.0692 16.5018 73.7572 17.392 72.7692 17.7967L74.2392 23.0208H72.3152L71.0532 18.1633H70.1432V23.0208H68.2332V12.4116ZM70.7552 16.9529C71.8592 16.9529 72.2632 16.4696 72.2632 15.3297C72.2632 14.2563 71.9632 13.7327 70.8632 13.7327H70.1472V16.9549L70.7552 16.9529ZM75.2912 12.4116H77.1892V23.0147H75.2912V12.4116ZM80.1012 12.4116H82.1552L84.2612 23.0147H82.4812L82.0652 20.5658H80.2312L79.8012 23.0147H78.0012L80.1012 12.4116ZM81.8572 19.3333L81.1412 14.8826L80.4272 19.3333H81.8572ZM84.7172 19.9254L86.3672 19.5972C86.4192 20.8538 86.7192 21.6654 87.5672 21.6654C88.1792 21.6654 88.4392 21.2465 88.4392 20.6706C88.4392 19.7542 87.9712 19.2447 87.2812 18.6426L85.9552 17.4765C85.2012 16.822 84.7332 16.089 84.7332 14.9108C84.7332 13.2353 85.7732 12.2928 87.4512 12.2928C89.4272 12.2928 89.9852 13.628 90.0892 15.1726L88.4392 15.4606C88.3992 14.4658 88.2572 13.7206 87.4112 13.7206C86.8392 13.7206 86.5272 14.1516 86.5272 14.7155C86.5272 15.4345 86.8272 15.8272 87.3852 16.3125L88.6992 17.4765C89.5572 18.2237 90.2712 19.1521 90.2712 20.5538C90.2712 22.0843 89.2052 23.1577 87.6332 23.1577C85.7052 23.1597 84.8012 22.032 84.7172 19.9254ZM93.9852 12.4116H98.4012V13.773H95.8972V16.822H97.8732V18.1713H95.8972V21.6916H98.4312V23.0147H93.9852V12.4116ZM102.293 12.4116H104.281L105.777 19.7542L107.323 12.4116H109.261L109.461 23.0147H108.031L107.875 15.6439L106.381 23.0147H105.223L103.703 15.6177L103.559 23.0147H102.117L102.293 12.4116ZM110.729 12.4116H115.149V13.773H112.641V16.822H114.617V18.1713H112.641V21.6916H115.175V23.0147H110.729V12.4116ZM116.059 12.4116H117.957V23.0147H116.059V12.4116ZM119.127 19.6898V15.7083C119.127 13.5615 119.907 12.2847 122.169 12.2847C124.431 12.2847 125.201 13.5635 125.201 15.7083V19.6898C125.201 21.8225 124.421 23.1577 122.171 23.1577C119.921 23.1577 119.127 21.8366 119.127 19.6898ZM123.249 20.1389V15.2653C123.249 14.3751 123.105 13.7065 122.169 13.7065C121.233 13.7065 121.077 14.3751 121.077 15.2653V20.1389C121.077 21.017 121.219 21.7238 122.169 21.7238C123.119 21.7238 123.249 21.025 123.249 20.1389ZM126.069 19.9254L127.719 19.5972C127.771 20.8538 128.071 21.6654 128.919 21.6654C129.531 21.6654 129.791 21.2465 129.791 20.6706C129.791 19.7542 129.323 19.2447 128.633 18.6426L127.307 17.4765C126.553 16.822 126.085 16.089 126.085 14.9108C126.085 13.2353 127.125 12.2928 128.803 12.2928C130.779 12.2928 131.337 13.628 131.441 15.1726L129.791 15.4606C129.751 14.4658 129.609 13.7206 128.763 13.7206C128.191 13.7206 127.879 14.1516 127.879 14.7155C127.879 15.4345 128.179 15.8272 128.737 16.3125L130.051 17.4765C130.909 18.2237 131.623 19.1521 131.623 20.5538C131.623 22.0843 130.557 23.1577 128.985 23.1577C127.057 23.1597 126.147 22.032 126.069 19.9254ZM36.7472 29.731H39.2312C41.7912 29.731 42.5712 30.7642 42.5712 33.0298V36.8904C42.5712 39.2205 41.7712 40.3342 39.3092 40.3342H36.7472V29.731ZM39.2572 38.9949C40.5692 38.9949 40.6212 38.2881 40.6212 36.9669V32.8989C40.6212 31.6281 40.4912 31.1045 39.2312 31.1045H38.6592V38.9849L39.2572 38.9949ZM43.7032 29.731H48.1232V31.0924H45.6132V34.1415H47.5892V35.4908H45.6132V39.011H48.1492V40.3342H43.7032V29.731ZM51.9052 29.731H53.8012V40.3342H51.9032L51.9052 29.731ZM55.2972 29.731H57.2872L58.7832 37.0737L60.3292 29.731H62.2672L62.4672 40.3342H61.0372L60.8812 32.9633L59.3852 40.3342H58.2292L56.7092 32.9372L56.5652 40.3342H55.1212L55.2972 29.731ZM63.7352 29.731H66.8292C68.7152 29.731 69.5192 30.8306 69.5192 32.7519C69.5192 34.8322 68.4032 35.6317 66.6992 35.6317H65.6452V40.3442H63.7352V29.731ZM66.3872 34.2603C67.4392 34.2603 67.7132 33.8575 67.7132 32.7277C67.7132 31.5979 67.5692 31.0924 66.3872 31.0924H65.6452V34.2603H66.3872ZM70.2992 29.731H72.2112V39.011H74.7712V40.3342H70.2992V29.731ZM75.4872 29.731H79.9072V31.0924H77.4012V34.1415H79.3772V35.4908H77.4012V39.011H79.9372V40.3342H75.4872V29.731ZM80.9212 29.731H82.9092L84.4012 37.0737L85.9472 29.731H87.8852L88.0852 40.3342H86.6552L86.4992 32.9633L85.0012 40.3342H83.8432L82.3232 32.9372L82.1792 40.3342H80.7372L80.9212 29.731ZM89.3572 29.731H93.7772V31.0924H91.2692V34.1415H93.2452V35.4908H91.2692V39.011H93.8012V40.3342H89.3572V29.731ZM94.6352 29.731H95.9752L98.5352 35.7727V29.731H100.121V40.3342H98.8472L96.2732 33.9985V40.3342H94.6352V29.731ZM102.487 31.1569H100.811V29.731H106.049V31.1569H104.411V40.3342H102.487V31.1569ZM108.039 29.731H110.093L112.201 40.3342H110.419L110.001 37.8853H108.169L107.739 40.3342H105.939L108.039 29.731ZM109.801 36.6528L109.087 32.2021L108.363 36.6528H109.801ZM116.735 33.5534V32.6371C116.735 31.747 116.723 31.026 115.747 31.026C114.771 31.026 114.669 31.7852 114.669 32.7539V37.3496C114.669 38.5015 114.903 39.0513 115.747 39.0513C116.697 39.0513 116.735 38.3042 116.735 37.3617V36.4071H118.581V37.257C118.581 39.0513 118.009 40.3724 115.995 40.4792V41.1337C116.957 41.1337 117.607 41.5667 117.607 42.3783C117.607 43.3067 116.787 43.6994 115.839 43.6994C115.522 43.6963 115.207 43.6481 114.903 43.5564V42.7307C115.13 42.8019 115.367 42.8373 115.605 42.8354C116.059 42.8354 116.405 42.7045 116.405 42.3521C116.405 41.8808 115.873 41.7097 115.261 41.6452V40.453C113.337 40.2516 112.739 38.856 112.739 36.9448V33.1607C112.739 30.9877 113.429 29.6122 115.739 29.6122C117.897 29.6122 118.585 30.8206 118.585 32.6633V33.5534H116.735ZM121.201 29.731H123.261L125.367 40.3342H123.587L123.171 37.8853H121.337L120.909 40.3342H119.109L121.201 29.731ZM121.601 27.7272C121.263 27.7272 121.145 27.9286 121.145 28.2649H120.235C120.235 27.3224 120.495 26.6156 121.341 26.6156C121.977 26.6156 122.407 27.2197 122.965 27.2197C123.265 27.2197 123.381 27.0365 123.381 26.6961H124.239C124.239 27.5198 124.097 28.3455 123.251 28.3455C122.585 28.3435 122.143 27.7272 121.611 27.7272H121.601ZM122.963 36.6528L122.247 32.2021L121.533 36.6528H122.963ZM125.861 37.0092V33.0278C125.861 30.881 126.641 29.6042 128.903 29.6042C131.165 29.6042 131.933 30.8749 131.933 33.0278V37.0072C131.933 39.1399 131.153 40.4751 128.903 40.4751C126.653 40.4751 125.861 39.156 125.861 37.0092ZM129.983 37.4583V32.5847C129.983 31.6946 129.839 31.026 128.903 31.026C127.967 31.026 127.811 31.6946 127.811 32.5847V37.4583C127.811 38.3364 127.955 39.0433 128.903 39.0433C129.851 39.0433 129.983 38.3444 129.983 37.4583ZM108.877 88.0573C108.871 83.134 106.973 78.404 103.58 74.8591C100.187 71.3142 95.563 69.2295 90.6772 69.0422C89.3752 65.3308 86.9624 62.1173 83.7711 59.8444C80.5798 57.5714 76.7671 56.3509 72.8582 56.3509C68.9492 56.3509 65.1365 57.5714 61.9452 59.8444C58.7539 62.1173 56.3411 65.3308 55.0392 69.0422C51.1645 69.1833 47.427 70.522 44.3341 72.8763C41.2413 75.2306 38.9431 78.4865 37.7516 82.2017C36.5602 85.9169 36.5334 89.9113 37.6747 93.6424C38.816 97.3735 41.0703 100.66 44.1312 103.057C43.0479 106.821 43.1464 110.831 44.413 114.537C45.6797 118.244 48.0527 121.465 51.2074 123.761C54.3621 126.058 58.1443 127.316 62.0365 127.365C65.9287 127.413 69.7408 126.25 72.9512 124.033C76.1637 126.195 79.9575 127.313 83.8206 127.235C87.6837 127.158 91.4303 125.889 94.5549 123.6C97.6795 121.312 100.032 118.113 101.294 114.436C102.557 110.759 102.669 106.78 101.615 103.037C103.876 101.259 105.706 98.9868 106.964 96.3913C108.222 93.7958 108.877 90.9456 108.877 88.0573ZM87.9492 75.3698C87.9435 79.0085 86.6421 82.5244 84.2813 85.2792C81.9206 88.034 78.657 89.845 75.0832 90.3833C74.7616 88.4039 74.8358 86.3797 75.3015 84.4295C75.7672 82.4793 76.615 80.6424 77.7952 79.0265C78.9753 77.4107 80.464 76.0484 82.174 75.0197C83.884 73.9909 85.7808 73.3164 87.7532 73.0357C87.8797 73.8073 87.9466 74.5877 87.9532 75.3698M72.9312 119.091C71.4918 117.69 70.3447 116.013 69.557 114.159C68.7693 112.306 68.3569 110.312 68.3438 108.296C68.3308 106.28 68.7174 104.282 69.4811 102.418C70.2447 100.554 71.3701 98.8624 72.7912 97.442C74.2305 98.8436 75.3776 100.52 76.1653 102.374C76.953 104.228 77.3655 106.221 77.3785 108.237C77.3915 110.253 77.0049 112.252 76.2412 114.116C75.4776 115.979 74.3522 117.671 72.9312 119.091ZM57.9612 73.0417C59.9344 73.3209 61.8323 73.9945 63.5432 75.0229C65.2542 76.0513 66.7437 77.4138 67.9241 79.0302C69.1046 80.6467 69.9522 82.4845 70.4171 84.4355C70.8819 86.3866 70.9547 88.4116 70.6312 90.3914C68.6579 90.1123 66.76 89.4387 65.0491 88.4103C63.3381 87.3819 61.8486 86.0194 60.6682 84.4029C59.4877 82.7865 58.6401 80.9487 58.1753 78.9976C57.7104 77.0465 57.6376 75.0216 57.9612 73.0417ZM69.2152 94.8542C68.3254 96.6564 67.0877 98.2619 65.5744 99.5769C64.0612 100.892 62.3028 101.89 60.402 102.512C58.5013 103.135 56.4963 103.369 54.5044 103.203C52.5125 103.036 50.5736 102.471 48.8012 101.54C49.6909 99.738 50.9286 98.1325 52.4419 96.8176C53.9551 95.5027 55.7136 94.5048 57.6143 93.8822C59.5151 93.2597 61.52 93.025 63.5119 93.1919C65.5038 93.3588 67.4427 93.9239 69.2152 94.8542ZM76.4512 94.7515C78.2331 93.8096 80.1846 93.2373 82.1902 93.0684C84.1957 92.8995 86.2145 93.1375 88.1271 93.7683C90.0397 94.399 91.8071 95.4097 93.3249 96.7405C94.8426 98.0714 96.0798 99.6953 96.9632 101.516C95.1814 102.459 93.2298 103.032 91.2241 103.201C89.2183 103.37 87.1992 103.133 85.2864 102.502C83.3736 101.871 81.606 100.86 80.0884 99.5287C78.5707 98.1974 77.3339 96.5729 76.4512 94.7515ZM72.8512 60.181C75.7903 60.1841 78.6647 61.0503 81.1222 62.6736C83.5797 64.2969 85.5137 66.6067 86.6872 69.3201C83.6994 69.8576 80.8834 71.1094 78.4758 72.9702C76.0682 74.831 74.1393 77.2466 72.8512 80.0138C71.5647 77.2462 69.6368 74.8302 67.2297 72.9692C64.8226 71.1082 62.0067 69.8568 59.0192 69.3201C60.1924 66.6073 62.1257 64.2979 64.5825 62.6747C67.0392 61.0515 69.9128 60.1849 72.8512 60.181ZM40.6432 88.0573C40.6488 84.3111 42.0267 80.6986 44.5128 77.9117C46.999 75.1247 50.4187 73.3592 54.1172 72.9531C54.014 73.7593 53.9612 74.5711 53.9592 75.3839C53.9582 78.0312 54.5069 80.6494 55.5702 83.0706C56.6334 85.4917 58.1877 87.6623 60.1332 89.4428C57.1063 89.7957 54.2087 90.8786 51.6862 92.5996C49.1636 94.3207 47.0907 96.6291 45.6432 99.329C44.0712 97.9097 42.8136 96.1731 41.9522 94.2321C41.0907 92.2912 40.6447 90.1893 40.6432 88.0633M47.1892 108.347C47.1888 107.289 47.2994 106.233 47.5192 105.198C50.2367 106.521 53.23 107.169 56.2476 107.086C59.2653 107.004 62.2192 106.193 64.8612 104.722C64.2993 107.712 64.4616 110.795 65.3345 113.709C66.2073 116.622 67.7649 119.281 69.8752 121.46C67.5846 122.813 64.9796 123.532 62.3241 123.544C59.6686 123.557 57.057 122.863 54.7539 121.531C52.4508 120.2 50.5381 118.28 49.2096 115.964C47.8812 113.649 47.1841 111.021 47.1892 108.347ZM98.5272 108.222C98.5282 110.879 97.8366 113.489 96.5217 115.792C95.2067 118.095 93.3144 120.01 91.034 121.345C88.7536 122.681 86.165 123.39 83.5269 123.403C80.8888 123.415 78.2938 122.73 76.0012 121.415C79.3278 117.889 81.1821 113.211 81.1812 108.347C81.1792 107.125 81.0614 105.906 80.8292 104.706C83.4779 106.188 86.4423 107.005 89.4712 107.088C92.5001 107.171 95.5042 106.518 98.2292 105.183C98.4328 106.183 98.5353 107.202 98.5352 108.222M85.7052 89.3321C87.6161 87.5544 89.1409 85.3975 90.1835 82.9974C91.2261 80.5972 91.764 78.0056 91.7632 75.3859C91.7611 74.5731 91.7083 73.7613 91.6052 72.9551C94.4948 73.2674 97.2331 74.4143 99.4901 76.2579C101.747 78.1014 103.426 80.5629 104.326 83.3456C105.225 86.1283 105.306 89.1136 104.559 91.9416C103.812 94.7696 102.269 97.3198 100.115 99.2847C98.6837 96.58 96.6259 94.2625 94.1161 92.5286C91.6063 90.7947 88.7185 89.6954 85.6972 89.324" fill="white"/>
</g>
<defs>
<clipPath id="clip0_68_637">
<rect width="144" height="145" rx="15" fill="white"/>
</clipPath>
</defs>
</svg>
