<svg width="144" height="145" viewBox="0 0 144 145" fill="none" xmlns="http://www.w3.org/2000/svg">
<g clip-path="url(#clip0_68_567)">
<path d="M-0.216797 -0.217529H144.215V145.217H-0.216797V-0.217529Z" fill="#DDA83A"/>
<path d="M11.0234 36.4312L17.7214 26.0577C19.1834 23.7639 20.6454 21.8466 20.6454 19.2789C20.6454 17.4987 19.9654 16.54 18.6454 16.54C16.6454 16.54 16.1634 18.3888 16.1634 20.6484V21.9151H11.0234V20.5416C11.0234 15.6459 13.1314 12.0833 18.5374 12.0833C23.3654 12.0833 25.8474 14.788 25.8474 19.3756C25.8474 22.765 24.1134 25.1273 22.2474 27.9689L16.9394 35.9862H25.0994V40.163H11.0234V36.4312ZM37.7994 12.4116H42.1294V13.7468H39.7034V16.8361H41.6794V18.1834H39.7034V23.0167H37.7994V12.4116ZM42.9274 19.6898V15.7083C42.9274 13.5615 43.7074 12.2847 45.9694 12.2847C48.2314 12.2847 48.9994 13.5635 48.9994 15.7083V19.6898C48.9994 21.8225 48.2194 23.1577 45.9714 23.1577C43.7234 23.1577 42.9274 21.8366 42.9274 19.6898ZM47.0474 20.1469V15.2653C47.0474 14.3751 46.9054 13.7065 45.9694 13.7065C45.0334 13.7065 44.8774 14.3751 44.8774 15.2653V20.1389C44.8774 21.0169 45.0194 21.7238 45.9694 21.7238C46.9194 21.7238 47.0474 21.025 47.0474 20.1389V20.1469ZM50.5054 12.4116H52.5054L53.9994 19.7542L55.5474 12.4116H57.4834L57.6834 23.0147H56.2394L56.0834 15.6439L54.5874 23.0147H53.4314L51.9094 15.6177L51.7674 23.0147H50.3234L50.5054 12.4116ZM59.1634 12.4116H63.5834V13.773H61.0754V16.822H63.0514V18.1713H61.0754V21.6916H63.6094V23.0147H59.1634V12.4116ZM67.3994 21.7701L70.2214 13.7468H67.5494V12.4116H72.1634V13.4064L69.2254 21.6916H72.1774V23.0147H67.3994V21.7701ZM73.2174 12.4116H77.6374V13.773H75.1274V16.822H77.1034V18.1713H75.1274V21.6916H77.6634V23.0147H73.2174V12.4116ZM78.7154 12.4116H81.2514C83.3574 12.4116 84.5534 13.0923 84.5534 15.231C84.5534 16.5018 84.2414 17.3919 83.2534 17.7967L84.7214 23.0207H82.7994L81.5394 18.1632H80.6294V23.0207H78.7174L78.7154 12.4116ZM81.2374 16.9529C82.3434 16.9529 82.7454 16.4696 82.7454 15.3297C82.7454 14.2563 82.4474 13.7327 81.3454 13.7327H80.6314V16.9549L81.2374 16.9529ZM85.7234 19.6898V15.7083C85.7234 13.5615 86.5034 12.2847 88.7654 12.2847C91.0274 12.2847 91.7994 13.5635 91.7994 15.7083V19.6898C91.7994 21.8225 91.0194 23.1577 88.7714 23.1577C86.5234 23.1577 85.7234 21.8366 85.7234 19.6898ZM89.8434 20.1469V15.2653C89.8434 14.3751 89.7014 13.7065 88.7654 13.7065C87.8294 13.7065 87.6734 14.3751 87.6734 15.2653V20.1389C87.6734 21.0169 87.8154 21.7238 88.7654 21.7238C89.7154 21.7238 89.8434 21.025 89.8434 20.1389V20.1469ZM37.7994 29.731H42.2194V31.0924H39.7034V34.1414H41.6794V35.4907H39.7034V39.011H42.2374V40.3341H37.7994V29.731ZM47.9574 29.731H50.0114L52.1174 40.3341H50.3374L49.9214 37.8853H48.0874L47.6594 40.3341H45.8594L47.9574 29.731ZM49.7134 36.6528L48.9994 32.2041L48.2834 36.6528H49.7134ZM52.8334 36.838V33.2775C52.8334 30.9998 53.5214 29.6122 55.8334 29.6122C57.9914 29.6122 58.7454 30.738 58.7454 32.7015V33.2513H56.9134V32.6471C56.9134 31.6261 56.8094 31.0239 55.8594 31.0239C54.8454 31.0239 54.7674 31.8496 54.7674 32.8183V37.2489C54.7674 38.3485 54.9674 39.0432 55.9114 39.0432C56.8554 39.0432 57.0694 38.3102 57.0694 37.1582V36.1634H55.9394V34.945H58.7994V40.3261H57.5514L57.4214 39.291C57.2914 39.6549 57.0476 39.9665 56.7266 40.179C56.4056 40.3914 56.0248 40.4932 55.6414 40.4691C53.5614 40.4791 52.8334 39.0694 52.8334 36.838ZM60.1994 29.731H62.7394C64.8454 29.731 66.0414 30.4117 66.0414 32.5505C66.0414 33.8212 65.7294 34.7114 64.7414 35.1162L66.2094 40.3402H64.2854L63.0254 35.4827H62.1154V40.3402H60.1994V29.731ZM62.7214 34.2723C63.8274 34.2723 64.2294 33.789 64.2294 32.6491C64.2294 31.5757 63.9314 31.0521 62.8294 31.0521H62.1154V34.2744L62.7214 34.2723ZM67.4834 29.731H69.3814V40.3341H67.4834V29.731ZM70.7734 36.9428V33.1607C70.7734 30.9877 71.4614 29.6122 73.7734 29.6122C75.9314 29.6122 76.6214 30.8205 76.6214 32.6632V33.5534H74.7754V32.6371C74.7754 31.7469 74.7614 31.026 73.7874 31.026C72.8134 31.026 72.7074 31.7852 72.7074 32.7539V37.3496C72.7074 38.5015 72.9414 39.0513 73.7874 39.0513C74.7354 39.0513 74.7754 38.3041 74.7754 37.3616V36.4071H76.6214V37.2569C76.6214 39.1298 75.9974 40.4791 73.7734 40.4791C71.4614 40.4791 70.7734 39.011 70.7734 36.9428ZM77.8194 36.9045V29.731H79.6914V37.126C79.6914 38.133 79.8074 39.0372 80.7834 39.0372C81.7594 39.0372 81.8874 38.135 81.8874 37.126V29.731H83.7474V36.9045C83.7474 39.1298 83.1354 40.4771 80.7834 40.4771C78.4314 40.4771 77.8194 39.1298 77.8194 36.9045ZM85.1994 29.731H87.1114V39.011H89.6714V40.3341H85.1994V29.731ZM91.1314 31.1569H89.4534V29.731H94.6934V31.1569H93.0554V40.3341H91.1314V31.1569ZM95.5114 36.9045V29.731H97.3834V37.126C97.3834 38.133 97.4994 39.0372 98.4754 39.0372C99.4514 39.0372 99.5814 38.135 99.5814 37.126V29.731H101.439V36.9045C101.439 39.1298 100.829 40.4771 98.4754 40.4771C96.1214 40.4771 95.5114 39.1298 95.5114 36.9045ZM102.881 29.731H105.417C107.523 29.731 108.719 30.4117 108.719 32.5505C108.719 33.8212 108.407 34.7114 107.419 35.1162L108.887 40.3402H106.963L105.703 35.4827H104.799V40.3402H102.887L102.881 29.731ZM105.399 34.2723C106.505 34.2723 106.907 33.789 106.907 32.6491C106.907 31.5757 106.609 31.0521 105.507 31.0521H104.799V34.2744L105.399 34.2723ZM111.683 29.731H113.737L115.843 40.3341H114.061L113.645 37.8853H111.813L111.383 40.3341H109.583L111.683 29.731ZM113.437 36.6528L112.723 32.2021L111.999 36.6528H113.437ZM37.5314 54.5643L39.1834 54.236C39.2354 55.4927 39.5334 56.3043 40.3834 56.3043C40.9834 56.3043 41.2534 55.8854 41.2534 55.3094C41.2534 54.3931 40.7854 53.8836 40.0974 53.2814L38.7714 52.1154C38.0174 51.4609 37.5494 50.7278 37.5494 49.5497C37.5494 47.8741 38.5894 46.9316 40.2654 46.9316C42.2414 46.9316 42.8014 48.2669 42.9054 49.8115L41.2534 50.0995C41.2154 49.1046 41.0714 48.3595 40.2274 48.3595C39.6554 48.3595 39.3434 48.7905 39.3434 49.3544C39.3434 50.0733 39.6414 50.466 40.2014 50.9514L41.5134 52.1154C42.3734 52.8625 43.0874 53.791 43.0874 55.1926C43.0874 56.7232 42.0214 57.7966 40.4474 57.7966C38.5194 57.7986 37.6094 56.6708 37.5314 54.5643ZM44.0714 54.2239V47.0505H45.9434V54.4455C45.9434 55.4524 46.0594 56.3566 47.0354 56.3566C48.0114 56.3566 48.1394 55.4544 48.1394 54.4455V47.0505H49.9994V54.2239C49.9994 56.4493 49.3874 57.7966 47.0354 57.7966C44.6834 57.7966 44.0714 56.4493 44.0714 54.2239ZM51.1814 54.5643L52.8334 54.236C52.8854 55.4927 53.1834 56.3043 54.0334 56.3043C54.6434 56.3043 54.9034 55.8854 54.9034 55.3094C54.9034 54.3931 54.4354 53.8836 53.7474 53.2814L52.4214 52.1154C51.6674 51.4609 51.1994 50.7278 51.1994 49.5497C51.1994 47.8741 52.2394 46.9316 53.9154 46.9316C55.8914 46.9316 56.4514 48.2669 56.5554 49.8115L54.9034 50.0995C54.8654 49.1046 54.7214 48.3595 53.8774 48.3595C53.3054 48.3595 52.9934 48.7905 52.9934 49.3544C52.9934 50.0733 53.2914 50.466 53.8514 50.9514L55.1634 52.1154C56.0214 52.8625 56.7374 53.791 56.7374 55.1926C56.7374 56.7232 55.6714 57.7966 54.0974 57.7966C52.1694 57.7986 51.2594 56.6708 51.1814 54.5643ZM58.8514 48.4763H57.1754V47.0505H62.4134V48.4763H60.7754V57.6536H58.8514V48.4763ZM63.3114 47.0505H67.7314V48.4119H65.2214V51.4609H67.1994V52.8102H65.2234V56.3305H67.7594V57.6536H63.3114V47.0505ZM68.8094 47.0505H70.1494L72.7094 53.0921V47.0505H74.2954V57.6536H73.0214L70.4474 51.3179V57.6536H68.8094V47.0505ZM76.8834 48.4763H75.1994V47.0505H80.4394V48.4763H78.7994V57.6536H76.8754L76.8834 48.4763ZM82.6554 47.0505H84.7094L86.8154 57.6536H85.0334L84.6174 55.2047H82.7854L82.3554 57.6536H80.5554L82.6554 47.0505ZM84.4094 53.9722L83.6954 49.5215L82.9794 53.9722H84.4094ZM83.9414 43.7014H85.7414L84.1994 46.3194H83.1714L83.9414 43.7014ZM86.9174 47.0505H88.5994L89.9994 54.5502L91.3134 47.0505H93.0414L90.9234 57.6536H89.0374L86.9174 47.0505ZM94.0554 47.0505H98.4754V48.4119H95.9654V51.4609H97.9414V52.8102H95.9654V56.3305H98.5014V57.6536H94.0554V47.0505ZM99.5534 47.0505H101.465V56.3305H104.025V57.6536H99.5534V47.0505ZM57.3274 128.832V130.887C57.3263 130.902 57.3263 130.918 57.3274 130.933C57.3265 130.949 57.3265 130.965 57.3274 130.981C57.3381 131.227 57.4413 131.459 57.6159 131.63C57.7906 131.801 58.0236 131.899 58.2674 131.904H82.2854C82.5368 131.899 82.7763 131.795 82.9527 131.615C83.1291 131.435 83.2284 131.192 83.2294 130.939V128.601C96.7034 124.152 106.799 113.156 109.015 99.756C109.015 99.7278 109.015 99.7016 109.029 99.6774C109.038 99.6329 109.043 99.5878 109.043 99.5425C109.044 99.4144 109.019 99.2875 108.97 99.1692C108.922 99.0508 108.85 98.9432 108.761 98.8527C108.671 98.7621 108.564 98.6903 108.446 98.6414C108.329 98.5925 108.203 98.5675 108.075 98.5678H31.7994C31.6721 98.5672 31.5459 98.5921 31.4281 98.6408C31.3103 98.6896 31.2032 98.7613 31.1131 98.8519C31.0229 98.9425 30.9515 99.0502 30.9028 99.1687C30.8541 99.2872 30.8292 99.4142 30.8294 99.5425L30.8794 99.9795C33.1994 113.509 43.5754 124.565 57.3274 128.832ZM83.1994 65.7837C82.8854 66.2348 75.5154 76.9184 83.3634 85.558C86.9634 89.5234 86.6514 93.0215 85.6234 95.3838H90.6574C91.6774 91.8957 91.2574 87.5196 87.1694 83.0225C81.3874 76.6566 87.2434 68.0533 87.3314 67.9184C88.0214 66.9356 87.6514 65.6709 86.5154 65.0808C85.3794 64.4907 83.8934 64.8069 83.1994 65.7816M70.4574 95.3838H75.4934C76.5114 91.8957 76.0934 87.5296 72.0014 83.0225C66.2154 76.6566 72.0694 68.0553 72.1614 67.9184C72.8474 66.9416 72.4854 65.6789 71.3434 65.0869C70.2014 64.4948 68.7214 64.813 68.0314 65.7877C67.7154 66.2368 60.3394 76.9225 68.1954 85.5621C71.7954 89.5274 71.4814 93.0275 70.4574 95.3878M52.8534 65.7837C52.5354 66.2348 45.1654 76.9184 53.0154 85.558C56.6154 89.5254 56.3054 93.0235 55.2794 95.3838H60.3154C61.3334 91.8978 60.9154 87.5296 56.8214 83.0225C51.0354 76.6566 56.8934 68.0533 56.9854 67.9184C57.6694 66.9396 57.3054 65.6749 56.1634 65.0848C55.0214 64.4948 53.5434 64.8089 52.8534 65.7857" fill="white"/>
</g>
<defs>
<clipPath id="clip0_68_567">
<rect width="144" height="145" rx="15" fill="white"/>
</clipPath>
</defs>
</svg>
