<svg width="145" height="145" viewBox="0 0 145 145" fill="none" xmlns="http://www.w3.org/2000/svg">
<g clip-path="url(#clip0_68_571)">
<path d="M-0.216797 -0.217529H145.218V145.217H-0.216797V-0.217529Z" fill="#4C9F38"/>
<path d="M10.998 32.2544V31.2958H16.2704V32.2222C16.3127 34.9249 16.7839 36.1916 18.528 36.1916C20.3083 36.1916 20.6849 34.8222 20.6849 32.186C20.6849 29.4128 20.0344 27.838 17.6036 27.7695C17.2969 27.7338 16.9878 27.7224 16.6792 27.7353V23.8666H17.5009C19.9659 23.8666 20.6849 22.5999 20.6849 19.7583C20.6849 17.543 20.1713 16.2662 18.4253 16.2662C16.6792 16.2662 16.3127 17.7726 16.2704 19.9375V21.17H10.998V19.6556C10.998 14.794 13.7369 12.0551 18.4273 12.0551C23.1519 12.0551 25.8908 14.6571 25.8908 19.4844C25.8908 22.7368 24.3844 24.9964 22.3987 25.5442C24.4126 26.2974 25.8908 28.1461 25.8908 32.0833C25.8908 37.118 23.8769 40.6423 18.4615 40.6423C12.9153 40.6423 10.998 37.2871 10.998 32.2544ZM37.7928 19.9254L39.4563 19.5972C39.5087 20.8538 39.8087 21.6654 40.6646 21.6654C41.2688 21.6654 41.5407 21.2465 41.5407 20.6706C41.5407 19.7542 41.0694 19.2447 40.3767 18.6426L39.0414 17.4765C38.2822 16.822 37.811 16.089 37.811 14.9108C37.811 13.2353 38.8582 12.2928 40.5458 12.2928C42.5355 12.2928 43.0994 13.628 43.2042 15.1726L41.5407 15.4606C41.5024 14.4658 41.3574 13.7206 40.5076 13.7206C39.9316 13.7206 39.6174 14.1516 39.6174 14.7155C39.6174 15.4344 39.9175 15.8272 40.4814 16.3125L41.8025 17.4765C42.6664 18.2237 43.3874 19.1521 43.3874 20.5537C43.3874 22.0843 42.314 23.1577 40.7291 23.1577C38.7877 23.1597 37.8714 22.0319 37.7928 19.9254ZM45.9874 12.4116H48.0556L50.1762 23.0147H48.3839L47.965 20.5658H46.1183L45.6873 23.0147H43.8748L45.9874 12.4116ZM47.7555 19.3333L47.0346 14.8826L46.3196 19.3333H47.7555ZM51.0402 19.5851V12.4116H52.9252V19.8066C52.9252 20.8135 53.044 21.7178 54.0248 21.7178C55.0055 21.7178 55.1385 20.8156 55.1385 19.8066V12.4116H57.0094V19.5851C57.0094 21.8003 56.3951 23.1577 54.0248 23.1577C51.6544 23.1577 51.0402 21.8104 51.0402 19.5851ZM54.2866 9.0625H56.0991L54.5363 11.6806H53.5012L54.2866 9.0625ZM58.4634 12.4116H60.9626C63.5424 12.4116 64.3278 13.4447 64.3278 15.7103V19.571C64.3278 21.901 63.5223 23.0147 61.0412 23.0147H58.4634V12.4116ZM60.9888 21.6654C62.3119 21.6654 62.3643 20.9585 62.3643 19.6374V15.5794C62.3643 14.3087 62.2334 13.7851 60.9546 13.7851H60.3786V21.6654H60.9888ZM65.6892 12.4116H70.1399V13.773H67.6125V16.822H69.6022V18.1713H67.6125V21.6916H70.1661V23.0147H65.6892V12.4116ZM74.3409 12.4116H78.7916V13.773H76.2662V16.822H78.2559V18.1713H76.2662V21.6916H78.8178V23.0147H74.3409V12.4116ZM38.0627 29.731H40.6808C42.5396 29.731 43.7842 30.3594 43.7842 32.4538C43.7842 33.7487 43.2464 34.4677 42.2516 34.6268C43.4962 34.8624 44.0842 35.7526 44.0842 37.2449C44.0842 39.2728 43.0894 40.3342 41.1258 40.3342H38.0627V29.731ZM40.6546 34.0629C41.8065 34.0629 42.1086 33.5534 42.1086 32.48C42.1086 31.3542 41.5588 31.0703 40.3807 31.0703H39.988V34.0549L40.6546 34.0629ZM40.7331 38.9728C41.9112 38.9728 42.2395 38.423 42.2395 37.2308C42.2395 35.9741 41.8206 35.3981 40.6687 35.3981H39.988V38.9728H40.7331ZM45.2805 29.731H49.7312V31.0924H47.2057V34.1415H49.1955V35.4908H47.2057V39.011H49.7574V40.3342H45.2805V29.731ZM50.9757 29.731H52.9776L54.4839 37.0737L56.0407 29.731H58.0002L58.2016 40.3342H56.7617L56.6046 32.9633L55.1002 40.3342H53.9342L52.4036 32.9372L52.2586 40.3342H50.8066L50.9757 29.731ZM59.6415 35.4444H62.7953V36.6528H59.6415V35.4444ZM64.2755 29.731H68.7262V31.0924H66.1987V34.1415H68.1885V35.4908H66.1987V39.011H68.7523V40.3342H64.2755V29.731ZM69.5498 37.2449L71.2133 36.9166C71.2657 38.1733 71.5658 38.9849 72.4216 38.9849C73.0359 38.9849 73.2977 38.566 73.2977 37.99C73.2977 37.0737 72.8264 36.5642 72.1337 35.962L70.7985 34.796C70.0392 34.1415 69.568 33.4084 69.568 32.2303C69.568 30.5547 70.6152 29.6122 72.3028 29.6122C74.2925 29.6122 74.8564 30.9474 74.9612 32.4921L73.2977 32.7801C73.2594 31.7852 73.1144 31.0401 72.2646 31.0401C71.6886 31.0401 71.3744 31.471 71.3744 32.0349C71.3744 32.7539 71.6745 33.1466 72.2384 33.6319L73.5595 34.796C74.4235 35.5431 75.1444 36.4715 75.1444 37.8732C75.1444 39.4037 74.071 40.4771 72.4861 40.4771C70.5447 40.4792 69.6284 39.3514 69.5498 37.2449ZM77.2731 31.1569H75.5855V29.731H80.8598V31.1569H79.2105V40.3342H77.2731V31.1569ZM83.0852 29.731H85.1535L87.2741 40.3342H85.4817L85.0628 37.8853H83.2161L82.7851 40.3342H80.9726L83.0852 29.731ZM84.8534 36.6528L84.1324 32.2021L83.4135 36.6528H84.8534ZM88.2689 29.731H90.8266C92.9472 29.731 94.1515 30.4117 94.1515 32.5505C94.1515 33.8212 93.8373 34.7114 92.8425 35.1162L94.3207 40.3402H92.3833L91.1146 35.4827H90.1982V40.3402H88.2689V29.731ZM90.8084 34.2724C91.9221 34.2724 92.3269 33.789 92.3269 32.6492C92.3269 31.5758 92.0269 31.0522 90.9172 31.0522H90.1982V34.2744L90.8084 34.2724ZM121.573 90.7579C121.573 86.6476 118.934 83.3065 114.939 83.3065C112.941 83.3065 110.53 85.4936 109.223 86.8389C107.914 85.4916 105.663 83.3025 103.665 83.3025C99.6696 83.3025 96.8703 86.6355 96.8703 90.7539C96.8628 92.7182 97.6239 94.6075 98.9909 96.0182L109.232 106.279L119.458 96.0303C120.824 94.6163 121.583 92.724 121.573 90.7579Z" fill="white"/>
<path d="M77.9682 123.03H77.8655C77.4871 123.007 77.1276 122.856 76.8455 122.603C76.5633 122.35 76.3749 122.009 76.3108 121.635L71.1089 91.3359L63.2366 105.947C63.0684 106.258 62.8065 106.508 62.488 106.662C62.1695 106.815 61.8106 106.865 61.4625 106.803C61.1143 106.741 60.7946 106.57 60.5487 106.316C60.3029 106.062 60.1434 105.737 60.0929 105.387L56.7398 82.0056L50.6176 95.7524C50.4867 96.0512 50.2718 96.3054 49.9989 96.4842C49.7261 96.663 49.4072 96.7586 49.081 96.7593H25.2929C25.0721 96.7593 24.8534 96.7158 24.6494 96.6313C24.4454 96.5468 24.26 96.4229 24.1039 96.2668C23.9477 96.1106 23.8238 95.9253 23.7393 95.7212C23.6548 95.5172 23.6113 95.2985 23.6113 95.0777C23.6113 94.8569 23.6548 94.6382 23.7393 94.4342C23.8238 94.2302 23.9477 94.0448 24.1039 93.8886C24.26 93.7325 24.4454 93.6086 24.6494 93.5241C24.8534 93.4396 25.0721 93.3961 25.2929 93.3961H47.9895L56.045 75.3134C56.1937 74.9805 56.4465 74.7049 56.7654 74.5282C57.0843 74.3514 57.4521 74.2832 57.8132 74.3336C58.1743 74.3841 58.5092 74.5505 58.7675 74.8079C59.0257 75.0652 59.1934 75.3996 59.2451 75.7605L62.6949 99.8688L70.4665 85.4614C70.6325 85.1533 70.8905 84.9048 71.2046 84.7503C71.5186 84.5959 71.873 84.5432 72.2183 84.5998C72.5637 84.6563 72.8828 84.8192 73.1312 85.0657C73.3796 85.3122 73.5449 85.63 73.6041 85.9749L78.4213 114.034L95.9784 55.7122C96.076 55.3876 96.2694 55.1 96.5332 54.8872C96.7971 54.6744 97.1191 54.5463 97.4571 54.5197C97.7951 54.4931 98.1332 54.5693 98.427 54.7383C98.7209 54.9073 98.9569 55.1611 99.104 55.4665L108.348 74.6086C108.444 74.8076 108.499 75.0235 108.512 75.2441C108.524 75.4646 108.493 75.6854 108.42 75.894C108.347 76.1025 108.234 76.2946 108.087 76.4593C107.939 76.624 107.761 76.7582 107.562 76.854C107.363 76.9499 107.147 77.0056 106.927 77.0181C106.706 77.0305 106.485 76.9993 106.277 76.9264C106.068 76.8535 105.876 76.7402 105.712 76.593C105.547 76.4458 105.413 76.2676 105.317 76.0686L97.95 60.8195L79.5793 121.84C79.4736 122.185 79.2601 122.487 78.97 122.701C78.68 122.915 78.3288 123.031 77.9682 123.03Z" fill="white"/>
</g>
<defs>
<clipPath id="clip0_68_571">
<rect width="145" height="145" rx="15" fill="white"/>
</clipPath>
</defs>
</svg>
