<svg width="144" height="145" viewBox="0 0 144 145" fill="none" xmlns="http://www.w3.org/2000/svg">
<g clip-path="url(#clip0_68_576)">
<path d="M-0.216797 -0.217529H144.215V145.217H-0.216797V-0.217529Z" fill="#C5192D"/>
<path d="M18.946 33.6582H10.582V29.5498L17.756 12.4318H23.842V29.6525H26.528V33.6582H23.842V40.163H18.946V33.6582ZM18.946 29.6525V17.8753L14.73 29.6525H18.946ZM37.8 12.4116H42.22V13.773H39.704V16.822H41.68V18.1714H39.704V21.6916H42.238V23.0148H37.8V12.4116ZM43.292 12.4116H45.774C48.336 12.4116 49.116 13.4448 49.116 15.7104V19.571C49.116 21.9011 48.316 23.0148 45.852 23.0148H43.292V12.4116ZM45.8 21.6654C47.114 21.6654 47.166 20.9586 47.166 19.6375V15.5795C47.166 14.3087 47.036 13.7851 45.766 13.7851H45.2V21.6654H45.8ZM50.4 19.5851V12.4116H52.272V19.8066C52.272 20.8136 52.388 21.7178 53.364 21.7178C54.34 21.7178 54.468 20.8156 54.468 19.8066V12.4116H56.328V19.5851C56.328 21.8004 55.716 23.1577 53.364 23.1577C51.012 23.1577 50.4 21.8104 50.4 19.5851ZM57.6 19.6234V15.8413C57.6 13.6683 58.28 12.2848 60.6 12.2848C62.758 12.2848 63.448 13.4931 63.448 15.3358V16.2259H61.6V15.3177C61.6 14.4275 61.586 13.7066 60.612 13.7066C59.638 13.7066 59.532 14.4658 59.532 15.4345V20.0302C59.532 21.1821 59.766 21.7319 60.612 21.7319C61.56 21.7319 61.6 20.9848 61.6 20.0423V19.0877H63.446V19.9375C63.446 21.8104 62.822 23.1598 60.598 23.1598C58.28 23.1598 57.6 21.6916 57.6 19.6234ZM66.288 12.4116H68.342L70.448 23.0148H68.668L68.252 20.5659H66.418L66 23.0148H64.2L66.288 12.4116ZM68.044 19.3334L67.328 14.8827L66.614 19.3334H68.044ZM75.2 16.234V15.3177C75.2 14.4275 75.188 13.7066 74.212 13.7066C73.236 13.7066 73.134 14.4658 73.134 15.4345V20.0302C73.134 21.1821 73.368 21.7319 74.212 21.7319C75.162 21.7319 75.2 20.9848 75.2 20.0423V19.0877H77.046V19.9375C77.046 21.7319 76.474 23.053 74.46 23.1598V23.8143C75.422 23.8143 76.072 24.2473 76.072 25.0589C76.072 25.9873 75.252 26.38 74.304 26.38C73.9869 26.3768 73.6718 26.3287 73.368 26.237V25.4113C73.5952 25.4825 73.8321 25.5178 74.07 25.516C74.524 25.516 74.87 25.3851 74.87 25.0327C74.87 24.5614 74.338 24.3902 73.726 24.3258V23.1336C71.802 22.9322 71.204 21.5366 71.204 19.6254V15.8413C71.2 13.6683 71.892 12.2848 74.2 12.2848C76.358 12.2848 77.046 13.4931 77.046 15.3358V16.2259L75.2 16.234ZM79.9 12.4116H81.954L84.06 23.0148H82.278L81.862 20.5659H80.03L79.6 23.0148H77.8L79.9 12.4116ZM80.3 10.3977C79.962 10.3977 79.846 10.5991 79.846 10.9354H78.936C78.936 9.99295 79.196 9.28607 80.04 9.28607C80.678 9.28607 81.106 9.89024 81.666 9.89024C81.964 9.89024 82.082 9.70697 82.082 9.36663H82.94C82.94 10.1903 82.796 11.016 81.952 11.016C81.278 11.0241 80.836 10.4078 80.302 10.4078L80.3 10.3977ZM81.654 19.3334L80.94 14.8827L80.224 19.3334H81.654ZM84.774 19.6898V15.7084C84.774 13.5616 85.554 12.2848 87.816 12.2848C90.078 12.2848 90.846 13.5555 90.846 15.7084V19.6898C90.846 21.8225 90.066 23.1577 87.816 23.1577C85.566 23.1577 84.774 21.8366 84.774 19.6898ZM88.896 20.1389V15.2653C88.896 14.3752 88.752 13.7066 87.816 13.7066C86.88 13.7066 86.724 14.3752 86.724 15.2653V20.1389C86.724 21.017 86.868 21.7239 87.816 21.7239C88.764 21.7239 88.896 21.025 88.896 20.1389ZM37.8 29.7311H40.284C42.844 29.7311 43.624 30.7642 43.624 33.0298V36.8904C43.624 39.2205 42.824 40.3342 40.362 40.3342H37.8V29.7311ZM40.31 38.995C41.622 38.995 41.674 38.2881 41.674 36.967V32.8989C41.674 31.6282 41.544 31.1045 40.274 31.1045H39.702V38.9849L40.31 38.995ZM44.968 29.7311H49.388V31.0925H46.88V34.1415H48.856V35.4908H46.88V39.0111H49.414V40.3342H44.968V29.7311ZM56.656 40.4651C56.5825 40.4755 56.5082 40.4795 56.434 40.4772C54.16 40.4792 53.4 39.1561 53.4 37.0093V33.0278C53.4 30.881 54.18 29.6042 56.442 29.6042C58.704 29.6042 59.472 30.875 59.472 33.0278V37.0073C59.472 38.5257 59.072 39.6515 58.016 40.1489C58.3165 40.538 58.6708 40.8819 59.068 41.17L58.704 42.4528C58.06 42.1527 57.176 41.2505 56.656 40.4651ZM57.526 37.4584V32.5848C57.526 31.6946 57.37 31.026 56.434 31.026C55.498 31.026 55.342 31.6946 55.342 32.5848V37.4584C55.342 38.3364 55.486 39.0433 56.434 39.0433C57.382 39.0433 57.526 38.3445 57.526 37.4584ZM60.75 36.9045V29.7311H62.622V37.1261C62.622 38.133 62.74 39.0373 63.714 39.0373C64.688 39.0373 64.82 38.135 64.82 37.1261V29.7311H66.678V36.9045C66.678 39.1299 66.068 40.4772 63.714 40.4772C61.36 40.4772 60.75 39.1299 60.75 36.9045ZM69.642 29.7311H71.696L73.8 40.3342H72.02L71.6 37.8853H69.766L69.338 40.3342H67.538L69.642 29.7311ZM71.4 36.6528L70.684 32.2021L69.968 36.6528H71.4ZM74.8 29.7311H76.712V39.0111H79.272V40.3342H74.8V29.7311ZM80.25 29.7311H82.148V40.3342H80.25V29.7311ZM83.708 29.7311H86.2C88.76 29.7311 89.54 30.7642 89.54 33.0298V36.8904C89.54 39.2205 88.74 40.3342 86.278 40.3342H83.708V29.7311ZM86.218 38.995C87.53 38.995 87.582 38.2881 87.582 36.967V32.8989C87.582 31.6282 87.452 31.1045 86.182 31.1045H85.62V38.9849L86.218 38.995ZM92.38 29.7311H94.434L96.54 40.3342H94.758L94.342 37.8853H92.508L92.08 40.3342H90.28L92.38 29.7311ZM94.134 36.6528L93.42 32.2021L92.704 36.6528H94.134ZM97.526 29.7311H100.01C102.572 29.7311 103.352 30.7642 103.352 33.0298V36.8904C103.352 39.2205 102.552 40.3342 100.088 40.3342H97.526V29.7311ZM100.036 38.995C101.348 38.995 101.4 38.2881 101.4 36.967V32.8989C101.4 31.6282 101.272 31.1045 100.01 31.1045H99.438V38.9849L100.036 38.995ZM104.702 29.7311H109.122V31.0925H106.614V34.1415H108.6V35.4908H106.624V39.0111H109.158V40.3342H104.702V29.7311ZM63.792 77.7865L37.768 62.6561V111.604L63.792 119.508V77.7865ZM66.654 77.8872V119.526L92.846 111.598V62.6582L66.654 77.8872ZM107.116 110.736L110.196 121.57L113.272 110.736V67.1874H107.116V110.736Z" fill="white"/>
<path d="M98.4348 64.7586L95.6468 62.5393V112.931L66.7308 122.338H63.7928L35.0068 114.24V62.5393L32.2148 64.7586V116.211L63.6608 124.978H66.8628L95.8728 115.702L98.4348 114.943V64.7586ZM113.275 61.4236C113.285 61.0098 113.213 60.5981 113.063 60.2127C112.913 59.8274 112.688 59.4761 112.401 59.1797C112.114 58.8833 111.771 58.6478 111.393 58.4869C111.014 58.3261 110.607 58.2432 110.196 58.2432C109.785 58.2432 109.378 58.3261 108.999 58.4869C108.62 58.6478 108.277 58.8833 107.99 59.1797C107.703 59.4761 107.478 59.8274 107.328 60.2127C107.178 60.5981 107.106 61.0098 107.117 61.4236V64.7667H113.275V61.4236Z" fill="white"/>
</g>
<defs>
<clipPath id="clip0_68_576">
<rect width="144" height="145" rx="15" fill="white"/>
</clipPath>
</defs>
</svg>
