<svg width="144" height="145" viewBox="0 0 144 145" fill="none" xmlns="http://www.w3.org/2000/svg">
<g clip-path="url(#clip0_68_585)">
<path d="M-0.216797 -0.217529H144.215V145.217H-0.216797V-0.217529Z" fill="#FF3A21"/>
<path d="M11.127 32.1175H16.227C16.227 35.1645 16.601 36.7495 18.505 36.6709C20.505 36.6024 20.613 34.3429 20.613 30.7138C20.613 27.7695 20.307 25.6791 18.267 25.6791C17.043 25.6791 16.267 26.535 15.921 28.1783H11.401L11.775 12.4297H24.421V16.9851H16.057L15.785 23.1134C16.329 22.4287 17.723 21.8809 19.253 21.7782C23.503 21.4016 25.577 24.799 25.577 30.4742C25.577 36.3628 24.455 40.6081 18.199 40.6081C12.385 40.6081 11.127 37.257 11.127 32.1175ZM37.845 12.4116H39.743V23.0147H37.845V12.4116ZM41.135 19.5186V15.9581C41.135 13.6804 41.823 12.2928 44.135 12.2928C46.293 12.2928 47.049 13.4185 47.049 15.3821V15.9319H45.215V15.3277C45.215 14.3067 45.111 13.7045 44.161 13.7045C43.147 13.7045 43.069 14.5302 43.069 15.4989V19.9375C43.069 21.0371 43.269 21.7319 44.213 21.7319C45.157 21.7319 45.371 20.9988 45.371 19.8469V18.852H44.241V17.6437H47.103V23.0248H45.853L45.723 21.9897C45.5929 22.3536 45.3491 22.6652 45.0281 22.8777C44.7071 23.0901 44.3263 23.1919 43.943 23.1678C41.863 23.1597 41.135 21.75 41.135 19.5186ZM48.427 19.5851V12.4116H50.299V19.8066C50.299 20.8135 50.417 21.7178 51.391 21.7178C52.365 21.7178 52.497 20.8156 52.497 19.8066V12.4116H54.3549V19.5851C54.3549 21.8004 53.755 23.1577 51.391 23.1577C49.027 23.1577 48.427 21.8104 48.427 19.5851ZM57.319 12.4116H59.373L61.479 23.0147H59.699L59.283 20.5658H57.449L57.021 23.0147H55.221L57.319 12.4116ZM59.075 19.3333L58.359 14.8826L57.645 19.3333H59.075ZM62.4669 12.4116H64.379V21.6916H66.939V23.0147H62.4669V12.4116ZM67.875 12.4116H70.359C72.919 12.4116 73.699 13.4447 73.699 15.7104V19.571C73.699 21.901 72.899 23.0147 70.437 23.0147H67.875V12.4116ZM70.385 21.6654C71.697 21.6654 71.749 20.9585 71.749 19.6374V15.5795C71.749 14.3087 71.619 13.7851 70.359 13.7851H69.787V21.6654H70.385ZM76.547 12.4116H78.601L80.707 23.0147H78.9249L78.509 20.5658H76.677L76.247 23.0147H74.447L76.547 12.4116ZM78.301 19.3333L77.587 14.8826L76.871 19.3333H78.301ZM81.693 12.4116H84.177C86.739 12.4116 87.519 13.4447 87.519 15.7104V19.571C87.519 21.901 86.7189 23.0147 84.255 23.0147H81.693V12.4116ZM84.201 21.6654C85.515 21.6654 85.5669 20.9585 85.5669 19.6374V15.5795C85.5669 14.3087 85.437 13.7851 84.167 13.7851H83.601V21.6654H84.201ZM88.8689 12.4116H93.291V13.773H90.781V16.822H92.757V18.1713H90.781V21.6916H93.3169V23.0147H88.8689V12.4116ZM37.801 29.7311H40.285C42.845 29.7311 43.627 30.7642 43.627 33.0298V36.8904C43.627 39.2205 42.827 40.3342 40.363 40.3342H37.801V29.7311ZM40.311 38.9949C41.623 38.9949 41.677 38.2881 41.677 36.967V32.8989C41.677 31.6281 41.545 31.1045 40.277 31.1045H39.705V38.9849L40.311 38.9949ZM44.969 29.7311H49.389V31.0924H46.881V34.1415H48.857V35.4908H46.881V39.0111H49.415V40.3342H44.969V29.7311ZM53.401 36.8381V33.2775C53.401 30.9998 54.091 29.6122 56.401 29.6122C58.559 29.6122 59.313 30.738 59.313 32.7015V33.2513H57.479V32.6472C57.479 31.6261 57.375 31.024 56.427 31.024C55.413 31.024 55.335 31.8497 55.335 32.8183V37.2489C55.335 38.3485 55.535 39.0433 56.479 39.0433C57.423 39.0433 57.635 38.3102 57.635 37.1583V36.1634H56.501V34.945H59.361V40.3261H58.113L57.983 39.291C57.697 39.9717 57.183 40.4691 56.201 40.4691C54.121 40.4792 53.401 39.0695 53.401 36.8381ZM60.765 29.7311H65.185V31.0924H62.675V34.1415H64.651V35.4908H62.675V39.0111H65.2109V40.3342H60.765V29.7311ZM62.201 26.4847H63.801L65.001 28.9013H63.689L63.013 27.3305L62.3489 28.9013H61.049L62.201 26.4847ZM66.263 29.7311H67.601L70.1609 35.7727V29.7311H71.747V40.3342H70.4729L67.901 33.9985V40.3342H66.263V29.7311ZM73.283 29.7311H77.703V31.0924H75.201V34.1415H77.177V35.4908H75.201V39.0111H77.735V40.3342H73.283V29.7311ZM78.783 29.7311H81.3169C83.423 29.7311 84.6189 30.4117 84.6189 32.5505C84.6189 33.8213 84.307 34.7114 83.319 35.1162L84.789 40.3402H82.865L81.601 35.4767H80.691V40.3342H78.781L78.783 29.7311ZM81.305 34.2724C82.409 34.2724 82.813 33.789 82.813 32.6492C82.813 31.5758 82.513 31.0522 81.413 31.0522H80.697V34.2744L81.305 34.2724ZM85.789 37.0092V33.0278C85.789 30.881 86.569 29.6042 88.831 29.6042C91.0929 29.6042 91.861 30.8749 91.861 33.0278V37.0072C91.861 39.1399 91.081 40.4751 88.831 40.4751C86.581 40.4751 85.789 39.156 85.789 37.0092ZM89.9109 37.4583V32.5847C89.9109 31.6946 89.767 31.026 88.831 31.026C87.895 31.026 87.739 31.6946 87.739 32.5847V37.4583C87.739 38.3364 87.8829 39.0433 88.831 39.0433C89.779 39.0433 89.9109 38.3445 89.9109 37.4583ZM105.137 54.7315H87.1049C87.0443 54.7315 86.9861 54.7556 86.943 54.7986C86.8999 54.8416 86.8755 54.9 86.875 54.961V61.0027C86.8755 61.064 86.8999 61.1226 86.9429 61.1659C86.9859 61.2092 87.0441 61.2338 87.1049 61.2343H94.285L86.313 69.2576C82.83 66.5016 78.647 64.7883 74.2425 64.3136C69.8379 63.8389 65.3896 64.622 61.4063 66.5734C57.423 68.5248 54.0655 71.5656 51.7179 75.3482C49.3702 79.1307 48.1272 83.5022 48.131 87.9626C48.131 100.046 57.115 110.029 68.701 111.541V118.493H61.589C61.5587 118.493 61.5286 118.498 61.5005 118.51C61.4723 118.521 61.4467 118.538 61.4251 118.559C61.4035 118.58 61.3864 118.606 61.3747 118.634C61.363 118.662 61.3569 118.692 61.357 118.723V125.191C61.3567 125.222 61.3625 125.252 61.3741 125.281C61.3857 125.309 61.4029 125.334 61.4245 125.356C61.4462 125.377 61.4719 125.394 61.5002 125.405C61.5284 125.416 61.5586 125.422 61.589 125.421H68.701V132.268C68.7007 132.299 68.7065 132.329 68.7179 132.357C68.7294 132.385 68.7463 132.411 68.7677 132.433C68.7891 132.454 68.8146 132.471 68.8426 132.483C68.8706 132.494 68.9007 132.5 68.931 132.5H75.351C75.3813 132.5 75.4114 132.494 75.4396 132.483C75.4677 132.471 75.4933 132.454 75.5149 132.433C75.5365 132.411 75.5536 132.386 75.5653 132.357C75.5769 132.329 75.583 132.299 75.583 132.268V125.421H82.695C82.725 125.421 82.7547 125.415 82.7825 125.404C82.8103 125.393 82.8355 125.376 82.8568 125.354C82.878 125.333 82.8948 125.308 82.9061 125.28C82.9175 125.252 82.9232 125.222 82.923 125.191V118.723C82.923 118.662 82.8989 118.604 82.8562 118.56C82.8134 118.517 82.7554 118.493 82.695 118.493H75.583V111.428C79.5292 110.777 83.2463 109.127 86.3856 106.633C89.5248 104.139 91.9832 100.882 93.5299 97.1689C95.0766 93.4557 95.6609 89.4076 95.228 85.4047C94.7951 81.4018 93.3591 77.5752 91.055 74.2843L98.915 66.3677V73.1223C98.9152 73.1527 98.9214 73.1828 98.9332 73.2108C98.945 73.2388 98.9622 73.2642 98.9837 73.2855C99.0053 73.3068 99.0308 73.3236 99.0588 73.335C99.0868 73.3464 99.1168 73.3521 99.147 73.3519H105.137C105.198 73.3524 105.257 73.3286 105.301 73.2856C105.345 73.2426 105.37 73.1839 105.371 73.1223V54.961C105.37 54.8994 105.345 54.8407 105.301 54.7977C105.257 54.7547 105.198 54.7309 105.137 54.7315ZM71.751 105.469C68.3122 105.47 64.9506 104.443 62.0913 102.52C59.2319 100.597 57.0032 97.8625 55.687 94.6636C54.3707 91.4647 54.0262 87.9446 54.6968 84.5485C55.3674 81.1524 57.0231 78.0328 59.4545 75.5842C61.8859 73.1357 64.9838 71.4681 68.3564 70.7924C71.729 70.1168 75.2248 70.4633 78.4018 71.7883C81.5788 73.1133 84.2943 75.3572 86.2047 78.2362C88.1152 81.1152 89.135 84.5001 89.135 87.9626C89.1312 92.6042 87.2986 97.0547 84.0393 100.337C80.7801 103.619 76.3605 105.465 71.751 105.469Z" fill="white"/>
<path d="M82.3687 80.7771H61.2827C61.226 80.7742 61.1704 80.7936 61.1275 80.8312C61.0846 80.8687 61.0578 80.9215 61.0527 80.9785V86.1179C61.0538 86.1471 61.0605 86.1758 61.0727 86.2023C61.0849 86.2288 61.1022 86.2526 61.1236 86.2723C61.145 86.292 61.1701 86.3072 61.1975 86.317C61.2248 86.3268 61.2538 86.331 61.2827 86.3294H82.3687C82.398 86.3315 82.4274 86.3277 82.4552 86.3182C82.483 86.3087 82.5086 86.2936 82.5305 86.2738C82.5523 86.2541 82.57 86.2301 82.5824 86.2033C82.5948 86.1765 82.6017 86.1474 82.6027 86.1179V80.9845C82.5976 80.9268 82.5703 80.8734 82.5265 80.8357C82.4828 80.7981 82.4261 80.7792 82.3687 80.7831M82.3687 89.9564H61.2827C61.2242 89.9542 61.1671 89.9754 61.1241 90.0154C61.081 90.0554 61.0553 90.1109 61.0527 90.1698V95.3093C61.0568 95.3667 61.0833 95.4201 61.1264 95.4578C61.1695 95.4955 61.2257 95.5146 61.2827 95.5107H82.3687C82.4263 95.5151 82.4832 95.4964 82.5271 95.4587C82.5709 95.4209 82.5981 95.3672 82.6027 95.3093V90.1698C82.6015 90.1403 82.5944 90.1113 82.5819 90.0845C82.5694 90.0578 82.5518 90.0338 82.53 90.0139C82.5082 89.9941 82.4828 89.9787 82.4551 89.9689C82.4274 89.959 82.3981 89.9547 82.3687 89.9564Z" fill="white"/>
</g>
<defs>
<clipPath id="clip0_68_585">
<rect width="144" height="145" rx="15" fill="white"/>
</clipPath>
</defs>
</svg>
