<svg width="145" height="146" viewBox="0 0 145 146" fill="none" xmlns="http://www.w3.org/2000/svg">
<g clip-path="url(#clip0_68_581)">
<path d="M-0.216797 -0.218994H145.218V146.219H-0.216797V-0.218994Z" fill="#26BDE2"/>
<path d="M11.5117 31.6496V21.7134C11.5117 16.2749 13.0181 12.1667 18.9752 12.1667C24.0764 12.1667 25.9594 14.6831 25.9936 19.2335V19.7161H20.9951C20.9951 17.372 20.7555 16.2344 19.0094 16.2344C17.3319 16.2344 16.8868 17.5788 16.8868 21.8878V24.7146C17.4688 23.7149 18.804 23.1288 20.4473 23.0923C24.8638 23.0234 26.4387 26.5051 26.4387 31.1244C26.4387 36.8123 24.6584 40.8111 19.0094 40.8111C13.6948 40.8192 11.5117 36.9238 11.5117 31.6496ZM21.1321 32.0389C21.1321 29.2122 21.0636 27.1722 19.0094 27.1722C18.577 27.185 18.1549 27.3089 17.7834 27.5321C17.4119 27.7554 17.1033 28.0705 16.8868 28.4477V32.8906C16.8868 34.9934 17.3319 36.8549 19.0437 36.8549C20.7897 36.8549 21.1321 35.0968 21.1321 32.0389ZM39.6397 12.4972H41.708L43.8286 23.1734H42.0362L41.6153 20.7077H39.7706L39.3376 23.1734H37.5251L39.6397 12.4972ZM41.4059 19.4667L40.6809 14.9873L39.966 19.4667H41.4059ZM40.9346 9.125H42.7471L41.1844 11.7611H40.1492L40.9346 9.125ZM44.5476 19.6532V16.0681C44.5476 13.7747 45.2423 12.3776 47.5684 12.3776C49.7414 12.3776 50.5006 13.5111 50.5006 15.4882V16.0418H48.6539V15.4334C48.6539 14.4053 48.5491 13.799 47.5946 13.799C46.5735 13.799 46.495 14.6304 46.495 15.6058V20.075C46.495 21.1822 46.6964 21.8818 47.6469 21.8818C48.5975 21.8818 48.811 21.1436 48.811 19.9838V18.982H47.6731V17.7654H50.5489V23.1836H49.3003L49.1694 22.1413C48.8814 22.8267 48.3639 23.3276 47.3751 23.3276C45.2806 23.3194 44.5476 21.9 44.5476 19.6532ZM51.8922 19.7201V12.4972H53.7712V19.9432C53.7712 20.9571 53.888 21.8676 54.8707 21.8676C55.8535 21.8676 55.9824 20.9591 55.9824 19.9432V12.4972H57.8553V19.7201C57.8553 21.9507 57.2391 23.3174 54.8707 23.3174C52.5024 23.3174 51.8922 21.9608 51.8922 19.7201ZM60.846 12.4972H62.9142L65.0348 23.1734H63.2364L62.8176 20.7077H60.9728L60.5398 23.1734H58.7273L60.846 12.4972ZM62.6121 19.4667L61.8932 14.9853L61.1722 19.4667H62.6121ZM69.1452 12.4972H72.2607C74.1578 12.4972 74.9694 13.6044 74.9694 15.5287C74.9694 17.6234 73.8436 18.4284 72.1298 18.4284H71.0685V23.1734H69.1452V12.4972ZM71.8156 17.0577C72.8749 17.0577 73.1508 16.6521 73.1508 15.5145C73.1508 14.3769 73.0058 13.868 71.8156 13.868H71.0685V17.0577H71.8156ZM75.8071 19.8256V15.8167C75.8071 13.6551 76.5926 12.3694 78.8703 12.3694C81.148 12.3694 81.9213 13.649 81.9213 15.8167V19.8256C81.9213 21.973 81.1359 23.3174 78.8703 23.3174C76.6046 23.3174 75.8071 21.9872 75.8071 19.8256ZM79.9517 20.2778V15.3706C79.9517 14.4743 79.8067 13.8011 78.8642 13.8011C77.9217 13.8011 77.7646 14.4743 77.7646 15.3706V20.2778C77.7646 21.1619 77.9096 21.8736 78.8642 21.8736C79.8188 21.8736 79.9517 21.17 79.9517 20.2778ZM84.2896 13.9329H82.602V12.4972H87.8764V13.9329H86.227V23.1734H84.2896V13.9329ZM90.1017 12.4972H92.17L94.2906 23.1734H92.4982L92.0794 20.7077H90.2326L89.8017 23.1734H87.9892L90.1017 12.4972ZM91.8699 19.4667L91.1489 14.9853L90.4239 19.4667H91.8699ZM91.3987 9.125H93.2112L91.6524 11.7611H90.6193L91.3987 9.125ZM94.3953 12.4972H96.0971L97.5068 20.0486L98.8279 12.4972H100.57L98.4352 23.1734H96.5361L94.3953 12.4972ZM101.581 12.4972H106.032V13.868H103.514V16.938H105.504V18.2966H103.514V21.8412H106.068V23.1734H101.581V12.4972ZM107.119 12.4972H109.042V21.8412H111.622V23.1734H107.119V12.4972ZM38.0628 29.9361H42.5135V31.3069H39.9801V34.3769H41.9698V35.7355H39.9801V39.2801H42.5317V40.6123H38.0628V29.9361ZM46.4467 37.5017L48.1081 37.1712C48.1605 38.4365 48.4626 39.2537 49.3164 39.2537C49.9327 39.2537 50.1945 38.8319 50.1945 38.252C50.1945 37.3294 49.7232 36.8163 49.0285 36.21L47.6932 35.0359C46.934 34.3769 46.4628 33.6388 46.4628 32.4526C46.4628 30.7654 47.51 29.8164 49.1996 29.8164C51.1894 29.8164 51.7512 31.1609 51.858 32.7162L50.1945 33.0061C50.1542 32.0044 50.0112 31.2541 49.1594 31.2541C48.5834 31.2541 48.2692 31.6881 48.2692 32.2559C48.2692 32.9798 48.5713 33.3752 49.1332 33.8639L50.4563 35.0359C51.3203 35.7883 52.0412 36.7231 52.0412 38.1344C52.0412 39.6755 50.9658 40.7563 49.3829 40.7563C47.4415 40.7583 46.5212 39.6228 46.4467 37.5017ZM54.6412 29.9361H56.7094L58.8301 40.6123H57.0357L56.6168 38.1466H54.7781L54.3451 40.6123H52.5326L54.6412 29.9361ZM56.4073 36.9056L55.6884 32.4242L54.9674 36.9056H56.4073ZM59.8249 29.9361H61.1722L63.752 36.0194V29.9361H65.349V40.6123H64.0662L61.4743 34.2329V40.6123H59.8249V29.9361ZM66.8937 29.9361H71.3444V31.3069H68.8169V34.3769H70.8066V35.7355H68.8169V39.2801H71.3705V40.6123H66.8937V29.9361ZM74.0148 29.9361H76.083L78.2037 40.6123H76.4093L75.9904 38.1466H74.1457L73.7087 40.6123H71.8962L74.0148 29.9361ZM75.781 36.9056L75.062 32.4242L74.341 36.9056H75.781ZM79.3476 29.9361H81.3614L82.8678 37.3294L84.4246 29.9361H86.376L86.5774 40.6123H85.1274L84.9703 33.1907L83.466 40.6123H82.2999L80.7694 33.1643L80.6244 40.6123H79.1723L79.3476 29.9361ZM88.0737 29.9361H92.5244V31.3069H89.997V34.3769H91.9867V35.7355H89.997V39.2801H92.5506V40.6123H88.0737V29.9361ZM93.6099 29.9361H94.9592L97.537 36.0194V29.9361H99.134V40.6123H97.8512L95.2573 34.2329V40.6123H93.6079L93.6099 29.9361ZM101.74 31.3718H100.05V29.9361H105.327V31.3718H103.677V40.6123H101.74V31.3718ZM106.005 37.2645V33.2556C106.005 31.0939 106.791 29.8083 109.069 29.8083C111.346 29.8083 112.12 31.0879 112.12 33.2556V37.2624C112.12 39.4099 111.334 40.7543 109.069 40.7543C106.803 40.7543 106.005 39.4261 106.005 37.2645ZM110.16 37.7167V32.8094C110.16 31.9132 110.017 31.2399 109.073 31.2399C108.128 31.2399 107.975 31.9132 107.975 32.8094V37.7167C107.975 38.6008 108.118 39.3125 109.073 39.3125C110.027 39.3125 110.16 38.6089 110.16 37.7167ZM99.4079 58.9292C99.3468 58.8633 99.2724 58.8111 99.1898 58.7761C99.1072 58.7412 99.0182 58.7243 98.9286 58.7265H45.917C45.8278 58.7252 45.7394 58.7425 45.6572 58.7775C45.5751 58.8124 45.501 58.864 45.4397 58.9292C45.3844 58.9998 45.3441 59.081 45.3213 59.1678C45.2984 59.2547 45.2935 59.3453 45.3068 59.4342L54.2122 113.665C54.2362 113.81 54.3098 113.941 54.4202 114.037C54.5306 114.132 54.6708 114.186 54.8164 114.188H65.7457L66.4929 123.021H61.8932L72.595 133.797L83.323 122.999H78.7253L79.4704 114.18H90.5931C90.7409 114.181 90.884 114.128 90.9954 114.03C91.1067 113.932 91.1786 113.796 91.1973 113.649L99.5287 59.4261C99.5437 59.3393 99.5406 59.2504 99.5199 59.1649C99.4991 59.0794 99.4609 58.9992 99.4079 58.9292ZM78.9226 102.346C78.0723 103.128 77.0732 103.728 75.9859 104.109C74.8986 104.491 73.7457 104.646 72.597 104.566C71.4476 104.647 70.2939 104.492 69.2058 104.11C68.1178 103.729 67.1181 103.128 66.2673 102.346C62.296 98.3513 63.7117 93.3812 65.0953 90.812C65.9471 89.204 72.0492 79.9796 72.5748 79.1949V79.132L72.597 79.1624L72.6191 79.132V79.1949C73.1307 79.9796 79.2408 89.204 80.0947 90.812C81.4782 93.3812 82.89 98.3472 78.9226 102.346ZM95.7366 70.3396C94.3007 69.7028 92.4801 69.934 90.7321 70.6458C84.1547 73.3305 79.6778 74.2958 72.7601 72.1139C68.4041 70.7411 64.33 67.8657 59.5107 69.6156C56.3147 70.7735 53.3342 71.8786 49.7192 71.8462L47.6328 61.0686H97.2389L95.7366 70.3396Z" fill="white"/>
</g>
<defs>
<clipPath id="clip0_68_581">
<rect width="145" height="146" rx="15" fill="white"/>
</clipPath>
</defs>
</svg>
