<svg width="145" height="146" viewBox="0 0 145 146" fill="none" xmlns="http://www.w3.org/2000/svg">
<g clip-path="url(#clip0_68_590)">
<path d="M-0.216797 -0.218994H145.218V146.219H-0.216797V-0.218994Z" fill="#FCC30B"/>
<path d="M17.948 16.5852H10.416V12.5175H23.1176V15.9992L17.2632 40.44H12.1278L17.948 16.5852ZM36.2502 12.4972H40.7009V13.868H38.1654V16.938H40.1551V18.2966H38.1654V21.8412H40.719V23.1735H36.2502V12.4972ZM41.583 12.4972H42.9302L45.51 18.5805V12.4972H47.1071V23.1735H45.8242L43.2323 16.7941V23.1735H41.583V12.4972ZM48.4543 12.4972H52.905V13.868H50.3796V16.938H52.3613V18.2966H50.3716V21.8412H52.9232V23.1735H48.4543V12.4972ZM53.7952 12.4972H56.3488C58.4694 12.4972 59.6737 13.1826 59.6737 15.3361C59.6737 16.6156 59.3596 17.5119 58.3647 17.9195L59.8429 23.1795H57.9055L56.6368 18.2885H55.7205V23.1795H53.7952V12.4972ZM56.3347 17.0698C57.4484 17.0698 57.8532 16.5832 57.8532 15.4355C57.8532 14.3546 57.5531 13.8274 56.4434 13.8274H55.7245V17.0719L56.3347 17.0698ZM60.6545 19.6532V16.0681C60.6545 13.7747 61.3493 12.3776 63.6753 12.3776C65.8483 12.3776 66.6075 13.5111 66.6075 15.4882V16.0418H64.7608V15.4334C64.7608 14.4053 64.6561 13.799 63.7015 13.799C62.6805 13.799 62.6019 14.6304 62.6019 15.6058V20.075C62.6019 21.1822 62.8033 21.8818 63.7539 21.8818C64.7044 21.8818 64.9179 21.1436 64.9179 19.9838V18.982H63.78V17.7654H66.6599V23.1836H65.4032L65.2723 22.1413C64.9843 22.8267 64.4668 23.3276 63.478 23.3276C61.3875 23.3195 60.6545 21.9 60.6545 19.6532ZM67.9327 12.4972H69.8439V23.1735H67.9327V12.4972ZM72.8023 12.4972H74.8705L76.9911 23.1735H75.1988L74.7799 20.7077H72.9332L72.5002 23.1735H70.6877L72.8023 12.4972ZM74.5705 19.4667L73.8495 14.9853L73.1305 19.4667H74.5705ZM80.7088 12.4972H82.6321V21.8412H85.2118V23.1735H80.7088V12.4972ZM86.0093 12.4972H87.9205V23.1735H86.0093V12.4972ZM89.4531 12.4972H91.4549L92.9613 19.8905L94.518 12.4972H96.4655L96.6668 23.1735H95.2269L95.0698 15.7518L93.5655 23.1735H92.3974L90.8668 15.7254L90.7218 23.1735H89.2698L89.4531 12.4972ZM97.9739 12.4972H101.097C102.996 12.4972 103.808 13.6044 103.808 15.5287C103.808 17.6234 102.682 18.4285 100.966 18.4285H99.9072V23.1735H97.9819L97.9739 12.4972ZM100.644 17.0577C101.706 17.0577 101.979 16.6521 101.979 15.5145C101.979 14.377 101.836 13.868 100.644 13.868H99.8991V17.0577H100.644ZM105.645 12.4972H107.713L109.834 23.1735H108.041L107.622 20.7077H105.776L105.345 23.1735H103.532L105.645 12.4972ZM107.413 19.4667L106.692 14.9853L105.973 19.4667H107.413ZM36.2502 29.9361H40.7009V31.3069H38.1654V34.3769H40.1551V35.7355H38.1654V39.2801H40.719V40.6123H36.2502V29.9361ZM46.086 29.9361H48.1543L50.2749 40.6123H48.4805L48.0616 38.1466H46.2169L45.7839 40.6123H43.9714L46.086 29.9361ZM47.8522 36.9056L47.1252 32.4262L46.4123 36.9056H47.8522ZM50.7985 37.1976V33.3894C50.7985 31.2014 51.4913 29.8165 53.8193 29.8165C55.9923 29.8165 56.6871 31.0331 56.6871 32.8885V33.7848H54.8283V32.8622C54.8283 31.9659 54.8142 31.24 53.8334 31.24C52.8527 31.24 52.7459 32.0044 52.7459 32.9798V37.6072C52.7459 38.7671 52.9816 39.3206 53.8334 39.3206C54.788 39.3206 54.8283 38.5683 54.8283 37.6193V36.6582H56.6871V37.5139C56.6871 39.3997 56.0588 40.7583 53.8193 40.7583C51.4913 40.7583 50.7985 39.2801 50.7985 37.1976ZM57.7746 29.9361H62.2293V31.3069H59.6999V34.3769H61.6896V35.7355H59.6999V39.2801H62.2515V40.6123H57.7746V29.9361ZM62.8537 37.5017L64.5171 37.1712C64.5695 38.4365 64.8696 39.2537 65.7255 39.2537C66.3397 39.2537 66.6015 38.832 66.6015 38.252C66.6015 37.3294 66.1302 36.8163 65.4375 36.21L64.1023 35.036C63.343 34.3769 62.8718 33.6388 62.8718 32.4526C62.8718 30.7655 63.919 29.8165 65.6066 29.8165C67.5964 29.8165 68.1602 31.1609 68.265 32.7162L66.6015 33.0061C66.5632 32.0044 66.4182 31.2541 65.5684 31.2541C64.9924 31.2541 64.6782 31.6881 64.6782 32.2559C64.6782 32.9798 64.9783 33.3752 65.5422 33.8639L66.8633 35.036C67.7273 35.7883 68.4482 36.7231 68.4482 38.1344C68.4482 39.6755 67.3748 40.7563 65.7899 40.7563C63.8405 40.7583 62.9322 39.6228 62.8537 37.5017ZM68.9537 37.5017L70.6172 37.1712C70.6696 38.4365 70.9696 39.2537 71.8255 39.2537C72.4418 39.2537 72.7036 38.832 72.7036 38.252C72.7036 37.3294 72.2323 36.8163 71.5396 36.21L70.2023 35.036C69.4431 34.3769 68.9718 33.6388 68.9718 32.4526C68.9718 30.7655 70.0191 29.8165 71.7087 29.8165C73.6984 29.8165 74.2623 31.1609 74.3671 32.7162L72.7016 33.0061C72.6633 32.0044 72.5183 31.2541 71.6684 31.2541C71.0925 31.2541 70.7763 31.6881 70.7763 32.2559C70.7763 32.9798 71.0784 33.3752 71.6423 33.8639L72.9634 35.036C73.8273 35.7883 74.5483 36.7231 74.5483 38.1344C74.5483 39.6755 73.4749 40.7563 71.89 40.7563C69.9486 40.7583 69.0323 39.6228 68.9537 37.5017ZM75.4727 29.9361H77.3839V40.6123H75.4727V29.9361ZM76.681 26.5619H78.4935L76.9307 29.2H75.8976L76.681 26.5619ZM78.2599 29.9361H79.9616L81.3714 37.4875L82.6925 29.9361H84.4345L82.2998 40.6123H80.3946L78.2599 29.9361ZM85.2501 29.9361H89.7008V31.3069H87.1754V34.3769H89.1651V35.7355H87.1754V39.2801H89.727V40.6123H85.2501V29.9361ZM90.5909 29.9361H92.5162V39.2801H95.094V40.6123H90.5909V29.9361ZM72.5525 71.1243C68.3167 71.1235 64.1757 72.3876 60.6533 74.7566C57.1309 77.1256 54.3854 80.4932 52.764 84.4334C51.1425 88.3736 50.7179 92.7096 51.544 96.8928C52.37 101.076 54.4095 104.919 57.4046 107.935C60.3997 110.951 64.2158 113.005 68.3703 113.837C72.5247 114.669 76.831 114.242 80.7444 112.609C84.6578 110.977 88.0026 108.213 90.3557 104.667C92.7088 101.12 93.9646 96.9508 93.9642 92.6857C93.9642 86.9676 91.7084 81.4837 87.693 77.4402C83.6776 73.3967 78.2315 71.1249 72.5525 71.1243ZM70.9676 79.641C70.9676 78.9231 71.6825 78.1323 72.5626 78.1323C73.4427 78.1323 74.1475 78.9231 74.1475 79.641V87.0424C74.1475 87.7582 73.4387 88.5389 72.5626 88.5389C71.6866 88.5389 70.9676 87.7582 70.9676 87.0424V79.641ZM72.5566 103.733C69.8934 103.731 67.3191 102.768 65.3001 101.019C63.2812 99.2707 61.9512 96.8516 61.5511 94.2005C61.151 91.5494 61.7074 88.8417 63.1193 86.568C64.5313 84.2944 66.7054 82.6052 69.2477 81.8066V85.9778C67.7861 86.7246 66.617 87.9454 65.9289 89.4432C65.2408 90.9411 65.074 92.6287 65.4553 94.2338C65.8366 95.8388 66.7438 97.2677 68.0305 98.29C69.3172 99.3123 70.9085 99.8682 72.5475 99.8682C74.1865 99.8682 75.7778 99.3123 77.0645 98.29C78.3512 97.2677 79.2584 95.8388 79.6397 94.2338C80.021 92.6287 79.8542 90.9411 79.1661 89.4432C78.4781 87.9454 77.3089 86.7246 75.8473 85.9778V81.8046C78.3939 82.5978 80.5736 84.2842 81.9906 86.5577C83.4076 88.8312 83.9678 91.541 83.5696 94.1949C83.1713 96.8489 81.841 99.271 79.8203 101.022C77.7995 102.772 75.2223 103.735 72.5566 103.735M47.973 92.4971C47.973 91.5197 47.1131 90.7289 46.3277 90.7289H36.951C36.1596 90.7289 35.2916 91.5197 35.2916 92.4971C35.2916 93.4745 36.1596 94.2734 36.951 94.2734H46.3196C47.105 94.2734 47.965 93.4765 47.965 92.4971M109.826 92.4971C109.826 91.5197 108.964 90.7289 108.178 90.7289H98.8016C98.0121 90.7289 97.1441 91.5197 97.1441 92.4971C97.1441 93.4745 98.0121 94.2734 98.8016 94.2734H108.178C108.964 94.2734 109.826 93.4765 109.826 92.4971Z" fill="white"/>
<path d="M72.5626 130.023C73.5312 130.023 74.3187 129.157 74.3187 128.366V118.925C74.3187 118.13 73.5312 117.254 72.5626 117.254C71.5939 117.254 70.7964 118.13 70.7964 118.925V128.358C70.7964 129.149 71.5899 130.015 72.5626 130.015M104.904 111.136C105.385 110.289 105.03 109.169 104.348 108.778L96.2096 104.088C95.5249 103.692 94.379 103.946 93.8977 104.796C93.4164 105.645 93.7748 106.771 94.4616 107.166L102.6 111.854C103.28 112.248 104.412 111.986 104.904 111.136ZM54.0509 125.069C54.8927 125.554 56.0023 125.195 56.393 124.51L61.0512 116.315C61.4539 115.624 61.1921 114.472 60.3483 113.987C59.5045 113.503 58.3848 113.864 57.9941 114.553L53.336 122.747C52.9473 123.433 53.2051 124.572 54.0509 125.069ZM91.1387 125.027C91.9785 124.54 92.2322 123.394 91.8415 122.709L87.1673 114.525C86.7645 113.833 85.6589 113.472 84.8171 113.959C83.9753 114.446 83.7195 115.602 84.1162 116.293L88.7885 124.477C89.1812 125.163 90.2928 125.515 91.1387 125.027ZM40.2558 111.209C40.7391 112.055 41.8669 112.31 42.5576 111.917L50.6837 107.211C51.3704 106.805 51.7329 105.692 51.2476 104.844C50.7622 103.997 49.6143 103.739 48.9316 104.137L40.8015 108.843C40.1208 109.236 39.7704 110.36 40.2558 111.209ZM72.5626 67.746C73.5312 67.746 74.3187 66.8802 74.3187 66.0893V56.648C74.3187 55.8511 73.5312 54.9771 72.5626 54.9771C71.5939 54.9771 70.7964 55.8511 70.7964 56.648V66.0893C70.7964 66.8802 71.5899 67.746 72.5626 67.746ZM51.2214 80.2006C51.7047 79.353 51.3503 78.2357 50.6676 77.8423L42.5294 73.1541C41.8427 72.7486 40.6988 73.0101 40.2155 73.8578C39.7321 74.7054 40.0946 75.8348 40.7794 76.2302L48.9175 80.9205C49.6002 81.3139 50.73 81.0523 51.2214 80.2006ZM84.7728 71.0189C85.6166 71.5035 86.7242 71.1446 87.1149 70.4592L91.773 62.2649C92.1658 61.5735 91.914 60.4217 91.0722 59.935C90.2304 59.4484 89.1087 59.8113 88.716 60.5028L84.0598 68.6971C83.6692 69.3845 83.9269 70.5322 84.7728 71.0189ZM60.306 71.0391C61.1458 70.5525 61.3996 69.4068 61.0089 68.7214L56.3346 60.5353C55.9319 59.8458 54.8262 59.4828 53.9844 59.9715C53.1426 60.4602 52.8869 61.614 53.2816 62.3035L57.9558 70.4876C58.3586 71.173 59.4602 71.5278 60.306 71.0391ZM93.8735 80.1621C94.3569 81.0097 95.4947 81.2652 96.1754 80.8718L104.303 76.1654C104.988 75.7598 105.351 74.6445 104.867 73.7969C104.384 72.9493 103.236 72.6938 102.549 73.0913L94.4193 77.7977C93.7386 78.1911 93.3882 79.3145 93.8735 80.1621Z" fill="white"/>
</g>
<defs>
<clipPath id="clip0_68_590">
<rect width="145" height="146" rx="15" fill="white"/>
</clipPath>
</defs>
</svg>
