<svg width="145" height="146" viewBox="0 0 145 146" fill="none" xmlns="http://www.w3.org/2000/svg">
<g clip-path="url(#clip0_68_595)">
<path d="M-0.216797 -0.218994H145.218V146.219H-0.216797V-0.218994Z" fill="#A21942"/>
<path d="M11.0998 32.2417C11.1341 29.2426 12.1954 26.864 14.3523 25.7528C12.8459 24.6497 11.5791 22.7111 11.5107 19.6167C11.4422 15.0055 13.8387 12.1667 18.5271 12.1667C23.2154 12.1667 25.5757 15.0279 25.477 19.6127C25.4085 22.7496 24.2102 24.6821 22.7039 25.7487C24.8265 26.8518 25.9261 29.2304 25.9563 32.2376C26.059 37.3395 24.0391 40.8557 18.5271 40.8557C13.0513 40.8536 11.0757 37.3375 11.0998 32.2417ZM20.7544 32.5864C20.7886 30.3558 20.5148 28.105 18.5391 28.105C16.5877 28.105 16.2795 30.3457 16.2795 32.5864C16.2695 34.4722 16.5132 36.8893 18.5271 36.8893C20.5409 36.8893 20.7544 34.4418 20.7544 32.5803V32.5864ZM20.4805 19.4464C20.4805 17.5159 19.8643 16.1715 18.5291 16.1715C17.1596 16.1715 16.5152 17.5159 16.5152 19.4464C16.5152 22.1352 17.0972 23.7554 18.5291 23.7554C19.9368 23.7554 20.4805 22.1352 20.4805 19.4464ZM37.5019 13.9329H35.8143V12.4972H41.0826V13.9329H39.4332V23.1734H37.4959L37.5019 13.9329ZM41.717 12.4972H44.2706C46.3912 12.4972 47.5955 13.1826 47.5955 15.3361C47.5955 16.6156 47.2814 17.5119 46.2865 17.9195L47.7647 23.1795H45.8273L44.5586 18.2885H43.6423V23.1795H41.717V12.4972ZM44.2565 17.0698C45.3702 17.0698 45.775 16.5832 45.775 15.4354C45.775 14.3546 45.4749 13.8274 44.3652 13.8274H43.6463V17.0719L44.2565 17.0698ZM50.3042 12.4972H52.3725L54.4931 23.1734H52.7007L52.2818 20.7077H50.4351L50.0041 23.1734H48.1916L50.3042 12.4972ZM52.0724 19.4667L51.3534 14.9873L50.6325 19.4667H52.0724ZM55.2141 12.4972H57.8321C59.6909 12.4972 60.9335 13.1299 60.9335 15.2387C60.9335 16.5426 60.3978 17.2665 59.403 17.4267C60.6455 17.664 61.2356 18.5602 61.2356 20.0628C61.2356 22.1048 60.2407 23.1734 58.2772 23.1734H55.2141V12.4972ZM57.7979 16.8589C58.9498 16.8589 59.2499 16.3459 59.2499 15.2651C59.2499 14.1316 58.7001 13.8457 57.522 13.8457H57.1293V16.8589H57.7979ZM57.8764 21.8027C59.0546 21.8027 59.3808 21.2491 59.3808 20.0486C59.3808 18.7833 58.9619 18.2034 57.81 18.2034H57.1293V21.8027H57.8764ZM63.7348 12.4972H65.8031L67.9237 23.1734H66.1314L65.7125 20.7077H63.8657L63.4368 23.1734H61.6243L63.7348 12.4972ZM65.503 19.4667L64.782 14.9853L64.0631 19.4667H65.503ZM68.6447 12.4972H70.568V21.8412H73.1477V23.1734H68.6447V12.4972ZM73.8405 12.4972H75.7658V16.9583H77.9247V12.4972H79.8621V23.1734H77.9247V18.3494H75.7658V23.1734H73.8405V12.4972ZM80.9737 19.8256V15.8167C80.9737 13.655 81.7591 12.3694 84.0389 12.3694C86.3186 12.3694 87.0879 13.649 87.0879 15.8167V19.8256C87.0879 21.973 86.3025 23.3174 84.0389 23.3174C81.7752 23.3174 80.9737 21.9872 80.9737 19.8256ZM85.1243 20.2778V15.3705C85.1243 14.4743 84.9814 13.801 84.0389 13.801C83.0964 13.801 82.9393 14.4743 82.9393 15.3705V20.2778C82.9393 21.1619 83.0823 21.8736 84.0389 21.8736C84.9955 21.8736 85.1243 21.17 85.1243 20.2778ZM91.015 12.4972H93.5142C96.094 12.4972 96.8794 13.5374 96.8794 15.8187V19.7059C96.8794 22.0521 96.0739 23.1734 93.5927 23.1734H91.015V12.4972ZM93.5404 21.8148C94.8635 21.8148 94.9159 21.1031 94.9159 19.7729V15.6869C94.9159 14.4074 94.785 13.8801 93.5061 13.8801H92.9302V21.8148H93.5404ZM97.9649 12.4972H102.416V13.868H99.8882V16.938H101.878V18.2966H99.8882V21.8412H102.44V23.1734H97.9649V12.4972ZM103.058 19.7587V15.9505C103.058 13.7625 103.751 12.3775 106.079 12.3775C108.254 12.3694 108.951 13.5861 108.951 15.4496V16.3459H107.092V15.4233C107.092 14.527 107.078 13.801 106.097 13.801C105.116 13.801 105.009 14.5655 105.009 15.5409V20.1683C105.009 21.3282 105.245 21.8817 106.097 21.8817C107.052 21.8817 107.092 21.1294 107.092 20.1804V19.2193H108.951V20.075C108.951 21.9608 108.322 23.3194 106.083 23.3194C103.751 23.3194 103.058 21.8412 103.058 19.7587ZM109.958 12.4972H114.408V13.868H111.881V16.938H113.871V18.2966H111.881V21.8412H114.432V23.1734H109.958V12.4972ZM115.218 12.4972H116.567L119.145 18.5805V12.4972H120.742V23.1734H119.459L116.867 16.794V23.1734H115.218V12.4972ZM123.072 13.9329H121.384V12.4972H126.659V13.9329H125.009V23.1734H123.072V13.9329ZM127.287 12.4972H131.738V13.868H129.212V16.938H131.202V18.2966H129.212V21.8412H131.764V23.1734H127.287V12.4972ZM36.4507 29.9361H40.9014V31.3069H38.3659V34.3769H40.3556V35.7355H38.3659V39.2801H40.9195V40.6123H36.4507V29.9361ZM44.3753 37.1975V33.3894C44.3753 31.2014 45.0681 29.8164 47.3961 29.8164C49.5691 29.8164 50.2639 31.0331 50.2639 32.8885V33.7848H48.4051V32.8622C48.4051 31.9659 48.391 31.2399 47.4102 31.2399C46.4295 31.2399 46.3227 32.0044 46.3227 32.9798V37.6072C46.3227 38.767 46.5584 39.3206 47.4102 39.3206C48.3648 39.3206 48.4051 38.5683 48.4051 37.6193V36.6582H50.2639V37.5139C50.2639 39.3997 49.6356 40.7583 47.3961 40.7583C45.0681 40.7583 44.3753 39.2801 44.3753 37.1975ZM51.2729 29.9361H53.8265C55.9471 29.9361 57.1514 30.6215 57.1514 32.775C57.1514 34.0545 56.8373 34.9508 55.8424 35.3583L57.3206 40.6184H55.3812L54.1125 35.7274H53.1961V40.6184H51.2729V29.9361ZM53.8124 34.5087C54.9261 34.5087 55.3309 34.022 55.3309 32.8743C55.3309 31.7935 55.0308 31.2663 53.9212 31.2663H53.2022V34.5107L53.8124 34.5087ZM58.2772 29.9361H62.7279V31.3069H60.2005V34.3769H62.1902V35.7355H60.2005V39.2801H62.7541V40.6123H58.2772V29.9361ZM63.2777 37.5017L64.9391 37.1712C64.9915 38.4365 65.2936 39.2537 66.1475 39.2537C66.7637 39.2537 67.0255 38.8319 67.0255 38.252C67.0255 37.3293 66.5543 36.8163 65.8595 36.21L64.5243 35.0359C63.765 34.3769 63.2938 33.6388 63.2938 32.4525C63.2938 30.7654 64.341 29.8164 66.0307 29.8164C68.0204 29.8164 68.5823 31.1609 68.687 32.7162L67.0255 33.0061C66.9852 32.0044 66.8423 31.2541 65.9904 31.2541C65.4144 31.2541 65.1002 31.6881 65.1002 32.2559C65.1002 32.9798 65.4023 33.3752 65.9642 33.8639L67.2873 35.0359C68.1513 35.7882 68.8702 36.723 68.8702 38.1344C68.8702 39.6755 67.7968 40.7563 66.2139 40.7563C64.2725 40.7583 63.3562 39.6228 63.2777 37.5017ZM69.4945 37.1975V33.3894C69.4945 31.2014 70.1893 29.8164 72.5154 29.8164C74.6884 29.8164 75.3811 31.0331 75.3811 32.8885V33.7848H73.5264V32.8622C73.5264 31.9659 73.5143 31.2399 72.5315 31.2399C71.5487 31.2399 71.446 32.0044 71.446 32.9798V37.6072C71.446 38.767 71.6816 39.3206 72.5315 39.3206C73.4881 39.3206 73.5264 38.5683 73.5264 37.6193V36.6582H75.3852V37.5139C75.3852 39.3997 74.7568 40.7583 72.5194 40.7583C70.1893 40.7583 69.4945 39.2801 69.4945 37.1975ZM76.4465 29.9361H78.3577V40.6123H76.4465V29.9361ZM79.8097 29.9361H81.8115L83.3179 37.3293L84.8766 29.9361H86.8261L87.0275 40.6123H85.5896L85.4325 33.1907L83.9261 40.6123H82.762L81.2295 33.1643L81.0845 40.6123H79.6325L79.8097 29.9361ZM88.2519 29.9361H92.7046V31.3069H90.1772V34.3769H92.1669V35.7355H90.1772V39.2801H92.7308V40.6123H88.2519V29.9361ZM93.5142 29.9361H94.8635L97.4413 36.0194V29.9361H99.0383V40.6123H97.7555L95.1636 34.2329V40.6123H93.5142V29.9361ZM101.368 31.3717H99.6868V29.9361H104.961V31.3717H103.312V40.6123H101.374L101.368 31.3717ZM105.362 37.2645V33.2555C105.362 31.0939 106.147 29.8083 108.425 29.8083C110.703 29.8083 111.474 31.0879 111.474 33.2555V37.2624C111.474 39.4098 110.689 40.7543 108.425 40.7543C106.161 40.7543 105.362 39.4261 105.362 37.2645ZM109.511 37.7248V32.8094C109.511 31.9132 109.368 31.2399 108.425 31.2399C107.483 31.2399 107.325 31.9132 107.325 32.8094V37.7167C107.325 38.6008 107.468 39.3125 108.425 39.3125C109.382 39.3125 109.511 38.6089 109.511 37.7167V37.7248ZM36.4507 47.375H40.9014V48.7457H38.3659V51.8158H40.3556V53.1744H38.3659V56.719H40.9195V58.0512H36.4507V47.375ZM41.5337 54.6364V50.8283C41.5337 48.6403 42.2285 47.2553 44.5546 47.2553C46.7275 47.2553 47.4203 48.472 47.4203 50.3274V51.2237H45.5615V50.301C45.5615 49.4048 45.5494 48.6788 44.5666 48.6788C43.5839 48.6788 43.4812 49.4433 43.4812 50.4187V55.046C43.4812 56.2059 43.7168 56.7595 44.5666 56.7595C45.5232 56.7595 45.5615 56.0072 45.5615 55.0582V54.097H47.4203V54.9528C47.4203 56.8386 46.792 58.1972 44.5546 58.1972C42.2285 58.1972 41.5337 56.719 41.5337 54.6364ZM48.2621 54.7033V50.6944C48.2621 48.5328 49.0475 47.2472 51.3252 47.2472C53.603 47.2472 54.3743 48.5349 54.3743 50.6944V54.7013C54.3743 56.8487 53.5889 58.1932 51.3232 58.1932C49.0576 58.1932 48.2621 56.865 48.2621 54.7033ZM52.4128 55.1555V50.2483C52.4128 49.352 52.2677 48.6788 51.3252 48.6788C50.3827 48.6788 50.2257 49.352 50.2257 50.2483V55.1555C50.2257 56.0397 50.3707 56.7514 51.3252 56.7514C52.2798 56.7514 52.4128 56.0478 52.4128 55.1555ZM55.4618 47.375H56.8111L59.3889 53.4583V47.375H60.9859V58.0512H59.703L57.1111 51.6718V58.0512H55.4618V47.375ZM62.0855 54.7033V50.6944C62.0855 48.5328 62.8709 47.2472 65.1486 47.2472C67.4263 47.2472 68.1996 48.5267 68.1996 50.6944V54.7013C68.1996 56.8487 67.4142 58.1932 65.1486 58.1932C62.883 58.1932 62.0855 56.865 62.0855 54.7033ZM64.337 44.1062H65.934L67.1423 46.5395H65.8212L65.1405 44.9579L64.4719 46.5395H63.1629L64.337 44.1062ZM66.2361 55.1555V50.2483C66.2361 49.352 66.0911 48.6788 65.1486 48.6788C64.2061 48.6788 64.0409 49.352 64.0409 50.2483V55.1555C64.0409 56.0397 64.1859 56.7514 65.1405 56.7514C66.0951 56.7514 66.2361 56.0478 66.2361 55.1555ZM69.4422 47.375H71.446L72.9504 54.7682L74.5132 47.375H76.4626L76.664 58.0512H75.2241L75.067 50.6295L73.5606 58.0512H72.3966L70.864 50.6032L70.721 58.0512H69.267L69.4422 47.375ZM77.9368 47.375H79.848V58.0512H77.9368V47.375ZM80.9757 54.6364V50.8283C80.9757 48.6403 81.6685 47.2553 83.9966 47.2553C86.1695 47.2553 86.8643 48.472 86.8643 50.3274V51.2237H85.0055V50.301C85.0055 49.4048 84.9914 48.6788 84.0107 48.6788C83.0299 48.6788 82.9232 49.4433 82.9232 50.4187V55.046C82.9232 56.2059 83.1588 56.7595 84.0107 56.7595C84.9652 56.7595 85.0055 56.0072 85.0055 55.0582V54.097H86.8643V54.9528C86.8643 56.8386 86.236 58.1972 83.9966 58.1972C81.6685 58.1972 80.9757 56.719 80.9757 54.6364ZM87.7041 54.7033V50.6944C87.7041 48.5328 88.4895 47.2472 90.7673 47.2472C93.045 47.2472 93.8163 48.5267 93.8163 50.6944V54.7013C93.8163 56.8487 93.0309 58.1932 90.7673 58.1932C88.5036 58.1932 87.7041 56.865 87.7041 54.7033ZM91.8527 55.1555V50.2483C91.8527 49.352 91.7098 48.6788 90.7673 48.6788C89.8248 48.6788 89.6677 49.352 89.6677 50.2483V55.1555C89.6677 56.0397 89.8107 56.7514 90.7673 56.7514C91.7239 56.7514 91.8527 56.0478 91.8527 55.1555ZM99.7855 76.4695L85.0378 90.597C84.4799 91.1547 84.1959 91.5643 84.1959 92.7181V132.31C84.1962 132.422 84.2182 132.531 84.2606 132.634C84.3031 132.736 84.3652 132.829 84.4433 132.908C84.5215 132.986 84.6142 133.048 84.7162 133.09C84.8182 133.133 84.9275 133.154 85.0378 133.154H100.271C100.493 133.154 100.706 133.065 100.864 132.907C101.021 132.749 101.11 132.534 101.111 132.31V76.8264C101.111 76.36 100.748 75.5063 99.7855 76.4695ZM57.2984 94.8757L42.5467 108.999C41.9929 109.559 41.7069 109.968 41.7069 111.118V132.31C41.708 132.534 41.7969 132.748 41.9542 132.906C42.1115 133.064 42.3245 133.153 42.5467 133.154H57.7818C58.0043 133.154 58.2178 133.065 58.3756 132.907C58.5334 132.749 58.6225 132.535 58.6236 132.31V95.2285C58.6236 94.7621 58.257 93.9064 57.2984 94.8757Z" fill="white"/>
<path d="M106.489 59.3388C106.491 59.2795 106.481 59.2203 106.459 59.1651C106.437 59.1099 106.404 59.0599 106.362 59.0185C106.289 58.9467 106.192 58.9036 106.09 58.8968H105.889L94.5948 61.4619L94.3934 61.4842C94.311 61.5016 94.235 61.5416 94.1739 61.5998C94.0947 61.681 94.0503 61.7902 94.0503 61.904C94.0503 62.0178 94.0947 62.127 94.1739 62.2081L94.3008 62.3359L96.8805 64.9315L71.2901 90.7146L59.4685 78.8136C59.4372 78.7813 59.3998 78.7556 59.3584 78.7381C59.3171 78.7206 59.2727 78.7115 59.2279 78.7115C59.183 78.7115 59.1386 78.7206 59.0973 78.7381C59.056 78.7556 59.0185 78.7813 58.9872 78.8136L55.7831 82.0418L36.8324 101.119C36.7696 101.184 36.7344 101.271 36.7344 101.361C36.7344 101.452 36.7696 101.539 36.8324 101.604L40.0446 104.836C40.0758 104.868 40.113 104.893 40.154 104.91C40.1949 104.927 40.2389 104.936 40.2832 104.936C40.3276 104.936 40.3715 104.927 40.4125 104.91C40.4534 104.893 40.4906 104.868 40.5219 104.836L59.2309 86.0021L67.808 94.6384C67.8151 94.6529 67.8239 94.6665 67.8342 94.679L71.0423 97.9052C71.0737 97.9375 71.1111 97.9631 71.1524 97.9807C71.1938 97.9982 71.2382 98.0072 71.283 98.0072C71.3279 98.0072 71.3723 97.9982 71.4136 97.9807C71.4549 97.9631 71.4923 97.9375 71.5237 97.9052L100.566 68.6626L103.275 71.3879C103.333 71.4464 103.406 71.4868 103.487 71.504C103.567 71.5213 103.651 71.5147 103.727 71.4851C103.804 71.4554 103.871 71.4041 103.919 71.3372C103.967 71.2703 103.995 71.1907 104 71.1081V71.0716L106.479 59.4646L106.489 59.3388Z" fill="white"/>
<path d="M78.6259 97.3536L71.4927 104.599C71.4275 104.654 71.3444 104.682 71.2596 104.679C71.1747 104.675 71.0942 104.64 71.0335 104.581L64.5649 97.9417C63.3807 96.7534 63.127 97.7166 63.127 98.183V132.308C63.1264 132.419 63.1476 132.529 63.1892 132.631C63.2309 132.734 63.2922 132.827 63.3696 132.905C63.4471 132.984 63.5391 133.046 63.6406 133.089C63.742 133.132 63.8508 133.154 63.9607 133.154H79.1998C79.422 133.153 79.6348 133.063 79.7917 132.905C79.9487 132.747 80.0371 132.532 80.0376 132.308V97.6213C80.0376 97.1549 79.6731 96.2992 78.6279 97.3536" fill="white"/>
</g>
<defs>
<clipPath id="clip0_68_595">
<rect width="145" height="146" rx="15" fill="white"/>
</clipPath>
</defs>
</svg>
