<svg width="144" height="146" viewBox="0 0 144 146" fill="none" xmlns="http://www.w3.org/2000/svg">
<g clip-path="url(#clip0_68_601)">
<path d="M-0.216797 -0.218994H144.215V146.219H-0.216797V-0.218994Z" fill="#FD6925"/>
<path d="M11.4323 33.6834V33.2779H16.4003C16.4003 35.622 16.6723 36.7595 18.4003 36.7595C20.0663 36.7595 20.4403 35.4151 20.4403 31.1061V28.2713C19.8623 29.271 18.5703 29.857 16.9723 29.8935C12.5183 29.9624 10.9883 26.205 10.9883 21.5796C11.0003 15.9302 13.0003 12.1667 18.4003 12.1667C23.6363 12.1667 25.8123 15.7862 25.8123 21.0889V31.2582C25.8123 36.7048 24.2823 40.807 18.3663 40.807C13.3023 40.8192 11.4323 38.3027 11.4323 33.6834ZM20.4423 24.5483V20.1013C20.4423 17.9985 20.1023 16.137 18.4023 16.137C16.6683 16.137 16.3623 17.9296 16.3623 20.9632C16.3623 23.8243 16.3963 25.8298 18.4363 25.8298C19.4903 25.8237 20.1023 25.1444 20.4423 24.5483ZM32.0403 12.3045H33.9383V22.9808H32.0403V12.3045ZM34.8883 12.3045H36.2263L38.7883 18.3879V12.3045H40.3743V22.9808H39.1003L36.5263 16.6014V22.9808H34.8883V12.3045ZM41.2963 12.3045H43.7803C46.3403 12.3045 47.1203 13.3468 47.1203 15.626V19.5153C47.1203 21.8615 46.3203 22.9808 43.8583 22.9808H41.2963V12.3045ZM43.8063 21.6323C45.1183 21.6323 45.1703 20.9206 45.1703 19.5883V15.4942C45.1703 14.2167 45.0403 13.6895 43.7803 13.6895H43.2003V21.6242L43.8063 21.6323ZM47.7843 19.5275V12.3045H49.6563V19.7526C49.6563 20.7665 49.7723 21.6769 50.7483 21.6769C51.7243 21.6769 51.8523 20.7665 51.8523 19.7526V12.3045H53.7123V19.5275C53.7123 21.758 53.1003 23.1268 50.7483 23.1268C48.3963 23.1268 47.7843 21.7682 47.7843 19.5275ZM51.0003 8.92221H52.8003L51.2523 11.5583H50.2263L51.0003 8.92221ZM54.2843 19.8722L55.9343 19.5437C55.9863 20.809 56.2863 21.6262 57.1343 21.6262C57.7463 21.6262 58.0063 21.2045 58.0063 20.6245C58.0063 19.7019 57.5383 19.1868 56.8483 18.5805L55.5223 17.4085C54.7683 16.7494 54.3003 16.0113 54.3003 14.8251C54.3003 13.138 55.3403 12.189 57.0183 12.189C58.9943 12.189 59.5523 13.5334 59.6563 15.0887L58.0003 15.3766C57.9603 14.3749 57.8183 13.6226 56.9723 13.6226C56.4003 13.6226 56.0883 14.0586 56.0883 14.6243C56.0883 15.3503 56.3883 15.7457 56.9463 16.2324L58.2603 17.4064C59.1183 18.1567 59.8323 19.0935 59.8323 20.5029C59.8323 22.046 58.7663 23.1268 57.1943 23.1268C55.2723 23.1268 54.3623 21.9933 54.2843 19.8722ZM61.3423 13.7422H59.6643V12.3045H64.9043V13.7422H63.2663V22.9808H61.3423V13.7422ZM65.2003 12.3045H67.7343C69.8403 12.3045 71.0363 12.9899 71.0363 15.1434C71.0363 16.4209 70.7243 17.3172 69.7363 17.7268L71.2003 22.9808H69.2763L68.0143 18.0918H67.1003V22.9808H65.2003V12.3045ZM67.7223 16.8792C68.8263 16.8792 69.2303 16.3905 69.2303 15.2448C69.2303 14.164 68.9303 13.6368 67.8303 13.6368H67.1003V16.8812L67.7223 16.8792ZM71.8583 12.3045H73.7563V22.9808H71.8583V12.3045ZM76.2783 12.3045H78.3323L80.4383 22.9808H78.6583L78.2423 20.517H76.4003L75.9723 22.9808H74.1723L76.2783 12.3045ZM78.0343 19.2781L77.3183 14.8028L76.6003 19.2781H78.0343ZM80.6603 24.1143C80.9111 24.0583 81.1339 23.9133 81.2886 23.7055C81.4434 23.4977 81.5198 23.2407 81.5043 22.9808H80.5683V21.2024H82.2983V22.8247C82.2983 23.9582 81.8163 24.5787 80.8423 24.7632L80.6603 24.1143ZM85.4443 12.3045H87.3423V22.9808H85.4443V12.3045ZM88.2903 12.3045H89.6303L92.1903 18.3879V12.3045H93.7763V22.9808H92.5023L89.9283 16.6014V22.9808H88.2903V12.3045ZM94.5303 19.6329V15.626C94.5303 13.4644 95.3103 12.1788 97.5723 12.1788C99.8343 12.1788 100.6 13.4644 100.6 15.626V19.6329C100.6 21.7824 99.8203 23.1268 97.5703 23.1268C95.3203 23.1268 94.5303 21.7945 94.5303 19.6329ZM98.6523 20.0953V15.1779C98.6523 14.2816 98.5083 13.6104 97.5723 13.6104C96.6363 13.6104 96.4803 14.2816 96.4803 15.1779V20.0953C96.4803 20.9774 96.6243 21.6891 97.5723 21.6891C98.5203 21.6891 98.6523 20.9774 98.6523 20.0953ZM100.8 12.3045H102.49L103.89 19.858L105.2 12.3045H106.93L104.8 22.9808H102.916L100.8 12.3045ZM108.504 12.3045H110.56L112.666 22.9808H110.884L110.468 20.517H108.634L108.2 22.9808H106.4L108.504 12.3045ZM110.26 19.2781L109.546 14.8028L108.83 19.2842L110.26 19.2781ZM116.812 16.1533V15.2306C116.812 14.3344 116.8 13.6084 115.824 13.6084C114.848 13.6084 114.746 14.3729 114.746 15.3482V19.9756C114.746 21.1355 114.98 21.6891 115.824 21.6891C116.774 21.6891 116.812 20.9388 116.812 19.9898V19.0266H118.658V19.8844C118.658 21.6891 118.086 23.0213 116.072 23.1288V23.7878C117.034 23.7878 117.684 24.2218 117.684 25.039C117.684 25.9758 116.864 26.3712 115.916 26.3712C115.599 26.3684 115.284 26.3192 114.98 26.2252V25.3959C115.208 25.4666 115.444 25.5022 115.682 25.5013C116.136 25.5013 116.482 25.3695 116.482 25.0126C116.482 24.5381 115.95 24.3678 115.338 24.3009V23.1025C113.4 22.9017 112.8 21.4944 112.8 19.568V15.7578C112.8 13.5699 113.488 12.1869 115.8 12.1869C117.958 12.1869 118.646 13.4036 118.646 15.257V16.1533H116.812ZM120.894 12.3045H122.948L125.054 22.9808H123.274L122.858 20.517H121.024L120.6 22.9808H118.8L120.894 12.3045ZM121.294 10.2889C120.956 10.2889 120.84 10.4917 120.84 10.8283H119.93C119.93 9.87932 120.19 9.16757 121.034 9.16757C121.672 9.16757 122.1 9.77591 122.66 9.77591C122.96 9.77591 123.076 9.59138 123.076 9.24868H123.934C123.934 10.0801 123.792 10.9094 122.946 10.9094C122.272 10.9074 121.83 10.2889 121.296 10.2889H121.294ZM122.648 19.2781L121.934 14.8028L121.218 19.2842L122.648 19.2781ZM125.158 19.6329V15.626C125.158 13.4644 125.938 12.1788 128.2 12.1788C130.462 12.1788 131.228 13.4563 131.228 15.626V19.6329C131.228 21.7824 130.448 23.1268 128.2 23.1268C125.952 23.1268 125.158 21.7945 125.158 19.6329ZM129.278 20.0953V15.1779C129.278 14.2816 129.136 13.6104 128.2 13.6104C127.264 13.6104 127.108 14.2816 127.108 15.1779V20.0953C127.108 20.9774 127.25 21.6891 128.2 21.6891C129.15 21.6891 129.278 20.9774 129.278 20.0953ZM31.9883 29.7434H36.4003V31.1142H33.9003V34.1863H35.8763V35.5429H33.9003V39.0895H36.4343V40.4197H31.9883V29.7434ZM39.4123 29.7434H41.3103V40.4197H39.4123V29.7434ZM42.2583 29.7434H43.6003L46.1603 35.8268V29.7434H47.7463V40.4197H46.4723L43.8983 34.0403V40.4197H42.2603L42.2583 29.7434ZM48.6683 29.7434H53.0003V31.0879H50.5783V34.1985H52.5543V35.5571H50.5783V40.4237H48.6683V29.7434ZM53.3603 29.7434H55.8963C58.0023 29.7434 59.1983 30.4288 59.1983 32.5823C59.1983 33.8598 58.8863 34.7561 57.8983 35.1657L59.3663 40.4237H57.4423L56.1823 35.5348H55.2723V40.4237H53.3603V29.7434ZM55.8823 34.3181C56.9883 34.3181 57.3903 33.8294 57.3903 32.6837C57.3903 31.6029 57.0923 31.0757 55.9903 31.0757H55.2763V34.3201L55.8823 34.3181ZM61.5503 29.7434H63.6003L65.7063 40.4197H63.9263L63.5103 37.9559H61.6803L61.2503 40.4197H59.4503L61.5503 29.7434ZM63.3063 36.717L62.6003 32.2417L61.8863 36.723L63.3063 36.717ZM66.0863 29.7434H70.5063V31.1142H68.0003V34.1863H69.9763V35.5429H68.0003V39.0895H70.5343V40.4197H66.0863V29.7434ZM70.7143 37.3111L72.3663 36.9826C72.4183 38.2479 72.7163 39.0651 73.5663 39.0651C74.1763 39.0651 74.4363 38.6434 74.4363 38.0634C74.4363 37.1408 73.9683 36.6257 73.2803 36.0194L71.9543 34.8474C71.2003 34.1883 70.7323 33.4502 70.7323 32.264C70.7323 30.5769 71.7723 29.6279 73.4483 29.6279C75.4243 29.6279 75.9843 30.9723 76.0883 32.5276L74.4363 32.8175C74.3983 31.8158 74.2543 31.0635 73.4103 31.0635C72.8383 31.0635 72.5263 31.4995 72.5263 32.0652C72.5263 32.7912 72.8243 33.1866 73.3843 33.6733L74.6963 34.8474C75.5543 35.5976 76.2703 36.5345 76.2703 37.9438C76.2703 39.4869 75.2043 40.5677 73.6303 40.5677C71.7023 40.5657 70.8003 39.4322 70.7143 37.3111ZM77.7743 31.1811H76.0963V29.7434H81.3363V31.1811H79.6983V40.4197H77.7743V31.1811ZM81.6223 29.7434H84.1563C86.2623 29.7434 87.4583 30.4288 87.4583 32.5823C87.4583 33.8598 87.1463 34.7561 86.1583 35.1657L87.6283 40.4237H85.7043L84.4423 35.5348H83.5323V40.4237H81.6223V29.7434ZM84.1443 34.3181C85.2483 34.3181 85.6523 33.8294 85.6523 32.6837C85.6523 31.6029 85.3523 31.0757 84.2523 31.0757H83.5363V34.3201L84.1443 34.3181ZM88.1223 36.9664V29.7434H90.0003V37.1915C90.0003 38.2054 90.1163 39.1158 91.0923 39.1158C92.0683 39.1158 92.1963 38.2054 92.1963 37.1915V29.7434H94.0563V36.9664C94.0563 39.1969 93.4443 40.5657 91.0923 40.5657C88.7403 40.5657 88.1223 39.2071 88.1223 36.9664ZM95.9343 31.1811H94.2583V29.7434H99.4963V31.1811H97.8583V40.4197H95.9343V31.1811ZM99.7043 36.9664V29.7434H101.576V37.1915C101.576 38.2054 101.694 39.1158 102.668 39.1158C103.642 39.1158 103.774 38.2054 103.774 37.1915V29.7434H105.632V36.9664C105.632 39.1969 105.032 40.5657 102.668 40.5657C100.304 40.5657 99.7043 39.2071 99.7043 36.9664ZM106.464 29.7434H109C111.106 29.7434 112.302 30.4288 112.302 32.5823C112.302 33.8598 111.99 34.7561 111.002 35.1657L112.47 40.4237H110.546L109.286 35.5348H108.376V40.4237H106.464V29.7434ZM108.986 34.3181C110.092 34.3181 110.494 33.8294 110.494 32.6837C110.494 31.6029 110.196 31.0757 109.094 31.0757H108.38V34.3201L108.986 34.3181ZM114.654 29.7434H116.708L118.814 40.4197H117.034L116.618 37.9559H114.784L114.354 40.4197H112.554L114.654 29.7434ZM116.4 36.717L115.694 32.2417L114.978 36.723L116.4 36.717ZM109.064 96.1369L91.8163 86.0447V65.8541C91.8166 65.6445 91.7623 65.4386 91.6591 65.257C91.5559 65.0755 91.4073 64.9247 91.2283 64.8199L73.4003 54.3809C73.2215 54.2763 73.0187 54.2212 72.8123 54.2212C72.6059 54.2212 72.4031 54.2763 72.2243 54.3809L54.3903 64.8199C54.211 64.9244 54.0622 65.0751 53.9589 65.2567C53.8556 65.4384 53.8016 65.6445 53.8023 65.8541V86.0447L36.5523 96.1369C36.3732 96.2411 36.2244 96.3914 36.1211 96.5727C36.0179 96.754 35.9637 96.9597 35.9643 97.1691V118.055C35.9636 118.265 36.0176 118.471 36.1209 118.653C36.2242 118.834 36.373 118.985 36.5523 119.089L54.3863 129.526C54.565 129.631 54.7678 129.686 54.9743 129.686C55.1808 129.686 55.3836 129.631 55.5623 129.526L72.8003 119.436L90.0443 129.528C90.2232 129.633 90.4259 129.688 90.6323 129.689C90.8388 129.689 91.0418 129.634 91.2203 129.528L109.056 119.091C109.236 118.987 109.384 118.836 109.488 118.655C109.591 118.473 109.645 118.267 109.644 118.057V97.1711C109.646 96.9622 109.593 96.7566 109.491 96.575C109.39 96.3934 109.242 96.2423 109.064 96.1369ZM71.6323 115.989L57.3263 107.616L71.6323 99.2415V115.989ZM88.2863 86.7382L73.9843 95.1028V78.3594L88.2863 86.7382ZM71.6323 95.1028L57.3283 86.7321L71.6323 78.3574V95.1028ZM75.1623 97.1691L90.6403 88.109L106.122 97.167L90.6403 106.231L75.1623 97.1691ZM89.4643 84.6638L75.1623 76.2911L89.4643 67.9305V84.6638ZM70.4543 76.2911L56.1503 84.6658V67.9305L70.4543 76.2911ZM53.8003 126.424L38.3183 117.364V99.2374L53.8003 108.3V126.424ZM56.1523 126.424V109.678L70.4563 118.051L56.1523 126.424ZM107.3 117.364L91.8163 126.424V108.3L107.3 99.2374V117.364Z" fill="white"/>
</g>
<defs>
<clipPath id="clip0_68_601">
<rect width="144" height="146" rx="15" fill="white"/>
</clipPath>
</defs>
</svg>
