<svg width="51" height="51" viewBox="0 0 51 51" fill="none" xmlns="http://www.w3.org/2000/svg">
<path d="M5.73105 44.0878C1.89659 40.1334 2.05348 33.7918 5.94792 29.8958L17.1329 18.7109C17.9835 17.8603 19.3647 17.8603 20.2152 18.7109C21.0658 19.5614 21.0658 20.9426 20.2152 21.7932L9.00871 32.9997C6.82463 35.1838 6.68466 38.7429 8.80415 40.9916C11.0052 43.328 14.6996 43.3695 16.9529 41.1146L17.4882 40.5794C18.3388 39.7288 19.72 39.7288 20.5705 40.5794C21.4211 41.43 21.4211 42.8112 20.5705 43.6617L20.0353 44.197C16.0839 48.1483 9.63318 48.1114 5.73105 44.0878Z" fill="white"/>
<path d="M44.3075 5.95087C48.1419 9.90529 47.985 16.2468 44.0906 20.1428L32.9056 31.3278C32.0551 32.1783 30.6739 32.1783 29.8233 31.3278C28.9727 30.4772 28.9727 29.096 29.8233 28.2455L41.0298 17.0389C43.2139 14.8549 43.3539 11.2957 41.2344 9.04704C39.0334 6.71068 35.3389 6.66916 33.0856 8.92399L32.5503 9.45925C31.6998 10.3098 30.3186 10.3098 29.468 9.45925C28.6174 8.60868 28.6174 7.22748 29.468 6.37692L30.0033 5.84166C33.9531 1.89032 40.4038 1.92723 44.3075 5.95087Z" fill="white"/>
<path d="M5.95075 5.73092C9.90517 1.89647 16.2467 2.05336 20.1427 5.94779L31.3277 17.1328C32.1782 17.9833 32.1782 19.3645 31.3277 20.2151C30.4771 21.0657 29.0959 21.0657 28.2453 20.2151L17.0388 9.00859C14.8547 6.82451 11.2956 6.68454 9.04692 8.80402C6.71056 11.005 6.66903 14.6995 8.92387 16.9528L9.45912 17.4881C10.3097 18.3386 10.3097 19.7198 9.45912 20.5704C8.60856 21.421 7.22736 21.421 6.3768 20.5704L5.84154 20.0351C1.89019 16.0838 1.92711 9.63305 5.95075 5.73092Z" fill="white"/>
<path d="M10.4556 15.5716C9.04213 14.1597 9.04213 11.8679 10.4556 10.4559C11.8676 9.04398 14.1593 9.04398 15.5713 10.4559C16.9833 11.8694 16.9833 14.1597 15.5713 15.5716C14.1593 16.9851 11.8691 16.9851 10.4556 15.5716Z" fill="white"/>
<path d="M34.4652 15.5716C33.0533 14.1597 33.0533 11.8679 34.4652 10.4559C35.8772 9.04398 38.1689 9.04398 39.5809 10.4559C40.9944 11.8694 40.9944 14.1597 39.5809 15.5716C38.1689 16.9851 35.8787 16.9851 34.4652 15.5716Z" fill="white"/>
<path d="M10.4556 39.5073C9.04213 38.0954 9.04213 35.8036 10.4556 34.3917C11.8676 32.9782 14.1593 32.9782 15.5713 34.3917C16.9833 35.8036 16.9833 38.0954 15.5713 39.5073C14.1593 40.9209 11.8691 40.9209 10.4556 39.5073Z" fill="white"/>
<path d="M37.0229 40.5671C39.0208 40.5671 40.6404 38.9474 40.6404 36.9495C40.6404 34.9516 39.0208 33.3319 37.0229 33.3319C35.0249 33.3319 33.4053 34.9516 33.4053 36.9495C33.4053 38.9474 35.0249 40.5671 37.0229 40.5671Z" fill="white"/>
<path d="M44.0881 44.3077C40.1337 48.1422 33.7921 47.9853 29.8961 44.0909L18.7112 32.9059C17.8606 32.0553 17.8606 30.6741 18.7112 29.8236C19.5617 28.973 20.9429 28.973 21.7935 29.8236L33 41.0301C35.1841 43.2142 38.7432 43.3541 40.9919 41.2346C43.3283 39.0336 43.3698 35.3391 41.115 33.0843L40.5797 32.549C39.7291 31.6985 39.7291 30.3173 40.5797 29.4667C41.4303 28.6162 42.8115 28.6162 43.662 29.4667L44.1973 30.002C48.1486 33.9533 48.1117 40.4041 44.0881 44.3077Z" fill="white"/>
</svg>
