<svg width="217" height="314" viewBox="0 0 217 314" fill="none" xmlns="http://www.w3.org/2000/svg">
<path d="M14.1528 202.592C-4.63382 183.217 -3.86518 152.147 15.2153 133.059L70.0152 78.2594C74.1824 74.0922 80.9495 74.0922 85.1168 78.2594C89.284 82.4267 89.284 89.1938 85.1168 93.361L30.2114 148.266C19.5107 158.967 18.8249 176.405 29.2092 187.422C39.9928 198.869 58.0936 199.072 69.1335 188.025L71.7559 185.402C75.9232 181.235 82.6903 181.235 86.8575 185.402C91.0248 189.57 91.0248 196.337 86.8575 200.504L84.2351 203.127C64.8758 222.486 33.2709 222.305 14.1528 202.592Z" fill="#19658F"/>
<path d="M203.156 15.7429C221.943 35.1173 221.174 66.1872 202.094 85.2752L147.294 140.075C143.127 144.242 136.36 144.242 132.192 140.075C128.025 135.908 128.025 129.141 132.192 124.973L187.098 70.0681C197.798 59.3673 198.484 41.9296 188.1 30.9124C177.316 19.4656 159.216 19.2621 148.176 30.3095L145.553 32.932C141.386 37.0992 134.619 37.0992 130.452 32.932C126.284 28.7647 126.284 21.9976 130.452 17.8303L133.074 15.2079C152.426 -4.1514 184.031 -3.97054 203.156 15.7429Z" fill="#19658F"/>
<path d="M15.2306 14.6653C34.605 -4.12125 65.6748 -3.3526 84.7628 15.7279L139.563 70.5277C143.73 74.695 143.73 81.4621 139.563 85.6294C135.395 89.7966 128.628 89.7966 124.461 85.6294L69.5557 30.724C58.855 20.0233 41.4173 19.3375 30.4 29.7217C18.9533 40.5054 18.7498 58.6062 29.7972 69.6461L32.4196 72.2685C36.5869 76.4358 36.5869 83.2029 32.4196 87.3701C28.2524 91.5374 21.4853 91.5374 17.318 87.3701L14.6956 84.7477C-4.66373 65.3884 -4.48287 33.7835 15.2306 14.6653Z" fill="white"/>
<path d="M37.3024 62.879C30.3771 55.9612 30.3771 44.7329 37.3024 37.8151C44.2202 30.8973 55.4484 30.8973 62.3663 37.8151C69.2841 44.7405 69.2841 55.9612 62.3663 62.879C55.4484 69.8043 44.2277 69.8043 37.3024 62.879Z" fill="white"/>
<path d="M154.935 62.879C148.018 55.9612 148.018 44.7329 154.935 37.8151C161.853 30.8973 173.081 30.8973 179.999 37.8151C186.925 44.7405 186.925 55.9612 179.999 62.879C173.081 69.8043 161.861 69.8043 154.935 62.879Z" fill="#19658F"/>
<path d="M37.3024 180.15C30.3771 173.232 30.3771 162.004 37.3024 155.086C44.2202 148.161 55.4484 148.161 62.3663 155.086C69.2841 162.004 69.2841 173.232 62.3663 180.15C55.4484 187.075 44.2277 187.075 37.3024 180.15Z" fill="#19658F"/>
<path d="M167.468 185.342C177.257 185.342 185.192 177.407 185.192 167.618C185.192 157.829 177.257 149.894 167.468 149.894C157.679 149.894 149.744 157.829 149.744 167.618C149.744 177.407 157.679 185.342 167.468 185.342Z" fill="white"/>
<path d="M202.08 203.669C182.705 222.456 151.635 221.687 132.547 202.607L77.7475 147.807C73.5803 143.639 73.5803 136.872 77.7475 132.705C81.9148 128.538 88.6819 128.538 92.8491 132.705L147.755 187.61C158.455 198.311 175.893 198.997 186.91 188.613C198.357 177.829 198.56 159.728 187.513 148.681L184.891 146.058C180.723 141.891 180.723 135.124 184.891 130.957C189.058 126.79 195.825 126.79 199.992 130.957L202.615 133.579C221.974 152.939 221.793 184.543 202.08 203.669Z" fill="white"/>
<path d="M28.7805 278.596C28.7805 275.615 29.3871 273.015 30.6005 270.796C31.8138 268.543 33.4951 266.809 35.6445 265.596C37.7938 264.348 40.2551 263.724 43.0285 263.724C46.5991 263.724 49.5458 264.625 51.8685 266.428C54.2258 268.196 55.8031 270.692 56.6005 273.916H48.7485C48.3325 272.668 47.6218 271.697 46.6165 271.004C45.6458 270.276 44.4325 269.912 42.9765 269.912C40.8965 269.912 39.2498 270.675 38.0365 272.2C36.8231 273.691 36.2165 275.823 36.2165 278.596C36.2165 281.335 36.8231 283.467 38.0365 284.992C39.2498 286.483 40.8965 287.228 42.9765 287.228C45.9231 287.228 47.8471 285.911 48.7485 283.276H56.6005C55.8031 286.396 54.2258 288.875 51.8685 290.712C49.5111 292.549 46.5645 293.468 43.0285 293.468C40.2551 293.468 37.7938 292.861 35.6445 291.648C33.4951 290.4 31.8138 288.667 30.6005 286.448C29.3871 284.195 28.7805 281.577 28.7805 278.596ZM74.7257 293.468C71.9524 293.468 69.4564 292.861 67.2377 291.648C65.019 290.4 63.2684 288.649 61.9857 286.396C60.7377 284.143 60.1137 281.543 60.1137 278.596C60.1137 275.649 60.755 273.049 62.0377 270.796C63.355 268.543 65.1404 266.809 67.3937 265.596C69.647 264.348 72.1604 263.724 74.9337 263.724C77.707 263.724 80.2204 264.348 82.4737 265.596C84.727 266.809 86.495 268.543 87.7777 270.796C89.095 273.049 89.7537 275.649 89.7537 278.596C89.7537 281.543 89.0777 284.143 87.7257 286.396C86.4084 288.649 84.6057 290.4 82.3177 291.648C80.0644 292.861 77.5337 293.468 74.7257 293.468ZM74.7257 287.124C76.043 287.124 77.2737 286.812 78.4177 286.188C79.5964 285.529 80.5324 284.559 81.2257 283.276C81.919 281.993 82.2657 280.433 82.2657 278.596C82.2657 275.857 81.5377 273.76 80.0817 272.304C78.6604 270.813 76.9097 270.068 74.8297 270.068C72.7497 270.068 70.999 270.813 69.5777 272.304C68.191 273.76 67.4977 275.857 67.4977 278.596C67.4977 281.335 68.1737 283.449 69.5257 284.94C70.9124 286.396 72.6457 287.124 74.7257 287.124ZM102.374 254.52V293H95.0939V254.52H102.374ZM116.847 254.52V293H109.567V254.52H116.847ZM122.167 278.492C122.167 275.58 122.739 272.997 123.883 270.744C125.062 268.491 126.639 266.757 128.615 265.544C130.626 264.331 132.862 263.724 135.323 263.724C137.473 263.724 139.345 264.157 140.939 265.024C142.569 265.891 143.869 266.983 144.839 268.3V264.192H152.171V293H144.839V288.788C143.903 290.14 142.603 291.267 140.939 292.168C139.31 293.035 137.421 293.468 135.271 293.468C132.845 293.468 130.626 292.844 128.615 291.596C126.639 290.348 125.062 288.597 123.883 286.344C122.739 284.056 122.167 281.439 122.167 278.492ZM144.839 278.596C144.839 276.828 144.493 275.32 143.799 274.072C143.106 272.789 142.17 271.819 140.991 271.16C139.813 270.467 138.547 270.12 137.195 270.12C135.843 270.12 134.595 270.449 133.451 271.108C132.307 271.767 131.371 272.737 130.643 274.02C129.95 275.268 129.603 276.759 129.603 278.492C129.603 280.225 129.95 281.751 130.643 283.068C131.371 284.351 132.307 285.339 133.451 286.032C134.63 286.725 135.878 287.072 137.195 287.072C138.547 287.072 139.813 286.743 140.991 286.084C142.17 285.391 143.106 284.42 143.799 283.172C144.493 281.889 144.839 280.364 144.839 278.596ZM166.561 268.404C167.497 267.017 168.78 265.891 170.409 265.024C172.073 264.157 173.963 263.724 176.077 263.724C178.539 263.724 180.757 264.331 182.733 265.544C184.744 266.757 186.321 268.491 187.465 270.744C188.644 272.963 189.233 275.545 189.233 278.492C189.233 281.439 188.644 284.056 187.465 286.344C186.321 288.597 184.744 290.348 182.733 291.596C180.757 292.844 178.539 293.468 176.077 293.468C173.928 293.468 172.039 293.052 170.409 292.22C168.815 291.353 167.532 290.244 166.561 288.892V293H159.281V254.52H166.561V268.404ZM181.797 278.492C181.797 276.759 181.433 275.268 180.705 274.02C180.012 272.737 179.076 271.767 177.897 271.108C176.753 270.449 175.505 270.12 174.153 270.12C172.836 270.12 171.588 270.467 170.409 271.16C169.265 271.819 168.329 272.789 167.601 274.072C166.908 275.355 166.561 276.863 166.561 278.596C166.561 280.329 166.908 281.837 167.601 283.12C168.329 284.403 169.265 285.391 170.409 286.084C171.588 286.743 172.836 287.072 174.153 287.072C175.505 287.072 176.753 286.725 177.897 286.032C179.076 285.339 180.012 284.351 180.705 283.068C181.433 281.785 181.797 280.26 181.797 278.492Z" fill="white"/>
</svg>
